<svg id="Capa_1" data-name="Capa 1" xmlns="http://www.w3.org/2000/svg" xmlns:xlink="http://www.w3.org/1999/xlink" viewBox="0 0 850.39 850.39"><defs><style>.cls-1,.cls-3{fill:none;}.cls-2{clip-path:url(#clip-path);}.cls-3{stroke:#03b2f6;stroke-miterlimit:10;}.cls-4{fill:#03b2f6;}</style><clipPath id="clip-path"><rect class="cls-1" width="850.39" height="850.39"/></clipPath></defs><title>4teen</title><g class="cls-2"><path class="cls-3" d="M17.91,470.67,220.46,265.75s3.17-3.36,4.35-1.78.79,10.88.79,10.88l-2.37,285.63s3.56,34.81-28.88,57.36-39.16,19.78-39.16,19.78l-4.35-9.49a11.16,11.16,0,0,0,2.37-2c1.58-1.58,29.67-15,38.37-44.31s4.75-87.43,4.75-87.43S194,478.58,180.11,481L19.5,478.19a2.82,2.82,0,0,1-2.27-2.28S16.34,472.26,17.91,470.67Z"/><polygon class="cls-3" points="73.69 448.51 199.49 320.74 196.33 448.51 73.69 448.51"/><path class="cls-3" d="M242.09,248.34v-4.48s.23-.76.53-1.45,22.55-22,22.55-22,2.77-2.51,4.48,0v3.3l1.19,209s-1.06,20.58,17.67,17.94,38.77-24,38.77-24,6.59,0,9,8.17L323.54,450c-6.61,7.93-13,17.85-20.63,24.7-4.42,3.95-17,1.49-22.85,1.49,0,0-10.81,2.64-11.34,17.14s-.26,50.64-.26,50.64-15.3,32.7-29.54,40.09c0,0-3.43.53-2.37-6.33S245,540.82,245,540.82Z"/><path class="cls-4" d="M307.16,344.87h9.39v21.63l-4.7,3V373h9.52V340.78h-17.8a3.22,3.22,0,0,0-1.24,1.71c-.25,1.06,0,7.91,0,7.91s2.22,1.85,3.21,0,0-2.11,1.61-5.54"/><path class="cls-4" d="M336.59,344.87h-9.39v21.63l4.7,3V373h-9.52V340.78h17.8a3.22,3.22,0,0,1,1.24,1.71c.25,1.06,0,7.91,0,7.91s-2.22,1.85-3.21,0,0-2.11-1.61-5.54"/><path class="cls-4" d="M304.07,384l-.92,25.58a4.28,4.28,0,0,0,2.77,1.45c1.71.13,2.9-.13,2.9-1.32s2.51-14.37,10-15.56h29.8v66.39s-.59,6.2-5.14,8l-7.91,4.22a4.58,4.58,0,0,0-.66,3.36c.46,1.71,1.78,1.65,1.78,1.65h24.53V386.27a2.48,2.48,0,0,0-2.31-2.24Z"/><path class="cls-4" d="M420.3,384l.92,25.58a4.28,4.28,0,0,1-2.77,1.45c-1.71.13-2.9-.13-2.9-1.32s-2.51-14.37-10-15.56h-29.8v66.39s.59,6.2,5.14,8l7.91,4.22a4.58,4.58,0,0,1,.66,3.36c-.46,1.71-1.78,1.65-1.78,1.65H363.13V386.27a2.48,2.48,0,0,1,2.31-2.24Z"/><path class="cls-4" d="M431.32,388.91s10.42,2.11,10.81,9.76V463s-1.19,5.28-5.41,7l-5.41,2.24a1.59,1.59,0,0,0-.57,1.06c0,.67,0,4.11,0,4.11s.07.22,1,.42,24.16-.05,24.16-.05V386.27s-.25-2.14-2-2.24-22.55,0-22.55,0Z"/><path class="cls-4" d="M457.43,385.42v92.37l61.52.13,7.12-17.53.89-5.54s-.79-2.47-2.57-2.08-10.19,9.3-10.19,9.3a21.11,21.11,0,0,1-7,3.46c-3.56.79-35.7.2-35.7.2l-.2-31.85,26.51-.1s8.9,1.19,10.38,7.12l.1,5,6.63.1.1-32.34s-4.75-2.27-6.63.3c0,0-1.09,7.12-5.74,8.7l-31.85.2.1-28.09,34.12-.1a9.72,9.72,0,0,1,5.64,3.76,62.46,62.46,0,0,1,3.46,6.43s0,.79,1.48,1.19a15.62,15.62,0,0,0,4.25.1l-.49-21.56s-.18-.89-1.58-.89h0l-59.44.25s-.89.14-.89,1.43"/><path class="cls-4" d="M538.88,388.91s10.42,2.11,10.81,9.76V463s-1.19,5.28-5.41,7l-5.41,2.24a1.59,1.59,0,0,0-.57,1.06c0,.67,0,4.11,0,4.11s.07.22,1,.42,24.16-.05,24.16-.05V386.27s-.25-2.14-2-2.24-22.55,0-22.55,0Z"/><path class="cls-4" d="M565,385.42v92.37l61.52.13,7.12-17.53.89-5.54s-.79-2.47-2.57-2.08-10.19,9.3-10.19,9.3a21.11,21.11,0,0,1-7,3.46c-3.56.79-35.7.2-35.7.2l-.2-31.85,26.51-.1s8.9,1.19,10.38,7.12l.1,5,6.63.1.1-32.34s-4.75-2.27-6.63.3c0,0-1.09,7.12-5.74,8.7l-31.85.2.1-28.09,34.12-.1a9.72,9.72,0,0,1,5.64,3.76,62.58,62.58,0,0,1,3.46,6.43s0,.79,1.48,1.19a15.61,15.61,0,0,0,4.25.1l-.49-21.56s-.18-.89-1.58-.89h0l-59.44.25s-.89.14-.89,1.43"/><path class="cls-4" d="M644.81,384h18.72L774,467.24a4,4,0,0,1,.92,2.37c.13,1.58,0,8,0,8a6.37,6.37,0,0,1-5.67,0l-83.08-62.9,1.06,42.46.39,4.85s2.67,7.12,7.72,8.51l4.35,1.09s2,.4,2.27,2.08,1.39,3.51-.79,4.18H662.35s-2-.62-2.08-1.71l-.1-3.07a4.37,4.37,0,0,1,2.47-1.58c1.78-.49,9.2-.79,10.88-8.61l.49-55.58L649.1,390.16l-3.66-.1a3.38,3.38,0,0,1-2.18-1.68c-.69-1.39-.26-4.4,1.55-4.4"/><path class="cls-4" d="M672.24,388.58l96.13,72.59a4.39,4.39,0,0,0,2,.92,29.78,29.78,0,0,0,4.61.33v-59.8s.34-7.91,9-11.87a30.15,30.15,0,0,1,5-1.52,5.28,5.28,0,0,0,0-4.75H746.55s-1.39.46-1.58,1.38a10.57,10.57,0,0,0,.13,2.84,2,2,0,0,0,1.45.73c1,.07,14.83.39,15.43,12.2l.86,40-74.37-55a5.94,5.94,0,0,0-4.42-1.78l-11-.07s-1.45-.07-1.58.86-.6,1.92.79,3"/><path class="cls-4" d="M362.35,488.73s4.75-.53,5.27,3,0,12,0,12-.13.79-1.58,1.32a3.68,3.68,0,0,1-3.69-.66l-1.12-4.48a7.7,7.7,0,0,0-5.47-4.62,25.24,25.24,0,0,0-8.57.13s-3.56.79-3.56,3.3.26,3,2.37,4,10.55,2.9,14,5c0,0,7.91,2.24,9.63,8.7s-.53,11.08-3.17,13.19l-2.77,1.85h-1.05s4-5.28,1.45-11.34c0,0-1.58-4.09-8.44-6.46,0,0-8-1.74-10.81-3.57-3.46-2.29-6.45-4.43-7.74-8.68a10.71,10.71,0,0,1,1.15-9c3.19-4.73,8.88-3.7,13.8-3.69l10.33,0"/><path class="cls-4" d="M373.06,488.62l-.42,13.24a1.91,1.91,0,0,0,1.26.75c.78.07,1.32-.07,1.32-.68s1.14-7.44,4.55-8.05h13.55v34.35s-.27,3.21-2.34,4.13l-3.6,2.18a2.62,2.62,0,0,0-.3,1.74c.21.89.81.85.81.85H399V489.78a1.24,1.24,0,0,0-1-1.16Z"/><path class="cls-4" d="M425.89,488.62l.42,13.24a1.91,1.91,0,0,1-1.26.75c-.78.07-1.32-.07-1.32-.68s-1.14-7.44-4.55-8.05H405.63v34.35s.27,3.21,2.34,4.13l3.6,2.18a2.62,2.62,0,0,1,.3,1.74c-.21.89-.81.85-.81.85H399.91V489.78a1.24,1.24,0,0,1,1-1.16Z"/><path class="cls-4" d="M387.94,342s3.62.73,3.75,3.39v22.35a3.69,3.69,0,0,1-1.88,2.43l-1.88.78a.55.55,0,0,0-.2.37c0,.23,0,1.42,0,1.42s0,.08.34.15,8.39,0,8.39,0V341.13s-.09-.74-.7-.78-7.83,0-7.83,0Z"/><path class="cls-4" d="M397,340.83v32.08l21.36,0,2.47-6.09.31-1.92s-.27-.86-.89-.72-3.54,3.23-3.54,3.23a7.33,7.33,0,0,1-2.44,1.2c-1.24.27-12.4.07-12.4.07l-.07-11.06,9.2,0s3.09.41,3.61,2.47l0,1.75,2.3,0,0-11.23s-1.65-.79-2.3.1c0,0-.38,2.47-2,3l-11.06.07,0-9.75,11.85,0a3.38,3.38,0,0,1,2,1.3,21.63,21.63,0,0,1,1.2,2.23s0,.27.52.41a5.44,5.44,0,0,0,1.48,0l-.17-7.49s-.07-.31-.55-.31h0l-20.64.09s-.31,0-.31.5"/><path class="cls-4" d="M358.1,354.45h13.06v-7.86s-1.52-2.16-3.17-2.66h-1s-.82-.13-1-.51L366,343v-2s-.32-.57.64-.63,7.74,0,7.74,0l1,0,.25,33h-8.72a1.82,1.82,0,0,1-1.49-1.4c-.32-1.27-.25-2.22.63-2.73s3.11-.63,3.49-1.46l-.06-7.86-11-.13v7.67s-.32,1.84,3,1.84c0,0,.83.19,1,.83a9.7,9.7,0,0,1,.13,2.16s.08,1.08-.25,1.08h-8.37v-33c2.86,0,5.72,0,8.58,0a5.5,5.5,0,0,1,.48,3.13,3.45,3.45,0,0,1-1.4.63s-2.73.76-3.17,1.59Z"/><path class="cls-4" d="M344,342.07s3.62.74,3.75,3.43v22.62a3.74,3.74,0,0,1-1.88,2.46l-1.88.79a.56.56,0,0,0-.2.37c0,.23,0,1.44,0,1.44s0,.08.34.15,8.39,0,8.39,0V341.14s-.09-.75-.7-.79-7.83,0-7.83,0Z"/><path class="cls-4" d="M385.16,342.07s-3.62.74-3.76,3.43v22.62a3.74,3.74,0,0,0,1.88,2.46l1.88.79a.56.56,0,0,1,.2.37c0,.23,0,1.44,0,1.44s0,.08-.34.15-8.39,0-8.39,0V341.14s.09-.75.7-.79,7.83,0,7.83,0Z"/><path class="cls-4" d="M334.66,498.89s-.79,8.31,6.86,11.74a31.34,31.34,0,0,0,11.87,4.48c7.61,1.4,9.23,6.59,8.57,9.89-1.11,5.57-5.33,10.7-11.33,11-4.07.19-8.2,0-12.28,0a3.7,3.7,0,0,1-3.71-2.51l-.9-10.68s0-2.11.92-2.24,1.46-.13,1.92,1.32,1,8.44,6.39,8.7c3.25.16,7.22.86,10.35-.21a4.25,4.25,0,0,0,1.89-1.18,4.52,4.52,0,0,0,.87-1.85,6.49,6.49,0,0,0,0-3.34c-1.4-5-10.47-5.54-14.48-7.06-3.38-1.28-8-3.22-9.45-6.86-2.14-5.48.48-11.59,2.47-11.15"/><path class="cls-4" d="M559.33,492.11s5.27,1.07,5.47,4.94V529.6s-.6,2.67-2.74,3.54l-2.73,1.13a.81.81,0,0,0-.29.54c0,.34,0,2.08,0,2.08s0,.11.5.21,12.22,0,12.22,0V490.78s-.12-1.08-1-1.13-11.4,0-11.4,0Z"/><path class="cls-4" d="M585.4,492.11s-5.27,1.07-5.47,4.94V529.6s.6,2.67,2.74,3.54l2.73,1.13a.81.81,0,0,1,.29.54c0,.34,0,2.08,0,2.08s0,.11-.5.21-12.22,0-12.22,0V490.78s.13-1.08,1-1.13,11.41,0,11.41,0Z"/><path class="cls-4" d="M494.57,492.11s5.27,1.07,5.47,4.94V529.6s-.6,2.67-2.73,3.54l-2.73,1.13a.8.8,0,0,0-.29.54c0,.34,0,2.08,0,2.08s0,.11.5.21,12.22,0,12.22,0V490.78s-.12-1.08-1-1.13-11.41,0-11.41,0Z"/><path class="cls-4" d="M542.5,505.08c-.43-2.92-.8-5.84-2.43-8.38-6.17-9.64-21-7.09-30.62-7.09v47.51H527c1.59,0,3.89-1.44,5.29-2.08a18.34,18.34,0,0,0,9.67-11.26c1.91-6,1.5-12.57.59-18.7m-6.64,18.81c-1.62,2.77-4.65,5.64-8,5.82-3.66.2-12.07,0-12.07,0l-.59-34.52c5.39,0,12.21-1.24,16.78,2.18,3.1,2.32,4.66,6.35,5.17,10.09.72,5.26,1.51,11.65-1.28,16.43"/><path class="cls-4" d="M541.69,495s3.46,4.08,3.76,7.54,2.57,9.69,0,20.57c0,0-1.29,5.74-5.44,8.8a1.86,1.86,0,0,0,2.28,0,19.33,19.33,0,0,0,8.58-14.24c.81-9.1-.47-14.34-3-17.7a57.59,57.59,0,0,0-4.56-5.34,1.32,1.32,0,0,0-1.57.37"/><path class="cls-4" d="M432.11,491.5s3.16-.13,4.09,2.37v31.52s0,4,2.11,5.93,3.56,2.11,3.56,2.11h1.44s-1.58-1.85-2-5.93-.53-35.08-.53-35.08,1.19-1.85-1.85-2h-5s-1.85-.39-1.85,1.06"/><path class="cls-4" d="M443.31,491v30.86s.14,9.89,5.68,11.6,18.59,1.19,22.55,0c0,0,.66-1.05,1.58.53l-1.45,2.51H478l-.66-46.07H466.66s-.4.84-.26,1.24,4.61.92,5.14,2,.66,31.38.66,31.38-1.58,5.8-7.12,5.67h-8.31s-6.75-.74-7-6.33c-.13-3-.13-29.36-.13-29.36s3.66-3.08,6.25-3.08l-.58-1.5h-12Z"/><path class="cls-4" d="M492.2,492.28s-5.27,1.05-5.47,4.86V529.2a5.3,5.3,0,0,0,2.73,3.48l2.74,1.12a.79.79,0,0,1,.29.53c0,.33,0,2,0,2s0,.11-.5.21-12.22,0-12.22,0V491s.13-1.07,1-1.12,11.41,0,11.41,0Z"/><path class="cls-4" d="M617.29,488.09c-10.79,0-19.54,11.16-19.54,24.92s8.75,24.92,19.54,24.92,19.54-11.16,19.54-24.92-8.75-24.92-19.54-24.92m.76,44.2c-7.65,0-13.85-8.75-13.85-19.53s6.2-19.53,13.85-19.53,13.85,8.74,13.85,19.53-6.2,19.53-13.85,19.53"/><path class="cls-4" d="M634.19,494.34s3.46,4.08,3.76,7.54,2.57,9.69,0,20.57c0,0-1.29,5.74-5.44,8.8a1.86,1.86,0,0,0,2.28,0A19.33,19.33,0,0,0,643.37,517c.81-9.1-.47-14.34-3-17.7a57.59,57.59,0,0,0-4.56-5.34,1.32,1.32,0,0,0-1.57.37"/><path class="cls-4" d="M600.58,495s-3.46,4.08-3.76,7.54-2.57,9.69,0,20.57c0,0,1.29,5.74,5.44,8.8a1.86,1.86,0,0,1-2.28,0,19.33,19.33,0,0,1-8.58-14.24c-.81-9.1.47-14.34,3-17.7a57.59,57.59,0,0,1,4.56-5.34,1.32,1.32,0,0,1,1.57.37"/></g></svg>