<svg id="Capa_1" data-name="Capa 1" xmlns="http://www.w3.org/2000/svg" xmlns:xlink="http://www.w3.org/1999/xlink" viewBox="0 0 850.39 850.39"><defs><style>.cls-1,.cls-6{fill:none;}.cls-2{clip-path:url(#clip-path);}.cls-3{fill:#c4471e;}.cls-4{fill:#1d1d1b;}.cls-5{fill:#c6561b;}.cls-6{stroke:#060506;stroke-miterlimit:10;}</style><clipPath id="clip-path"><rect class="cls-1" width="850.39" height="850.39"/></clipPath></defs><title>almacenAN</title><g class="cls-2"><path class="cls-3" d="M387.23,554c5.22.65,10.48,1.05,15.64,2,10.31,1.92,20.56,4.18,30.85,6.24,6.71,1.34,13.4,2.77,20.16,3.78,11,1.65,22.05,3,33.08,4.46,1.14.15,2.28.25,3.43.31,23.4,1.29,46.86,2.23,70.17-.28,34-3.66,67.18-10,98.14-26.37,29.15-15.39,51.67-36.07,64.32-66.73a284.42,284.42,0,0,0,11-30.52,124.75,124.75,0,0,0,4.38-25.6c1.53-22.92,1.82-45.89-2.31-68.62-4.86-26.71-12.47-52.8-23.8-77.36-7.71-16.7-18.15-32.25-28.39-47.64-14.07-21.15-31.81-39.14-51.85-54.7-15-11.64-30.54-22.53-45.79-33.82-2.27-1.68-4.26-3.74-6.37-5.62l1-1.69c5.39,2.46,11.27,4.21,16.1,7.49,20.43,13.91,41.15,27.52,60.61,42.71,17.72,13.82,32.18,31.16,46.68,48.4,14.3,17,24.85,36.09,35.14,55.53,12.54,23.69,20.07,49.06,26.7,74.81a240.61,240.61,0,0,1,7.2,59.92c0,23.14-1.59,46.32-10,68.25-6.36,16.63-16.9,30.3-30.05,42.52-22,20.48-48,33.32-76.08,42.63-21.42,7.1-43.31,11.88-66,12.43-15.41.38-30.89,1.76-46.21.73-22.88-1.53-45.85-3.62-68.41-7.6-25.62-4.53-50.86-11.27-76.19-17.4-4.82-1.16-9.25-3.93-13.85-6l.59-2.32"/><path class="cls-3" d="M316.24,524.14c-5-2.42-10.36-4.31-15-7.34-26.25-17.33-52.5-34.68-78.36-52.58-10.08-7-19.34-15.19-28.65-23.22-13.52-11.67-27.28-23.15-40-35.7s-24.55-25.92-36-39.6a255.57,255.57,0,0,1-36.26-56.58c-7.81-16.85-15.16-34-18-52.36a120.71,120.71,0,0,1,8.29-66c8.6-20.53,22.47-36.83,38.32-51.67,22.32-20.9,48.82-35,76.78-46.95,21.11-9,43-15.1,65.26-20a323.6,323.6,0,0,1,89-6.93c12.84.78,25.62,3.17,38.32,5.44,9.3,1.66,18.43,4.32,27.62,6.57a9.47,9.47,0,0,1,2,1l-.32,1.48c-9.87-1.58-19.68-3.76-29.61-4.59-14-1.17-28.07-2-42.1-1.78a316.32,316.32,0,0,0-39.2,2.91c-20.66,2.85-40.65,8.48-60.48,15.17a278.77,278.77,0,0,0-79,41.27c-21.9,16.45-40.21,36.32-50.74,62-3.16,7.72-4.37,16.45-5.24,24.84-1,10.06-1,20.26-1,30.4,0,18.77,4.29,36.62,11.57,54,6.94,16.51,14.05,32.94,24.39,47.59,10.09,14.3,20.5,28.46,31.81,41.8,11.94,14.1,24.92,27.35,37.79,40.63a431.69,431.69,0,0,0,50.52,44.46c17,12.77,34.48,24.88,51.68,37.38a93,93,0,0,1,7.47,6.72l-1,1.62"/><path class="cls-4" d="M643.67,297.45c-.69,2.37-.93,5-2.13,7.07a108.71,108.71,0,0,1-43.6,42c-4.42,2.37-4.82,6.64-4,10.7a18,18,0,0,1-2.69,14.47c-.57.87.39,3.86,1.48,4.52,7.24,4.44,14.77,8.39,22.06,12.76,2.6,1.56,4.79,3.82,7.17,5.75L620.7,397a69.52,69.52,0,0,1-6.88-2.74c-8-4.16-15.67-8.9-23.85-12.58-7.19-3.23-9.11-2.06-14.13,3.8a58.52,58.52,0,0,1-9.64,9c-3.16,2.33-6.86,2.84-10.55.36s-3.46-5.59-3.1-9.48c.78-8.58,2-17.38.91-25.81-1.49-11.23-8.21-16-19.54-17.15a28.73,28.73,0,0,1-8.51-2.1c-3.45-1.5-3.73-4.25-.49-6.21,19.92-12,22.45-39.33,17.46-59.14-2.21,2-4.68,3.16-5.47,5.06a55.49,55.49,0,0,0-3.74,13.13c-.6,4.12-2.69,6.26-6.39,6.95a95.4,95.4,0,0,1-10.22,1c-3.74.28-7.52.81-11.22.51-3.12-.25-6.6-.88-9.07-2.59-1.75-1.21-2.65-4.47-2.75-6.86,0-.93,3.05-2.47,4.91-2.89a32,32,0,0,1,9.71-.94,6.57,6.57,0,0,1,4.71,3.34c1.63,4.24,4.77,3.46,7.69,2.87s6.4-.58,6.18-5.29c-.29-6.35,3.09-11.35,7.2-15.66,5.71-6,12.37-10.53,20.69-12.57,16.34-4,25.91-14.8,28.38-31.38.26-1.71.54-3.41.93-5.81,5,2.9,6.26,7.33,6.64,11.46,1.27,14,6.85,26.65,12.19,39.26,3.75,8.85,6,15.5-2.8,23.63-6.49,6-9.59,15.68-14.55,24.33,0-3.4-.91-6.75.16-9.25,3.65-8.52,8.14-16.68,12-25.12,1.14-2.49,2.27-5.76,1.58-8.15-2.39-8.32-5.62-16.39-8.45-24.58-.94-2.75-1.58-5.6-2.45-8.37-.22-.7-.88-1.86-1.17-1.81a3.17,3.17,0,0,0-2.21,1.28c-5.55,13-16.36,18.47-29.31,21.29-5.88,1.28-8,5.52-5.39,10.73,5.18,10.16,4.72,20.47.48,30.45-2.83,6.67-7,12.85-11,18.93-2.79,4.19-2.73,6.05,1.33,8.63,14.47,9.2,24.68,22.7,18.21,42.13a11.77,11.77,0,0,0-.85,3.32,37.56,37.56,0,0,0,.47,4.8c1.7-.94,3.72-1.56,5-2.88,3.35-3.41,6.27-7.24,9.61-10.66.91-.93,2.69-1.17,4.12-1.42,8.7-1.5,11.79-6.86,10.1-15.71-.73-3.85.35-8.07.82-12.09.08-.71,1.12-1.62,1.91-1.89,10.43-3.54,18.05-11.15,25.95-18.21s16.51-14,21.4-24c.75-1.53,2.83-2.42,4.3-3.6Z"/><path class="cls-4" d="M478.17,477.63c.07,7.38-4,11.19-9.33,13.68-2.79,1.3-6,2.6-8.93,2.51-12.28-.35-24.55-1.14-36.81-2-1.36-.1-3-1.42-3.85-2.62-4.58-6.36-7.54-13.12-3.95-21.08a8.59,8.59,0,0,0,.22-2.58l-4.85-1.35c-.71-4.46,2.36-6.2,5.61-7.42,2.09-.78,4.59-.46,6.72-1.18a29,29,0,0,0,6.73-3.48,3,3,0,0,0,.54-2.93,3.64,3.64,0,0,0-2.8-1.36c-1.42,0-2.82.8-4.26.94-3,.29-5-1.74-3.63-4.13,4.08-7.39,8.74-14.47,13.37-21.55.68-1,2.41-1.38,4-2.21l2.75,5.33,1.29,0c.25-2.41.9-4.86.67-7.22-.53-5.4.15-10.39,3-15.11a13.11,13.11,0,0,0,2.06-6c.78-21.55,16.39-31.91,33.49-34.46a114.56,114.56,0,0,1,21.1-1c4.06.15,8.11,1.88,12.07,3.2,4.81,1.6,9.3,2.92,13.68-1.29,3.2-3.07,5.7-2.53,6.94,1.71a162.68,162.68,0,0,1,3.56,17.19c.16.89-.68,2-2.37,3.24l-5.57-12.71c-5.12,0-10.86.46-16.5-.12-5.88-.61-11.61-2.46-17.48-3.33-13.54-2-25.69,1-35.92,10.58-4.12,3.87-6.63,8.1-7,14-.26,3.78-2.8,7.36-3.86,11.15-.45,1.6.28,3.54.5,5.32s.79,3.41.58,5c-.37,2.93-1.85,5.82-1.73,8.69.47,11.48-2.15,21.42-12.14,28.36a8.59,8.59,0,0,0-2.9,3.27c-1.18,2.62-1.07,5,2.74,4.95,4.09-.07,8.2-.7,12.25-.39a8.59,8.59,0,0,1,5.78,2.94c2.19,3.08.2,4.82-3.08,5.16-1.13.12-2.34-.34-3.42-.12a14.78,14.78,0,0,0-3.21,1.47c1,.87,1.8,2.3,2.88,2.53,7.54,1.57,7.93,2.22,6.55,9.82-.19,1,1.42,3.18,2.59,3.55,7,2.18,13.65-.35,18-6.14.95-1.24,2.6-1.94,3.93-2.89"/><path class="cls-4" d="M211.78,245.06c4.61,2.44,6.74,1.47,8.64-3.17,9.52-23.25,24.24-43,41.8-60.77a8.91,8.91,0,0,0,2.89-7.78c-.68-8.56.92-16.77,6.37-23.66,2.24-2.84,4.73-6.51,9.69-4-.33.67-.43,1.27-.77,1.48-10,6.22-12.07,11.43-9.32,23.08,1.34,5.66-1.95,14-6.67,17.39a15.09,15.09,0,0,0-3.91,3.68c-12.16,18.26-27.71,34.55-34.69,55.83-3,9-3.52,18.88-4.65,28.41-.21,1.79,1.72,4.25,3.28,5.76,6.11,5.93,12.41,11.67,18.78,17.31a5.8,5.8,0,0,0,4,1.08c10.75-1,20.8,1.58,30.4,6.1,1.51.71,2.35,2.85,3.7,4.58-8.7-1.89-16.27-3.5-23.81-5.18-4-.9-5.65.9-6.25,4.72-.46,3-2.1,5.8-2.26,8.74a52.51,52.51,0,0,0,1,11.4c.53,3.15,2.68,6.35,2.28,9.27-.62,4.49,1.06,7.66,3.49,10.78,3.22,4.13,6.65,8.1,10,12.16,1,1.2,1.89,2.48,2.51,3.29-9,2.79-17.85,4.94-26.24,8.33-8.06,3.26-9.43,6.66-7.3,15.14,1.16,4.62.63,8.74-.24,13.34-3.48,18.46-.24,30.13,15.92,40,1.1.67,2.13,1.44,3.83,2.61l-6.89,8.42c-2.28-7.85-7.67-11.85-12.79-16.46-3.36-3-5.5-8.69-5.94-13.39a58.59,58.59,0,0,1,1.63-19.88,61.91,61.91,0,0,0,1.4-24.82c-.75-5.13,1.31-8.06,5.45-9.62a177.24,177.24,0,0,1,17.35-5.27c4.87-1.28,5.79-2.62,2.52-6.48-4.25-5-8-10-9.61-16.58-.83-3.32-3.47-6.27-5.67-9.11-1.08-1.4-3.57-3.34-4.42-2.93-1.57.76-2.85,2.91-3.43,4.74-.84,2.61-1,5.46-1.37,8.2a9.78,9.78,0,0,1-.42,2.9c-1.28,2.49-2.77,4.88-4.18,7.31-2.13-1.54-4.24-3.12-6.41-4.62-2.53-1.75-5.12-3.43-7.68-5.14-.94,3-2.52,5.93-2.71,9-.54,8.41-4.2,13.32-12.94,14.63,1.72-4.95,3.49-9.27,4.72-13.74,1.55-5.65,2.56-11.44,4-17.12.48-1.89,1.36-5,2.42-5.12a8,8,0,0,1,6,2.08c2.75,2.75,4.74,6.23,7.23,9.26a20.18,20.18,0,0,0,3.64,2.81c.8-1.48,2.16-2.92,2.28-4.46.29-3.74-.09-7.52,0-11.28a29.45,29.45,0,0,1,.76-6.77c1.17-4.46,2.78-4.72,6.42-1.82a74.21,74.21,0,0,0,7.39,4.63c3.25-9.76,1.47-14.68-5-21-7.25-7.07-13.81-14.85-20.47-22.5-1-1.13-1.08-3.24-1.16-4.92-.36-7.34-.23-14.71-1-22-.3-3-2.32-5.87-3.56-8.8"/><path class="cls-4" d="M531.86,411.84c6,2.94,10.37,8,13.35,13.58a270.24,270.24,0,0,1,14.11,31.23c1.51,3.91.92,8.73.85,13.13q-.19,12.28-1,24.54a6.35,6.35,0,0,1-2.38,4.38c-.72.48-2.92-.7-4.12-1.6-9.46-7.06-18.92-14-30.23-18a52.46,52.46,0,0,1-9.57-5c-4.54-2.77-5.58-6.68-4.65-11.84,1.49-8.29,2.32-16.71,3.7-25,.37-2.26,2-6.29,2.6-6.21,3.84.55,3.73,3.66,3.3,6.81-1,7.45-1.82,14.92-2.84,22.37-.54,4,.28,6.38,4.44,8.47,8.68,4.35,16.81,9.8,25.25,14.64,1.56.9,4.29,2,5.15,1.35a6.7,6.7,0,0,0,2.2-5.44c-3.28-17.28-3.64-35.27-11.66-51.41-1.85-3.72-5.13-6.7-7.58-10.15a33.49,33.49,0,0,1-2.41-4.8l1.49-1"/><path class="cls-4" d="M158.73,257.58c-3.14,0-4.94.11-6.73,0-7.08-.5-9.5-4.93-5.21-10.64,2.5-3.33,1.73-5.24-.87-7.31-5.06-4-7.38-9.18-6.21-15.54.43-2.35,1.81-4.55,2.87-6.77s2.27-4.44,3.82-7.45l5.88-6.83,5,1.59c.95-2.81,2.6-4.71,5.46-3.81,2.13-1,4.34-1.83,6.36-3,3.92-2.24,8.89-3.38,9.61-9.19,2.78,2.82,5.53,5.13,7.57,8,.68.94,0,3.58-1,4.78-1.19,1.54-4.09,3.78-4.79,3.35-7.33-4.52-9.07,2.28-12.08,5.86-1.45,1.72-2.17,3.56-4.91,2.71a2.72,2.72,0,0,0-2.31.69c-2.85,3.19-5.65,3.57-9-.69l-2.92,6.55c-7,.7-8.87,3.45-6.7,10.1,1.59,4.86,4.41,8.59,9.77,10,1.59.41,2.92,1.78,4.52,2.81l-5.69,8.63c2.81.52,5.14.88,7.44,1.39,6.12,1.37,7.35,5.1,3.51,10.47-5.4,7.54-5.72,14.86-.71,21.81a5.55,5.55,0,0,0,3.76,2.2c5.92.07,10.18,2.79,10.61,9,1.37,20.06-3.87,38.3-16.66,54.09-.34.42-1,.57-2.5.24a22.08,22.08,0,0,1,1.89-4.3c10.12-14.07,13.12-29.74,10.64-46.66a11.56,11.56,0,0,0-6.94-9.45c-5.93-2.66-8.41-7-7.32-13.29.45-2.56,1.48-5,2-7.57.71-3.61,1.18-7.26,1.87-11.67"/><path class="cls-4" d="M297.75,286.37c1.32,9.33,9.88,15.87,8.53,25.8-.29,2.17,3.91,4.64,5.07,7.38,1.76,4.16,5,2.73,7.87,3,6.37.49,12.79.67,19.07,1.69,4.28.69,6.93-.39,9.62-3.75,7.6-9.47,16.53-17.26,28.9-19.93a22.94,22.94,0,0,1,2.41-.44c8.16-.87,9.82.25,9.71,8.26-.13,9.65-.85,19.3-1.49,28.95-.1,1.48-1.17,2.9-2.48,4.21-5.71-11.5-1.42-23.45-2.14-35.18-5.17-1.46-9.5.11-13.05,3.07a172.44,172.44,0,0,0-14.22,13.48c-2.72,2.86-4.41,6.67-9.37,6.47-1.62-.07-3.31,1.28-4.77,1-3.86-.87-7.69-2.15-11.6-2.52a49.88,49.88,0,0,0-13.71.17,30.82,30.82,0,0,0-11.34,4.87c-2.94,2-4.15,3.32-6.66-.71-2.61-4.19-6.7-7.45-10.05-11.19-2.09-2.34-4-4.82-6-7.24l1.06-2c2.41.57,5.39.45,7.12,1.86,3,2.42,5,5.93,7.72,8.71,1.42,1.45,3.43,2.31,5.18,3.44.16-2.15.9-4.45.37-6.41-2-7.25-4.47-14.35-6.52-21.58a24.44,24.44,0,0,1-.71-7.27c0-1.37,1-2.71,1.48-4.06"/><path class="cls-4" d="M586,189.72c1.33-7.85,2.61-15,3.76-22.27.51-3.22,1.33-6.7-2.19-8.87-2.44-1.5-4.28-2-6.1,1.65-3,6-6.86,11.51-10.6,17.08a5.39,5.39,0,0,1-3.83,2c-.63,0-1.72-2.07-1.93-3.31-.9-5.26-3.92-2.83-6.08-1.56-3.94,2.32-7.48,5.33-11.45,7.59-5.08,2.9-6.13,2.11-6.08-3.81,0-7.08,4-11.46,11.44-12.13a41,41,0,0,1,11.75.37c3.58.74,5-.38,6.23-3.46a68.8,68.8,0,0,1,4.74-9.16c3.75-6.35,11.68-7.16,15.85-1.13,4.47,6.47,8.42,13.41,4.83,21.91-.51,1.22,0,2.88.07,4.33.28,6.16-2.66,9.61-10.4,10.75"/><path class="cls-4" d="M359.83,416.84c-.93-3.09-1.9-5.55-2.4-8.11-2.38-12.1,2.1-21.31,13.17-27.4,6.71-3.69,7.19-5.24,4.55-12.59-.47-1.3,0-2.93,0-4.41a19.2,19.2,0,0,1,2.9,3.45c2,4,3.75,7.92,8.63,9.39,1.29.39,2.08,2.42,3.1,3.7-1.55,1.12-3.12,3.22-4.63,3.18-7.59-.21-14.16,1.35-19.33,7.47s-5.76,12.21-1.41,18.89c.61.94,1.84,2.12,1.63,2.86-1.05,3.6,1.19,3.19,3.54,4.38,5.22,2.63,9.37,2.08,13.91-1,.79-.54,2.74.62,4.16,1-.65,1.26-1,2.89-2,3.72-4.57,3.71-9.25,7.29-14.05,10.68-1.24.87-3.55,1.66-4.54,1.08a6.23,6.23,0,0,1-2.58-4.49c-.16-4.15-1.49-5.45-5.48-4.22-1.08.34-2.08,1.34-3.12,1.35a29.13,29.13,0,0,1-5.21-.85c.77-1.6,1.17-3.68,2.42-4.69,1.84-1.48,4.29-2.18,6.74-3.34"/><path class="cls-4" d="M285.31,164.43l8,6.62c2.56-5.26,4.66-9.58,6.77-13.89a25.27,25.27,0,0,1,2.27-4.33c2.59-3.37,5.72-3.14,6.87.84a92.55,92.55,0,0,1,2.72,14.87c.15,1.32-1.07,3-2.05,4.2-2.95,3.61-2.63,5.54,1.85,7.16a97.63,97.63,0,0,0,12.23,3.55c6.28,1.37,11,4,11.89,11.15.23,1.87,1.66,3.57,2,5.45.24,1.26-.46,2.7-.74,4.06-1.33-.35-3.25-.28-3.88-1.14a22.34,22.34,0,0,1-4-7.59c-1.15-4.87-3.22-6.87-8.07-7.5-3.27-.43-6.43-1.73-9.61-2.75-1.71-.55-3.31-1.85-5-1.95-8.71-.53-14.86-5.9-20.84-11.22-1.54-1.36-1.23-4.81-1.76-7.3l1.41-.24"/><path class="cls-4" d="M614.16,448.07c4.74,13.67,1.56,37.17-13.4,45.52-6.93,3.86-10.64,10-9.41,18.88.74,5.34-.64,11-1.06,16.34-7.06,1-8-.29-7.13-6.28a88.75,88.75,0,0,0,.73-16.45c-.15-4.17,4-13.13,7.95-14.32,11.61-3.47,15-12.86,16.58-23.15,1.1-7,.65-14.33,5.74-20.54"/><path class="cls-4" d="M526,428.94c1.58,1.14,3.7,2.08,5,3.69a61.69,61.69,0,0,1,11.93,28.19c.33,2-.21,5.2-1.55,6.14s-4.62.41-6.27-.67a175.11,175.11,0,0,1-14.45-10.92,4.11,4.11,0,0,1-.92-3.5c1.9-7.39,4-14.73,6.31-22.92"/><path class="cls-4" d="M281.08,285.21c-.45-2.79-1.1-5.56-1.3-8.36a81.2,81.2,0,0,1,8-41.93c1.91-4,4.39-4,7.4-1.84a41.94,41.94,0,0,1,7.42,6.32c.63.72-.13,4.07-1,4.45-6.44,2.8-9,8.48-10.95,14.39-2.41,7.44-4.08,15.12-6.1,22.69-.39,1.45-.89,2.88-1.34,4.31l-2.08,0"/><path class="cls-4" d="M372.77,237.25c-2.2,11.08-12.15,19.38-22.9,19.54-7.67.11-14.79-.8-21.48-5.3-6-4-16.8-1.46-22.11,4.15-.68.72-2,.83-3.61,1.43,3.26-10.06,10.77-14.68,19.78-12.93s18.29,3.57,27.45,5.3c6.65,1.26,11.83-1.54,15.29-8.63,1.69-3.46,3.7-5.2,7.58-3.57"/><path class="cls-4" d="M546.43,164.16,532,153.52c-.44,2.78-1.17,4.89-1,6.91a35.93,35.93,0,0,0,1.92,9.61c2,5.22,1.18,9.9-2.47,13.67-4.58,4.73-9.74,8.9-14.65,13.31l-1.6-1.1c.54-1.68,1-3.38,1.66-5a16.91,16.91,0,0,1,2-3.94c5.4-7.22,8.65-14.7,7.13-24.28-.74-4.7,1.41-9.94,2.68-14.82.28-1.08,2.94-2.7,3.56-2.36a39.48,39.48,0,0,1,16.66,16.91l-1.43,1.75"/><path class="cls-4" d="M426.53,414.82c-1.61,2.33-3.27,4.62-4.82,7-5.83,8.88-11.69,17.73-17.39,26.69a23.51,23.51,0,0,0-2.63,6.32c-1.64,5.94-1,7.29,4.64,10-.11.42-.08,1-.35,1.27-2.58,2.69-4.31,7.93-8.89,6.12-4.85-1.92-3.7-7.29-3-11.31,2-12.32,8.87-22.39,16-32.23a137.2,137.2,0,0,1,9.23-11.47c1.5-1.67,3.72-2.68,5.61-4Z"/><path class="cls-4" d="M265.74,317c2.92.88,6.66.95,8.7,2.84A135.79,135.79,0,0,1,288,335c.85,1.07.71,3.58.1,5-2.27,5.42-9.88,7.6-14.73,4.46-.62-.4-1.46-.91-1.6-1.51-2-8.35-3.87-16.72-6-26.06"/><path class="cls-4" d="M186.87,248c.27-1.48.52-3,.83-4.45,1.53-7.38-.85-10.34-8.37-10.66a28.45,28.45,0,0,1-8.2-1.17c-1.11-.4-2.5-3.6-2.1-4.06,2.13-2.42,4.66-5.93,7.3-6.17,6.39-.57,12.94.25,19.36,1.06,1.2.15,2.07,2.89,3.1,4.43-1.63.55-3.23,1.41-4.89,1.55s-3.55-.4-6.29-.16c6.43,7,9.6,13.58-.74,19.61"/><path class="cls-4" d="M597.09,189.18c3.71,2.6,6.84,4,8.86,6.36a178.18,178.18,0,0,1,14.95,19.33c2.13,3.31,2.68,7.85,3.09,11.92.15,1.51-2.15,3.27-3.34,4.91-1.27-1.24-3.16-2.27-3.67-3.77a30.27,30.27,0,0,1-1.61-9c-.09-4.55-1.75-8.11-5.57-11.66a55.81,55.81,0,0,1-1.39,6.44c-.32.93-1.31,2.15-2.12,2.25s-2.35-1.1-2.38-1.79c-.36-7-3-13.06-6.72-18.86-.64-1-.09-2.77-.09-6.08"/><path class="cls-4" d="M458.13,498.19c5.4,0,10.85-.41,16.19.16,3.17.34,4.42,3.09,3.12,6.33-1.15,2.87-2.69,5.62-3.54,8.57a12.34,12.34,0,0,0,0,6c1,4.19-1.2,6.91-4,9.22-.73.6-2.62.39-3.6-.14-.56-.31-.64-2.06-.44-3.06a11.8,11.8,0,0,1,1.51-3l-1.55-.07c-.05-2.9-.57-5.89,0-8.68.51-2.62.81-4.45-1.59-6.41s-4.34-4.68-6.47-7.07l.44-1.79"/><path class="cls-4" d="M624.28,232.37c9.28,1.46,14.26,6.85,15,15.34a14,14,0,0,0,1.26,4.14c3,7,.57,13.67-1.47,20.31-.19.61-1.14,1-1.93,1.63-2.94-3-4.89-5.84-3.11-10.07,1.39-3.31,0-6.34-.67-9.71-1.45-7.07-5.39-12.53-8.74-18.46-.41-.73-.2-1.8-.31-3.18"/><path class="cls-4" d="M485.55,259.13c.8-2.37,1.26-4.93,2.46-7.09,5.64-10.14,11.38-20.23,17.39-30.14.75-1.23,3.38-1.32,5.13-1.93.4,1.52,1.56,3.34,1.09,4.5-5.15,12.75-13.4,23.49-22.46,33.66a10.61,10.61,0,0,1-2.66,1.61l-1-.6"/><path class="cls-4" d="M646.62,261.36c4.82,5.23,10.63,9.7,10,18.36-.21,2.86,1.86,5.81,2.44,8.81a49.43,49.43,0,0,1,.84,9.25c0,1-1.22,1.91-1.88,2.86-.91-.79-2.2-1.42-2.66-2.42-1.88-4-3.65-8.14-5.17-12.32-.71-2-1.67-4.55-1-6.16,2.44-5.46-1.1-8.86-3.38-12.86a23.14,23.14,0,0,1-1.52-4.81l2.26-.71"/><path class="cls-4" d="M273.43,399.14c4.11,17.1,14.84,29.58,25.47,43.12-19.14-7.77-29.68-26.32-25.47-43.12"/><path class="cls-4" d="M323.2,490.09l27.44-32.63c2.47,9.47-16.79,32.91-27.44,32.63"/><path class="cls-4" d="M382.09,224.29c0,2.66-8.42,9.61-10.76,8.39-1.11-.58-1.95-4.23-1.2-5.37,2.5-3.82,1.59-5.78-2.23-7.58-.6-.28-.79-3.53-.24-3.86,4.51-2.72,14.48,3.23,14.42,8.42"/><path class="cls-4" d="M583.84,167.66c.69,4.89,1.19,8.64,1.75,12.38a5.86,5.86,0,0,1-5.14,6.53c-3.66.18-4.66-2.66-4.21-5.23a49.48,49.48,0,0,1,3.7-11.35c.52-1.17,2.66-1.63,3.9-2.33"/><path class="cls-4" d="M346,202.92a60.51,60.51,0,0,1,5.42,2.9c3.26,2.19,6.48,4.46,9.55,6.91.7.56,1.3,2.48,1,2.87-.75.83-2.51,1.78-3.24,1.42q-7.7-3.79-15.08-8.22c-.7-.42-1-2.51-.62-3.48s1.88-1.55,3-2.39"/><path class="cls-4" d="M193.72,190.76h-6.09c.82-1.86,1.24-4.13,2.59-5.47s3.8-2.05,5.76-3c.95,2.63,2.29,5.2,2.75,7.92a108.58,108.58,0,0,1,.81,11.22l-2,.57-3.79-11.22"/><path class="cls-4" d="M488.2,432c-2.28-3.09-4.32-4.68-4.64-6.56-.56-3.22,4.4-7.58,7.72-7.4s5.31,2.88,4.38,5.21c-1.16,2.91-4.19,5.08-7.46,8.75"/><path class="cls-4" d="M362.4,434l-17.79,11.4c.13-5.18,3.09-7.71,5.92-9.92,3.4-2.65,7.34-4.31,11.64-3.09l.24,1.61"/><path class="cls-4" d="M193.31,272.92c1.51,8.54-6.55,17.54-14.87,16.27l14.88-16.27"/><path class="cls-4" d="M323.77,370.37c-5.4,4.47-7.86,4.51-13.12.42,3.34-7,8.22-7.29,13.13-.42"/><path class="cls-4" d="M556.5,221.89l3.73,3.9c-1.31,1.11-2.58,2.28-4,3.3-.48.35-1.27.26-1.86.49-2.34.93-5,2.16-6-1.31s1.33-5.09,4.43-5.76c.79-.17,1.6-.28,3.68-.63"/><path class="cls-4" d="M369.65,345.93c3.6,1,5.77,1.23,7.5,2.22,1.26.72,2.95,2.74,2.68,3.68-.5,1.76-2.27,3.16-3.52,4.71-1.24-1.05-2.83-1.9-3.65-3.22-1.13-1.81-1.67-4-3-7.39"/><path class="cls-4" d="M313.23,206.09c-2-2.2-4-3.42-4-4.65,0-3.45,2.93-4.15,5.61-3.79,1.6.21,3,1.7,4.54,2.62l-6.17,5.83"/><path class="cls-4" d="M277.05,165.22a74.21,74.21,0,0,1,5.05,5.83,14.87,14.87,0,0,1,1.33,3.74c-1.65.4-3.35,1.23-4.93,1a3.87,3.87,0,0,1-2.6-2.71c-.11-2.17.58-4.38,1.16-7.9"/><path class="cls-4" d="M369.63,408.25c-.47-6.23.83-7.67,6.48-7.58,1.27,5.73-.3,7.66-6.48,7.58"/><path class="cls-4" d="M190.35,217.62l7.64-8.89c1,6-1.07,8.72-6.5,9.89l-1.13-1"/><path class="cls-4" d="M514.33,272c-1.83,1.21-3.14,2.65-4.6,2.81-.74.08-2.71-2.59-2.41-3.24.69-1.51,2.41-2.55,3.72-3.79l3.29,4.21"/><path class="cls-4" d="M490.62,270.33c-1.87,1.29-3.12,2.82-4.22,2.72s-2.86-2.09-2.69-2.91a4.75,4.75,0,0,1,3-3.15c.87-.17,2.13,1.75,3.88,3.33"/><path class="cls-4" d="M201.47,230.52c4.79-1.28,6.89,1,6.6,6.58l-6.6-6.58"/><path class="cls-5" d="M74.92,677.75l6-62h21l5.92,62H96.05l-.87-10h-7.5l-.72,10Zm13.7-19.91h5.63l-2.74-31.52h-.58Z"/><path class="cls-6" d="M74.92,677.75l6-62h21l5.92,62H96.05l-.87-10h-7.5l-.72,10Zm13.7-19.91h5.63l-2.74-31.52h-.58Z"/><rect class="cls-5" x="111.34" y="615.43" width="12.84" height="62.32"/><rect class="cls-6" x="111.34" y="615.43" width="12.84" height="62.32"/><path class="cls-5" d="M129.23,625h12.33v6.13a9,9,0,0,1,3-5,9.31,9.31,0,0,1,5.91-1.66,10,10,0,0,1,5.37,1.41,7.65,7.65,0,0,1,3.21,3.86,11.49,11.49,0,0,1,3.53-4,9.9,9.9,0,0,1,5.41-1.26q6.2,0,8.62,3.79t2.42,11l-.14,38.59h-12.7v-38.8q0-5.12-2.6-5.12a2.68,2.68,0,0,0-2.6,1.77,10.25,10.25,0,0,0-.79,4.22v37.94H147.55v-38.8a11.44,11.44,0,0,0-.47-3.61,1.9,1.9,0,0,0-2-1.37,2.78,2.78,0,0,0-2.74,1.91,11.92,11.92,0,0,0-.79,4.58v37.29H129.23Z"/><path class="cls-6" d="M129.23,625h12.33v6.13a9,9,0,0,1,3-5,9.31,9.31,0,0,1,5.91-1.66,10,10,0,0,1,5.37,1.41,7.65,7.65,0,0,1,3.21,3.86,11.49,11.49,0,0,1,3.53-4,9.9,9.9,0,0,1,5.41-1.26q6.2,0,8.62,3.79t2.42,11l-.14,38.59h-12.7v-38.8q0-5.12-2.6-5.12a2.68,2.68,0,0,0-2.6,1.77,10.25,10.25,0,0,0-.79,4.22v37.94H147.55v-38.8a11.44,11.44,0,0,0-.47-3.61,1.9,1.9,0,0,0-2-1.37,2.78,2.78,0,0,0-2.74,1.91,11.92,11.92,0,0,0-.79,4.58v37.29H129.23Z"/><path class="cls-5" d="M185.09,674.25q-2.27-4.07-2.27-11.65,0-6.2,1.62-9.52a10.62,10.62,0,0,1,4.51-4.87,54.86,54.86,0,0,1,8.8-3.43l3.46-1.15v-5.41a5.32,5.32,0,0,0-.83-3.21,2.42,2.42,0,0,0-2-1.12,2.23,2.23,0,0,0-1.77.94,3.9,3.9,0,0,0-.76,2.52v3.17H183.61V638.8q0-7.79,3.64-11.11t11.86-3.32q6.56,0,10.68,3.43t4.11,9.7v40.25H201.36v-6.28a10.33,10.33,0,0,1-3,5.05,7.14,7.14,0,0,1-4.87,1.8q-6.13,0-8.4-4.07m15.44-6.93a6.33,6.33,0,0,0,.61-2.92V649.69a9.62,9.62,0,0,0-4.15,2.74,7.18,7.18,0,0,0-1.33,4.62v6.78q0,4.69,2.81,4.69a2.13,2.13,0,0,0,2.06-1.19"/><path class="cls-6" d="M185.09,674.25q-2.27-4.07-2.27-11.65,0-6.2,1.62-9.52a10.62,10.62,0,0,1,4.51-4.87,54.86,54.86,0,0,1,8.8-3.43l3.46-1.15v-5.41a5.32,5.32,0,0,0-.83-3.21,2.42,2.42,0,0,0-2-1.12,2.23,2.23,0,0,0-1.77.94,3.9,3.9,0,0,0-.76,2.52v3.17H183.61V638.8q0-7.79,3.64-11.11t11.86-3.32q6.56,0,10.68,3.43t4.11,9.7v40.25H201.36v-6.28a10.33,10.33,0,0,1-3,5.05,7.14,7.14,0,0,1-4.87,1.8Q187.36,678.33,185.09,674.25Zm15.44-6.93a6.33,6.33,0,0,0,.61-2.92V649.69a9.62,9.62,0,0,0-4.15,2.74,7.18,7.18,0,0,0-1.33,4.62v6.78q0,4.69,2.81,4.69A2.13,2.13,0,0,0,200.53,667.33Z"/><path class="cls-5" d="M222.13,673.93q-3.82-4.4-3.82-13.49v-16.3A34.9,34.9,0,0,1,219.78,633a11.81,11.81,0,0,1,5-6.46q3.5-2.16,9.7-2.16,6.78,0,11,3.53t4.26,9.88v8.08H236.92v-7.43a7.15,7.15,0,0,0-.58-3.21,2.28,2.28,0,0,0-2.24-1.12q-3.1,0-3.1,4.4v25.61a5.86,5.86,0,0,0,.76,3.07,2.7,2.7,0,0,0,4.54,0A5.56,5.56,0,0,0,237,664l-.07-8.87h12.84v9.23q0,6.49-4.22,10.21a15.93,15.93,0,0,1-10.93,3.71q-8.66,0-12.48-4.4"/><path class="cls-6" d="M222.13,673.93q-3.82-4.4-3.82-13.49v-16.3A34.9,34.9,0,0,1,219.78,633a11.81,11.81,0,0,1,5-6.46q3.5-2.16,9.7-2.16,6.78,0,11,3.53t4.26,9.88v8.08H236.92v-7.43a7.15,7.15,0,0,0-.58-3.21,2.28,2.28,0,0,0-2.24-1.12q-3.1,0-3.1,4.4v25.61a5.86,5.86,0,0,0,.76,3.07,2.7,2.7,0,0,0,4.54,0A5.56,5.56,0,0,0,237,664l-.07-8.87h12.84v9.23q0,6.49-4.22,10.21a15.93,15.93,0,0,1-10.93,3.71Q226,678.33,222.13,673.93Z"/><path class="cls-5" d="M257.26,673.86q-3.53-4.47-3.53-13.34V639.31q0-7.28,4.18-11.11t11.68-3.82q15.22,0,15.22,14.93v3.82q0,5.77-.14,9.38H266.34v10.24a12.71,12.71,0,0,0,.58,4.29,2.78,2.78,0,0,0,4.51.68,4,4,0,0,0,.72-2q.11-1.12.11-3.28v-5.12h12.55v3q0,9.23-3.57,13.6t-12.3,4.37q-8.15,0-11.68-4.47m3.9-51.36v-7.86l16.73-7.72v12.26Zm11.11,23.73v-6.78q0-5.7-2.81-5.7-3.18,0-3.17,5.7v6.78Z"/><path class="cls-6" d="M257.26,673.86q-3.53-4.47-3.53-13.34V639.31q0-7.28,4.18-11.11t11.68-3.82q15.22,0,15.22,14.93v3.82q0,5.77-.14,9.38H266.34v10.24a12.71,12.71,0,0,0,.58,4.29,2.78,2.78,0,0,0,4.51.68,4,4,0,0,0,.72-2q.11-1.12.11-3.28v-5.12h12.55v3q0,9.23-3.57,13.6t-12.3,4.37Q260.79,678.33,257.26,673.86Zm3.9-51.36v-7.86l16.73-7.72v12.26Zm11.11,23.73v-6.78q0-5.7-2.81-5.7-3.18,0-3.17,5.7v6.78Z"/><path class="cls-5" d="M289.35,625H302v6.71a11.26,11.26,0,0,1,2.74-5.27,6.89,6.89,0,0,1,5.19-2q5.34,0,7.9,3.28t2.56,9.34v40.75H308V638.3a6,6,0,0,0-.68-3,2.28,2.28,0,0,0-2.13-1.23,2.46,2.46,0,0,0-2.56,1.77,14.8,14.8,0,0,0-.61,4.72v37.15H289.35Z"/><path class="cls-6" d="M289.35,625H302v6.71a11.26,11.26,0,0,1,2.74-5.27,6.89,6.89,0,0,1,5.19-2q5.34,0,7.9,3.28t2.56,9.34v40.75H308V638.3a6,6,0,0,0-.68-3,2.28,2.28,0,0,0-2.13-1.23,2.46,2.46,0,0,0-2.56,1.77,14.8,14.8,0,0,0-.61,4.72v37.15H289.35Z"/><path class="cls-5" d="M340.78,677.75l6-62h21l5.92,62H361.91l-.86-10h-7.5l-.72,10Zm13.71-19.91h5.63l-2.74-31.52h-.58Z"/><path class="cls-6" d="M340.78,677.75l6-62h21l5.92,62H361.91l-.86-10h-7.5l-.72,10Zm13.71-19.91h5.63l-2.74-31.52h-.58Z"/><path class="cls-5" d="M382.58,684.57a17.6,17.6,0,0,1-6.31-3.43l4.33-7.28a17.83,17.83,0,0,0,9.16,2.74,5.41,5.41,0,0,0,4.47-1.87,7.92,7.92,0,0,0,1.52-5.12v-2.88q-1.52,5.41-8,5.41-5.41,0-8-3.68t-2.56-9.81V638.8q0-7,2.34-10.71t8.19-3.71a8,8,0,0,1,5.37,1.7,8.32,8.32,0,0,1,2.63,4.8V625h12.91v43.85q0,8.87-4.11,12.77t-13.13,3.89a34.15,34.15,0,0,1-8.84-.9m13.16-27.3V638.44a5.8,5.8,0,0,0-.87-3,2.51,2.51,0,0,0-2.16-1.44,2.24,2.24,0,0,0-2.24,1.19,7.63,7.63,0,0,0-.58,3.28v18.82a10.75,10.75,0,0,0,.58,3.86,2.24,2.24,0,0,0,2.31,1.48q3,0,3-5.34"/><path class="cls-6" d="M382.58,684.57a17.6,17.6,0,0,1-6.31-3.43l4.33-7.28a17.83,17.83,0,0,0,9.16,2.74,5.41,5.41,0,0,0,4.47-1.87,7.92,7.92,0,0,0,1.52-5.12v-2.88q-1.52,5.41-8,5.41-5.41,0-8-3.68t-2.56-9.81V638.8q0-7,2.34-10.71t8.19-3.71a8,8,0,0,1,5.37,1.7,8.32,8.32,0,0,1,2.63,4.8V625h12.91v43.85q0,8.87-4.11,12.77t-13.13,3.89A34.15,34.15,0,0,1,382.58,684.57Zm13.16-27.3V638.44a5.8,5.8,0,0,0-.87-3,2.51,2.51,0,0,0-2.16-1.44,2.24,2.24,0,0,0-2.24,1.19,7.63,7.63,0,0,0-.58,3.28v18.82a10.75,10.75,0,0,0,.58,3.86,2.24,2.24,0,0,0,2.31,1.48Q395.74,662.6,395.74,657.27Z"/><path class="cls-5" d="M413.56,625h12.62v5.84a8.87,8.87,0,0,1,3.28-4.8,9.65,9.65,0,0,1,5.81-1.69v10.53a25.75,25.75,0,0,0-5.88.76q-3.21.76-3.21,1.77v40.39H413.56Z"/><path class="cls-6" d="M413.56,625h12.62v5.84a8.87,8.87,0,0,1,3.28-4.8,9.65,9.65,0,0,1,5.81-1.69v10.53a25.75,25.75,0,0,0-5.88.76q-3.21.76-3.21,1.77v40.39H413.56Z"/><path class="cls-5" d="M437.93,662V640.75q0-7.5,4.22-11.94t11.58-4.44q7.36,0,11.58,4.44t4.22,11.94V662q0,16.37-15.8,16.37T437.93,662m18,5.55a5.28,5.28,0,0,0,.72-3V638.73q0-4.62-3-4.62t-3,4.62v25.82a5.27,5.27,0,0,0,.72,3,2.85,2.85,0,0,0,4.47,0"/><path class="cls-6" d="M437.93,662V640.75q0-7.5,4.22-11.94t11.58-4.44q7.36,0,11.58,4.44t4.22,11.94V662q0,16.37-15.8,16.37T437.93,662Zm18,5.55a5.28,5.28,0,0,0,.72-3V638.73q0-4.62-3-4.62t-3,4.62v25.82a5.27,5.27,0,0,0,.72,3,2.85,2.85,0,0,0,4.47,0Z"/><polygon class="cls-5" points="480.92 677.75 472.49 624.95 485.11 624.95 487.7 651.64 488.14 660.22 488.64 651.57 491.53 624.95 504.15 624.95 495.57 677.75 480.92 677.75"/><polygon class="cls-6" points="480.92 677.75 472.49 624.95 485.11 624.95 487.7 651.64 488.14 660.22 488.64 651.57 491.53 624.95 504.15 624.95 495.57 677.75 480.92 677.75"/><path class="cls-5" d="M510.57,673.86Q507,669.39,507,660.51V639.31q0-7.28,4.18-11.11t11.68-3.82q15.22,0,15.22,14.93v3.82q0,5.77-.15,9.38H519.66v10.24a12.69,12.69,0,0,0,.58,4.29,2.78,2.78,0,0,0,4.51.68,4,4,0,0,0,.72-2q.11-1.12.11-3.28v-5.12h12.55v3q0,9.23-3.57,13.6t-12.3,4.37q-8.15,0-11.68-4.47m15-27.63v-6.78q0-5.7-2.81-5.7-3.17,0-3.17,5.7v6.78Z"/><path class="cls-6" d="M510.57,673.86Q507,669.39,507,660.51V639.31q0-7.28,4.18-11.11t11.68-3.82q15.22,0,15.22,14.93v3.82q0,5.77-.15,9.38H519.66v10.24a12.69,12.69,0,0,0,.58,4.29,2.78,2.78,0,0,0,4.51.68,4,4,0,0,0,.72-2q.11-1.12.11-3.28v-5.12h12.55v3q0,9.23-3.57,13.6t-12.3,4.37Q514.1,678.33,510.57,673.86Zm15-27.63v-6.78q0-5.7-2.81-5.7-3.17,0-3.17,5.7v6.78Z"/><path class="cls-5" d="M546.7,676.24q-1.88-2.09-1.87-6.71v-33H541.3V627h3.53V615.79h12.26V627h3.61v9.59h-3.61v29.65a6.86,6.86,0,0,0,.22,2q.21.65,1.15.65a12.47,12.47,0,0,0,1.37-.07q.65-.07.86-.07v8.65q-1.08.29-3.14.61a25.81,25.81,0,0,1-4,.32q-5,0-6.85-2.09"/><path class="cls-6" d="M546.7,676.24q-1.88-2.09-1.87-6.71v-33H541.3V627h3.53V615.79h12.26V627h3.61v9.59h-3.61v29.65a6.86,6.86,0,0,0,.22,2q.21.65,1.15.65a12.47,12.47,0,0,0,1.37-.07q.65-.07.86-.07v8.65q-1.08.29-3.14.61a25.81,25.81,0,0,1-4,.32Q548.58,678.33,546.7,676.24Z"/><path class="cls-5" d="M567.76,673.86q-3.53-4.47-3.53-13.34V639.31q0-7.28,4.18-11.11t11.69-3.82q15.22,0,15.22,14.93v3.82q0,5.77-.15,9.38H576.85v10.24a12.69,12.69,0,0,0,.58,4.29,2.78,2.78,0,0,0,4.51.68,4.06,4.06,0,0,0,.72-2q.11-1.12.11-3.28v-5.12h12.55v3q0,9.23-3.57,13.6t-12.3,4.37q-8.15,0-11.69-4.47m15-27.63v-6.78q0-5.7-2.81-5.7-3.18,0-3.17,5.7v6.78Z"/><path class="cls-6" d="M567.76,673.86q-3.53-4.47-3.53-13.34V639.31q0-7.28,4.18-11.11t11.69-3.82q15.22,0,15.22,14.93v3.82q0,5.77-.15,9.38H576.85v10.24a12.69,12.69,0,0,0,.58,4.29,2.78,2.78,0,0,0,4.51.68,4.06,4.06,0,0,0,.72-2q.11-1.12.11-3.28v-5.12h12.55v3q0,9.23-3.57,13.6t-12.3,4.37Q571.3,678.33,567.76,673.86Zm15-27.63v-6.78q0-5.7-2.81-5.7-3.18,0-3.17,5.7v6.78Z"/><path class="cls-5" d="M599.86,625h12.62v5.84a8.87,8.87,0,0,1,3.28-4.8,9.65,9.65,0,0,1,5.81-1.69v10.53a25.77,25.77,0,0,0-5.88.76q-3.21.76-3.21,1.77v40.39H599.86Z"/><path class="cls-6" d="M599.86,625h12.62v5.84a8.87,8.87,0,0,1,3.28-4.8,9.65,9.65,0,0,1,5.81-1.69v10.53a25.77,25.77,0,0,0-5.88.76q-3.21.76-3.21,1.77v40.39H599.86Z"/><path class="cls-5" d="M624.6,612.62h12.62v8.8H624.6Zm0,12.33h12.62v52.8H624.6Z"/><path class="cls-6" d="M624.6,612.62h12.62v8.8H624.6Zm0,12.33h12.62v52.8H624.6Z"/><path class="cls-5" d="M642.2,625h12.62v6.71a11.25,11.25,0,0,1,2.74-5.27,6.89,6.89,0,0,1,5.19-2q5.34,0,7.9,3.28t2.56,9.34v40.75H660.81V638.3a6,6,0,0,0-.69-3,2.27,2.27,0,0,0-2.13-1.23,2.46,2.46,0,0,0-2.56,1.77,14.8,14.8,0,0,0-.61,4.72v37.15H642.2Z"/><path class="cls-6" d="M642.2,625h12.62v6.71a11.25,11.25,0,0,1,2.74-5.27,6.89,6.89,0,0,1,5.19-2q5.34,0,7.9,3.28t2.56,9.34v40.75H660.81V638.3a6,6,0,0,0-.69-3,2.27,2.27,0,0,0-2.13-1.23,2.46,2.46,0,0,0-2.56,1.77,14.8,14.8,0,0,0-.61,4.72v37.15H642.2Z"/><path class="cls-5" d="M679.38,674.25q-2.27-4.07-2.27-11.65,0-6.2,1.62-9.52a10.62,10.62,0,0,1,4.51-4.87,54.75,54.75,0,0,1,8.8-3.43l3.46-1.15v-5.41a5.32,5.32,0,0,0-.83-3.21,2.42,2.42,0,0,0-2-1.12,2.23,2.23,0,0,0-1.77.94,3.91,3.91,0,0,0-.76,2.52v3.17H677.9V638.8q0-7.79,3.64-11.11t11.87-3.32q6.56,0,10.67,3.43t4.11,9.7v40.25H695.65v-6.28a10.34,10.34,0,0,1-3,5.05,7.14,7.14,0,0,1-4.87,1.8q-6.13,0-8.4-4.07m15.44-6.93a6.33,6.33,0,0,0,.61-2.92V649.69a9.6,9.6,0,0,0-4.15,2.74,7.18,7.18,0,0,0-1.33,4.62v6.78q0,4.69,2.81,4.69a2.13,2.13,0,0,0,2.06-1.19"/><path class="cls-6" d="M679.38,674.25q-2.27-4.07-2.27-11.65,0-6.2,1.62-9.52a10.62,10.62,0,0,1,4.51-4.87,54.75,54.75,0,0,1,8.8-3.43l3.46-1.15v-5.41a5.32,5.32,0,0,0-.83-3.21,2.42,2.42,0,0,0-2-1.12,2.23,2.23,0,0,0-1.77.94,3.91,3.91,0,0,0-.76,2.52v3.17H677.9V638.8q0-7.79,3.64-11.11t11.87-3.32q6.56,0,10.67,3.43t4.11,9.7v40.25H695.65v-6.28a10.34,10.34,0,0,1-3,5.05,7.14,7.14,0,0,1-4.87,1.8Q681.65,678.33,679.38,674.25Zm15.44-6.93a6.33,6.33,0,0,0,.61-2.92V649.69a9.6,9.6,0,0,0-4.15,2.74,7.18,7.18,0,0,0-1.33,4.62v6.78q0,4.69,2.81,4.69A2.13,2.13,0,0,0,694.82,667.33Z"/><path class="cls-5" d="M713,625h12.62v5.84a8.87,8.87,0,0,1,3.28-4.8,9.65,9.65,0,0,1,5.81-1.69v10.53a25.77,25.77,0,0,0-5.88.76q-3.21.76-3.21,1.77v40.39H713Z"/><path class="cls-6" d="M713,625h12.62v5.84a8.87,8.87,0,0,1,3.28-4.8,9.65,9.65,0,0,1,5.81-1.69v10.53a25.77,25.77,0,0,0-5.88.76q-3.21.76-3.21,1.77v40.39H713Z"/><path class="cls-5" d="M737.77,612.62h12.62v8.8H737.77Zm0,12.33h12.62v52.8H737.77Z"/><path class="cls-6" d="M737.77,612.62h12.62v8.8H737.77Zm0,12.33h12.62v52.8H737.77Z"/><path class="cls-5" d="M754.94,662V640.75q0-7.5,4.22-11.94t11.58-4.44q7.36,0,11.58,4.44t4.22,11.94V662q0,16.37-15.8,16.37T754.94,662m18,5.55a5.28,5.28,0,0,0,.72-3V638.73q0-4.62-3-4.62t-3,4.62v25.82a5.27,5.27,0,0,0,.72,3,2.85,2.85,0,0,0,4.47,0"/><path class="cls-6" d="M754.94,662V640.75q0-7.5,4.22-11.94t11.58-4.44q7.36,0,11.58,4.44t4.22,11.94V662q0,16.37-15.8,16.37T754.94,662Zm18,5.55a5.28,5.28,0,0,0,.72-3V638.73q0-4.62-3-4.62t-3,4.62v25.82a5.27,5.27,0,0,0,.72,3,2.85,2.85,0,0,0,4.47,0Z"/><polygon class="cls-5" points="280.63 764.31 280.63 702.35 293.39 702.35 299.09 731.99 299.09 702.35 311.06 702.35 311.06 764.31 298.95 764.31 292.74 733.29 292.74 764.31 280.63 764.31"/><polygon class="cls-6" points="280.63 764.31 280.63 702.35 293.39 702.35 299.09 731.99 299.09 702.35 311.06 702.35 311.06 764.31 298.95 764.31 292.74 733.29 292.74 764.31 280.63 764.31"/><path class="cls-5" d="M317.52,760.81q-2.27-4.08-2.27-11.65,0-6.2,1.62-9.52a10.62,10.62,0,0,1,4.51-4.87,54.86,54.86,0,0,1,8.8-3.43l3.46-1.15v-5.41a5.32,5.32,0,0,0-.83-3.21,2.42,2.42,0,0,0-2-1.12,2.23,2.23,0,0,0-1.77.94,3.9,3.9,0,0,0-.76,2.52v3.17H316v-1.73q0-7.79,3.64-11.11t11.86-3.32q6.56,0,10.68,3.43t4.11,9.7v40.25H333.78V758a10.32,10.32,0,0,1-3,5,7.14,7.14,0,0,1-4.87,1.8q-6.13,0-8.4-4.07M333,753.88a6.33,6.33,0,0,0,.61-2.92V736.25a9.62,9.62,0,0,0-4.15,2.74,7.18,7.18,0,0,0-1.33,4.62v6.78q0,4.69,2.81,4.69a2.13,2.13,0,0,0,2.06-1.19"/><path class="cls-6" d="M317.52,760.81q-2.27-4.08-2.27-11.65,0-6.2,1.62-9.52a10.62,10.62,0,0,1,4.51-4.87,54.86,54.86,0,0,1,8.8-3.43l3.46-1.15v-5.41a5.32,5.32,0,0,0-.83-3.21,2.42,2.42,0,0,0-2-1.12,2.23,2.23,0,0,0-1.77.94,3.9,3.9,0,0,0-.76,2.52v3.17H316v-1.73q0-7.79,3.64-11.11t11.86-3.32q6.56,0,10.68,3.43t4.11,9.7v40.25H333.78V758a10.32,10.32,0,0,1-3,5,7.14,7.14,0,0,1-4.87,1.8Q319.79,764.88,317.52,760.81ZM333,753.88a6.33,6.33,0,0,0,.61-2.92V736.25a9.62,9.62,0,0,0-4.15,2.74,7.18,7.18,0,0,0-1.33,4.62v6.78q0,4.69,2.81,4.69A2.13,2.13,0,0,0,333,753.88Z"/><path class="cls-5" d="M351.17,711.51h12.62v6.71a11.27,11.27,0,0,1,2.74-5.27,6.89,6.89,0,0,1,5.19-2q5.34,0,7.9,3.28t2.56,9.34v40.75H369.77V724.85a6,6,0,0,0-.68-3,2.28,2.28,0,0,0-2.13-1.23,2.46,2.46,0,0,0-2.56,1.77,14.8,14.8,0,0,0-.61,4.72v37.15H351.17Z"/><path class="cls-6" d="M351.17,711.51h12.62v6.71a11.27,11.27,0,0,1,2.74-5.27,6.89,6.89,0,0,1,5.19-2q5.34,0,7.9,3.28t2.56,9.34v40.75H369.77V724.85a6,6,0,0,0-.68-3,2.28,2.28,0,0,0-2.13-1.23,2.46,2.46,0,0,0-2.56,1.77,14.8,14.8,0,0,0-.61,4.72v37.15H351.17Z"/><path class="cls-5" d="M390.58,762.68a10.77,10.77,0,0,1-3.1-5.84,47.25,47.25,0,0,1-.76-9.34l.14-23.8a14.28,14.28,0,0,1,2.85-9.2,9.7,9.7,0,0,1,8-3.57q5.12,0,7.65,3.39V702H418v62.32H405.41v-5.63a10.4,10.4,0,0,1-2.92,4.65,7.42,7.42,0,0,1-4.94,1.55q-4.62,0-7-2.2m14.25-9.52a17.07,17.07,0,0,0,.58-4.94V726.15a10.3,10.3,0,0,0-.65-3.89,2.32,2.32,0,0,0-2.31-1.59,2.42,2.42,0,0,0-2.49,1.48,10.68,10.68,0,0,0-.61,4v22.22q0,6.64,3,6.64a2.37,2.37,0,0,0,2.45-1.84"/><path class="cls-6" d="M390.58,762.68a10.77,10.77,0,0,1-3.1-5.84,47.25,47.25,0,0,1-.76-9.34l.14-23.8a14.28,14.28,0,0,1,2.85-9.2,9.7,9.7,0,0,1,8-3.57q5.12,0,7.65,3.39V702H418v62.32H405.41v-5.63a10.4,10.4,0,0,1-2.92,4.65,7.42,7.42,0,0,1-4.94,1.55Q392.93,764.88,390.58,762.68Zm14.25-9.52a17.07,17.07,0,0,0,.58-4.94V726.15a10.3,10.3,0,0,0-.65-3.89,2.32,2.32,0,0,0-2.31-1.59,2.42,2.42,0,0,0-2.49,1.48,10.68,10.68,0,0,0-.61,4v22.22q0,6.64,3,6.64A2.37,2.37,0,0,0,404.83,753.16Z"/><path class="cls-5" d="M424.27,760.81Q422,756.73,422,749.16q0-6.2,1.62-9.52a10.61,10.61,0,0,1,4.51-4.87,54.8,54.8,0,0,1,8.8-3.43l3.46-1.15v-5.41a5.32,5.32,0,0,0-.83-3.21,2.42,2.42,0,0,0-2-1.12,2.23,2.23,0,0,0-1.77.94,3.91,3.91,0,0,0-.76,2.52v3.17H422.79v-1.73q0-7.79,3.64-11.11t11.87-3.32q6.56,0,10.67,3.43t4.11,9.7v40.25H440.53V758a10.31,10.31,0,0,1-3,5,7.14,7.14,0,0,1-4.87,1.8q-6.13,0-8.4-4.07m15.44-6.93a6.33,6.33,0,0,0,.61-2.92V736.25a9.62,9.62,0,0,0-4.15,2.74,7.18,7.18,0,0,0-1.33,4.62v6.78q0,4.69,2.81,4.69a2.13,2.13,0,0,0,2.06-1.19"/><path class="cls-6" d="M424.27,760.81Q422,756.73,422,749.16q0-6.2,1.62-9.52a10.61,10.61,0,0,1,4.51-4.87,54.8,54.8,0,0,1,8.8-3.43l3.46-1.15v-5.41a5.32,5.32,0,0,0-.83-3.21,2.42,2.42,0,0,0-2-1.12,2.23,2.23,0,0,0-1.77.94,3.91,3.91,0,0,0-.76,2.52v3.17H422.79v-1.73q0-7.79,3.64-11.11t11.87-3.32q6.56,0,10.67,3.43t4.11,9.7v40.25H440.53V758a10.31,10.31,0,0,1-3,5,7.14,7.14,0,0,1-4.87,1.8Q426.54,764.88,424.27,760.81Zm15.44-6.93a6.33,6.33,0,0,0,.61-2.92V736.25a9.62,9.62,0,0,0-4.15,2.74,7.18,7.18,0,0,0-1.33,4.62v6.78q0,4.69,2.81,4.69A2.13,2.13,0,0,0,439.7,753.88Z"/><path class="cls-5" d="M456.9,765.1H463q1.3,0,1.3-1.08a3.44,3.44,0,0,0-.07-.79L456,711.51h12l2.38,25.75,1.15,13.13,1.37-13.13,2.81-25.75h12.12L478,767a7.91,7.91,0,0,1-2.06,4.58q-1.55,1.48-4.87,1.48H456.9Z"/><path class="cls-6" d="M456.9,765.1H463q1.3,0,1.3-1.08a3.44,3.44,0,0,0-.07-.79L456,711.51h12l2.38,25.75,1.15,13.13,1.37-13.13,2.81-25.75h12.12L478,767a7.91,7.91,0,0,1-2.06,4.58q-1.55,1.48-4.87,1.48H456.9Z"/><path class="cls-5" d="M493.22,761.35q-2.2-3.53-2.2-10.53V711.51h12.69V751a5.27,5.27,0,0,0,.69,3.1,2.5,2.5,0,0,0,2.13.9,2.28,2.28,0,0,0,2.45-1.62,16.55,16.55,0,0,0,.51-4.65v-.43l.07-36.78h12.55v52.8H509.49v-5.63a11.62,11.62,0,0,1-3,4.76,7.84,7.84,0,0,1-5.12,1.44q-5.92,0-8.11-3.53"/><path class="cls-6" d="M493.22,761.35q-2.2-3.53-2.2-10.53V711.51h12.69V751a5.27,5.27,0,0,0,.69,3.1,2.5,2.5,0,0,0,2.13.9,2.28,2.28,0,0,0,2.45-1.62,16.55,16.55,0,0,0,.51-4.65v-.43l.07-36.78h12.55v52.8H509.49v-5.63a11.62,11.62,0,0,1-3,4.76,7.84,7.84,0,0,1-5.12,1.44Q495.42,764.88,493.22,761.35Z"/><path class="cls-5" d="M527.16,711.51h12.62v5.84a8.87,8.87,0,0,1,3.28-4.8,9.65,9.65,0,0,1,5.81-1.69v10.53a25.76,25.76,0,0,0-5.88.76q-3.21.76-3.21,1.77v40.39H527.16Z"/><path class="cls-6" d="M527.16,711.51h12.62v5.84a8.87,8.87,0,0,1,3.28-4.8,9.65,9.65,0,0,1,5.81-1.69v10.53a25.76,25.76,0,0,0-5.88.76q-3.21.76-3.21,1.77v40.39H527.16Z"/><path class="cls-5" d="M555.07,760.41q-3.53-4.47-3.53-13.34V725.86q0-7.28,4.18-11.11t11.68-3.82q15.22,0,15.22,14.93v3.82q0,5.77-.14,9.38H564.16V749.3a12.69,12.69,0,0,0,.58,4.29,2.78,2.78,0,0,0,4.51.68,4,4,0,0,0,.72-2q.11-1.12.11-3.28v-5.12h12.55v3q0,9.23-3.57,13.6t-12.3,4.36q-8.15,0-11.68-4.47m15-27.63V726q0-5.7-2.81-5.7-3.18,0-3.17,5.7v6.78Z"/><path class="cls-6" d="M555.07,760.41q-3.53-4.47-3.53-13.34V725.86q0-7.28,4.18-11.11t11.68-3.82q15.22,0,15.22,14.93v3.82q0,5.77-.14,9.38H564.16V749.3a12.69,12.69,0,0,0,.58,4.29,2.78,2.78,0,0,0,4.51.68,4,4,0,0,0,.72-2q.11-1.12.11-3.28v-5.12h12.55v3q0,9.23-3.57,13.6t-12.3,4.36Q558.6,764.88,555.07,760.41Zm15-27.63V726q0-5.7-2.81-5.7-3.18,0-3.17,5.7v6.78Z"/></g></svg>