<svg id="Capa_1" data-name="Capa 1" xmlns="http://www.w3.org/2000/svg" xmlns:xlink="http://www.w3.org/1999/xlink" viewBox="0 0 599.74 465.23"><defs><style>.cls-1,.cls-6{fill:none;}.cls-2{clip-path:url(#clip-path);}.cls-3{fill:#272e4a;}.cls-4{fill:#db9d0c;}.cls-5{font-size:30.96px;}.cls-5,.cls-7{fill:#282e4a;font-family:CourierNewPSMT, Courier New;}.cls-6{stroke:#282e4a;stroke-miterlimit:10;stroke-width:2px;}.cls-7{font-size:24.45px;}</style><clipPath id="clip-path"><rect class="cls-1" width="599.74" height="465.23"/></clipPath></defs><title>arthurs</title><g class="cls-2"><path class="cls-3" d="M306.18,159.76l-3.95-12c-7.41,9.11-13.87,17.39-16.86,29.08-1.87-3.66-3.43-6.65-4.93-9.66-1.37-2.76-3.08-3-5.28-.89-2.68,2.59-5.4,5.13-9.27,8.81-2.38-6-4.66-10.79-6.25-15.83-2.56-8.13-4.64-9-11.22-3.85-1.93,1.51-3.81,3.08-5.73,4.6-3.51,2.78-7,3.78-10.35-.26-2.17-2.61-4.73-2.6-6.75-.18a75,75,0,0,0-7,10,65,65,0,0,0-3.48,7.84c-6-1.33-11.64-1.65-16.27-4-2.93-1.46-5.1-5.65-6.35-9.08-2.91-8-4.57-9-12.05-5.14-2.35,1.21-4.77,2.29-7,3.67-5.55,3.42-10.76,4.45-15.62-1.22-2.49-2.91-4.25-1.06-5.66,1.3-3.49,5.81-6.95,11.64-10.4,17.43l-9.31-.81,4.84-19.82-1.57-.64-14,11.43c-1.9-7.36-2.54-12.83,2.81-17.54a158.17,158.17,0,0,0,12.82-13c4.08-4.53,8.16-9,7.71-16.05-.11-1.75,3-4.14,5.07-5.53,11.53-7.67,18.55-18.9,24.59-30.85,1.5-3,1.76-6.55,1.49-10.16l15.85-17.89-4-2.31,4.1-1.83c-2.23-4.82-9.16-.69-25.63,14.3l-2.65-3.43c-6,6.57-14.94,9.52-19.23,18.56-2.63,5.54-7.83,10.1-12.55,14.35-13.15,11.83-26.65,23.28-40,34.86-.82.71-1.71,1.32-2.57,2l-1.27-.92c2.33-3.35,4.11-7.36,7.1-9.94,11.41-9.83,23.44-18.94,34.76-28.87,4.42-3.88,7.59-9.21,11.27-13.92.92-1.18,1.34-2.89,2.45-3.75,10.48-8.11,18.57-19.26,31.68-24.09,5.31-2,9.58-6.82,16-5.51,2.46.5,5.31.67,7.19,2.06,7.5,5.54,14.7,11.49,22,17.29,5.71,4.53,7.83,5,11.2-1.37,6.78-12.78,19.16-20,28.18-30.48,2.5-2.9,6.85-4.3,10.51-6.08,3.19-1.55,6.9-2.18,9.85-4,5.31-3.35,10.49-4,15,.53,6,6.07,13.71,9.17,21.29,12,8.45,3.18,14.06,9.7,21,14.73,6.65,4.85,13.69,9.16,20.56,13.72,1.08.72,2.62,1.25,3.11,2.27,3.57,7.4,10.68,10.26,17.24,13.84,2.78,1.52,4.66,1.29,7.2-1.46,8.32-9,20.34-12.18,31.74-5.38C428.1,83,438.29,89.5,446.62,98.61A8.77,8.77,0,0,0,448.4,100c6.9,4.42,14.43,8.1,20.56,13.41,7.82,6.77,14.5,14.86,21.7,22.36,1,1,2.15,2.65,3.28,2.7,14.19.57,23.71,10.33,34.59,17.37,5.83,3.77,11.51,7.77,17.2,12.11-4.15-1.58-7.88-2-10.14,2.67l-4.22-2.66c.17,3.78.32,7,.49,10.81-7.46-3.25-16.28-2.47-19.23-12.36l-1.21.94-2.59,6.74c-2.55-3.74-4.73-6.89-6.86-10.08-5.71-8.55-11.74-10-20.57-4.77-1.62,1-3.13,2.13-4.76,3.06-5.61,3.18-11.13,1.43-14.09-4.16a95.19,95.19,0,0,0-9.83-15.26c.16,7.5-5.82,8.41-9.79,10.87-4.42,2.73-9.08,4-14.21.45-3-2.07-6.85-2.79-10.6-4.23l-3.46,28c-9.49-5.21-4.32-14.95-10.24-20.77l-8.87,16c-6.81-6.42-5-14.52-5.69-21.93l-1.41-.21-2.73,7.37c-4.81-.63-9.06-1.5-13.32-1.63-3.25-.1-4.16-1.1-5-4.36-2-7.81-.48-14,5.52-19.37,3.88-3.5,5-7.79,1.88-12.66-1.81-2.78-1.14-5,1.58-7.26s4.63-5.44,7.12-8a47.3,47.3,0,0,1,5.31-4.15l2,1.57c-1.75,3.25-3.07,6.85-5.34,9.7-7.08,8.85-6.7,18.79-5.51,29,9,.93,19.84-5.14,19.05-12.83-.73-7.13,5-12,2.93-19.61-1.61-5.9,2.36-13.3,3.73-20.05.5-2.48.67-5,1-7.54-2.9-.3-6.15-1.57-8.6-.66-3.52,1.3-6.63,4-9.61,6.46s-5.78,5.57-8.66,8.38c-.13.13-.35.16-.49.28-9.25,8.53-18.92,16.52-30,22.63-.39.21-.49.95-1.09,2.19a45.44,45.44,0,0,1,7.09,1.34c1.52.54,2.75,1.93,4.1,2.94-1.43,1.61-2.62,4.22-4.34,4.65-5.71,1.42-11.61,2.06-17.85,3.06l-2.49-6c-13.12,7.83-16.86,23.24-28.58,33.35M212,71.22c-5.53-1.84-9.45-3.59-13.54-4.35-3-.56-5.47,1.41-4.19,4.77a16.83,16.83,0,0,1-1,15.11c-1.64,3-1.74,7.24-4,9.3-15,13.57-24.39,31-33.73,48.4-1.77,3.31-2.58,7.12-4.31,12.05,10.83-2.15,14.27-12.33,23.92-15.7l-2.79,11.46c17.65-5,17.88-24.09,30.1-33.3l-3.26,20.67,9.51-1.47c.09-6.56.16-13.23.31-19.9,0-1.27.46-2.54.51-3.81s.32-3-.35-3.6c-5.83-5.11-2.23-9.4,1-13.69,2.07-2.74,4.35-5.32,7.2-8.78-9.44-1.11-6.18-9.58-10.81-13.06L212,71.22m52,38c.33-2,.68-2.81.47-3-5.89-5.15-4.26-11.47-2.91-17.78.19-.9-.15-1.93.07-2.81a41,41,0,0,1,2.19-7.28c1.5-3.23,3.65-6.17,5.15-9.4,2.4-5.16,3.38-11.49,7-15.46,6.23-6.85,7.67-14.91,10-24.26-3.21,1-5.47,1.63-7.68,2.42-3.8,1.36-7.58,2.79-11.35,4.25a7.6,7.6,0,0,0-2.37,1.4c-4.68,4.29-9.38,8.55-13.93,13-4.21,4.1-10.29,7.13-8.42,14.87-3.65-1.4-9,2.86-10.65,7.8-1.6,4.78,3.62,10.77,12.36,14a26.29,26.29,0,0,0,.56-4.38c-.37-9.89-1-19.84,10.4-24.8.73-.32,1.15-1.45,1.63-2.25,3.06-5.11,4.54-5.12,7.18-1.16-3.35,4.31-7.28,7.9-9.3,12.36s-2.65,9.92-3.16,15c-.48,4.74-.11,9.58.07,14.38a5.28,5.28,0,0,0,1.3,3.41c3.41,3.15,7,6.08,11.35,9.75m31.19,14.62c-.38-3.34-1.21-6.13-.93-8.81,1.73-16.82,5.22-33.65-2.13-50.11-.77-1.72-.59-3.86-1-7.23l25.39,8.65c-.06-8.87-7.14-10-10.54-13.93-.63-.73-4,.85-6.82,1.55L290.17,41.5c-1.14,2.75-2.26,4.48-2.55,6.34C286.54,54.53,286,61.32,284.77,68c-2.23,11.76.07,24.88-10.37,34.67l6.88,2.19-5.06,2.64,5.36,6.56c-6.44.25-5.26,2.93-3.64,6.51,2.28,5.07,5.39,6.82,10.71,4.77a38.16,38.16,0,0,1,6.47-1.49M348.18,93.3c-4.35-3.88-10.47-5.52-11.61-2.93-.75,1.71-.7,4.79.39,6.08,2.46,2.91,8.29,1,11.21-3.15m5-11.5c-2-5.3-9.12-6.91-16.14-3.26l16.14,3.26"/><path class="cls-4" d="M472.29,225.47s17.8-33.1,22.29-36.66,7.39.39,4.35,6.86S476,228.9,476,228.9s-2.11,2.77-3.69.79,0-4.22,0-4.22"/><path class="cls-4" d="M528.6,284.68C511.46,315,503,310.53,503,310.53c12.39-9.76,5.27-46.42,5.27-46.42-1.58-15,1.06-23.74,1.06-23.74s7.12-4.48,2.11-9-11.87,5.08-11.87,5.08c-4.22,4.22-5.27,15-5.27,15l-17.93,26.11c-5.8,9-6.59,5-6.59,5,.11-2.52.14-8.19-3.55-6a11.22,11.22,0,0,0-4.5,6.27,24.42,24.42,0,0,0-.92,10.55c-12.13,25.05-26.37,23.47-28.75,17.67s3.17-21.1,3.17-21.1c.53-4.48,19.52-29,22.42-34.29s-.53-10-2.9-14.77-5.8-1.85-5.8-1.85a47.75,47.75,0,0,1-23.21,10.49s2.64-13.65,2.9-20.77-6.07-3.69-6.07-3.69c-11.87,6.59-13.71,20.57-13.71,20.57-3.43,12.13,4.75,12.66,4.75,12.66-25.32,56.7-37.19,56.44-43.25,54.59s-1.05-16.35-1.05-16.35,16.35-29.54,20.84-36.66,2.37-16.09,2.37-16.09-1.58-10.81-6.59-5.28-29.54,51.17-29.54,51.17a72,72,0,0,1-20,22.15c-15.3,6.86-7.91-17.41-7.91-17.41a276.64,276.64,0,0,0,22.94-41.67s.79-10.81-2.11-14-5,1.85-5,1.85c-27.16,37.71-29,54.66-29,54.66l-2.37,3c-2.89,3.61-5.86,7.28-8.87,10.81-2.56,3-6.35,5.56-10.21,4.73-3.63-.78-6.08-4.46-6.49-8.14s.84-7.35,2.35-10.74c6.65-14.91,19-27.84,20.41-44.1.48-5.59-1.8-12.7-7.39-13.16a11.84,11.84,0,0,0-5.27,1.16,86,86,0,0,0-17.61,9.56c5.76-10,13.15-19,19-28.94s10.24-21.35,9-32.83c-.13-1.24-.5-2.7-1.67-3.14-1.49-.56-2.89,1-3.77,2.29-17,25.84-34,51.7-49.71,78.37-4.87,8.28-9.62,16.67-13.29,25.55-4,9.57-7.6,20.79-17.09,24.94-4.11,1.8-9.73,1.5-12.15-2.28a11,11,0,0,1-1.42-4.76,32.38,32.38,0,0,1,.79-11.52c1.35-5.33,4-10.22,6.7-15L241,236.15l17.69-.78c.59-3-1.37-6.05-4-7.69S249,225.5,246,225a32.78,32.78,0,0,0,3.48-20.38,3.88,3.88,0,0,0-1.39-2.84c-1.82-1.14-3.9,1-5,2.81l-14.87,24.67H208.62a12.06,12.06,0,0,0,14.1,8.86c-14.46,20.61-18.08,47.37-32.75,67.84-3,4.24-6.93,8.4-12.06,9.36a7.35,7.35,0,0,1-4.14-.27c-3.26-1.34-4.33-5.45-4.32-9,0-9.76,5-18.81,10.6-26.8a146.87,146.87,0,0,1,10.66-13.45c1.65-1.85,3.39-3.72,4.18-6.07,1.51-4.47-.78-9.24-3-13.39a5.5,5.5,0,0,0-2-2.43c-2-1.07-4.3.58-6.1,2a34.24,34.24,0,0,1-19.26,7l3.31-20.2a3.48,3.48,0,0,0-.2-2.45c-.81-1.26-2.73-.95-4.11-.36-10.55,4.5-17.1,16.85-14.9,28.11a8.46,8.46,0,0,1,.24,3.92,7.22,7.22,0,0,1-1,1.87l-18.07,28.08c-5.53,8.6-11.26,19.17-7,28.48,1.07,2.35,3.29,4.66,5.83,4.19a218.22,218.22,0,0,1,29.7-59.43,8.31,8.31,0,0,1,2.39-2.51,9.13,9.13,0,0,1,3.88-.88,59.45,59.45,0,0,0,17.33-4.22c-11.11,11.51-21.55,24.9-23.83,40.74-.85,5.92-.28,12.56,3.84,16.9a17,17,0,0,0,8.24,4.49c10.89,2.74,23.31-3,28.27-13.08a22,22,0,0,0,36.18,6c-.1,1.52-.15,3.19.81,4.37,1.41,1.75,4.34,1.39,6-.11s2.4-3.75,3.12-5.87a124,124,0,0,1,47-61.77c1.39-.95,3.3-1.86,4.61-.8s.71,3.4-.15,5c-5.12,9.54-11.64,18.3-16.34,28.05-5.14,10.66-12.27,34.05,5,37.92,14.5,4.88,30.33-9.63,30.33-9.63,3.82,11.74,15.69,9.36,15.69,9.36,6.46.79,24.79-16.88,24.79-16.88-2.37,20.31,18.07,17.14,18.07,17.14,12.53,1.05,26.77-19.65,26.77-19.65,7.39-9.23,21.1-41.41,21.1-41.41,14.64.92,21.23-6.65,21.23-6.65a2.09,2.09,0,0,1,1.58,2.43c-5.14,4.35-12.66,16.22-12.66,16.22-15.43,18.59-10.81,38-10.81,38,2,12.92,20,11.08,20,11.08,12.26.53,22.55-14.9,22.55-14.9C474,325.83,500,318.84,500,318.84c17.14-.92,31.38-20.57,31.91-29.54s-3.3-4.62-3.3-4.62m-37.43,26A6.55,6.55,0,0,1,489,313a5.18,5.18,0,0,1-3.88.29,15,15,0,0,1-8.22-6.49,23.18,23.18,0,0,1-2.54-5.54c-.42-1.32-2.25-6.33-1.47-7.5l20.18-30.26s1.29-2,1.58,1.39v17.62c0,9.17,1.75,20.18-3.48,28.22"/><path class="cls-4" d="M134.45,208.46a9.83,9.83,0,0,0,0-6.53s-4.35-8.7-6.13-10.68-4.55,0-4.55,0c-25.91,17.21-66.86,84.46-66.86,84.46s-12.46-1.58-12.07,2,6.92,9.3,6.92,9.3C39.11,308,45,318.44,45,318.44c2.64,2,3.83-1.05,3.83-1.05l15.56-29.67,40.15-2s-1.06,17.8-.39,21.56,5.8,10.35,6.79,11.14,3.1,0,3.1,0l2-33.43,11.47.2c2.37-8.5-8.24-11.6-8.24-11.6,1.32-12.66,5.67-30.33,5.67-30.33Zm-27.82,64.75-32.7,2c3.82-10.68,45-62.37,45-62.37-.53,4.35-12.26,60.4-12.26,60.4"/><path class="cls-3" d="M305.16,434.27,290.09,419.2l23-23,.94,3.87,6.54-12.79-14.21,7.25,4.21.55-22.27,22.27L266,395.09l4.21-.55L256,387.3l6.54,12.79.94-3.87,23,23-15.07,15.07h-4.51L256,444.5l5.58,1.61,1.33,4.38L273,439.32v-3L288.26,421l15.29,15.29v3l10.08,11.18,1.33-4.38,5.58-1.61-10.87-10.23ZM261.27,445l-3.32-1,9.3-8.76h3.37Zm54,0-9.36-9.72h3.37l9.3,8.76Z"/></g><text class="cls-5" transform="translate(99.4 362.57) scale(1.13 1)">ROCK &amp; SPORT&apos;S BAR </text><g class="cls-2"><path class="cls-6" d="M105.21,346.15h5.27a5.44,5.44,0,0,1,3.5,1.15,3.18,3.18,0,0,1,1.44,2.42,2.57,2.57,0,0,1-.69,1.66,5.52,5.52,0,0,1-2.22,1.42,9.15,9.15,0,0,1-3.4.61h-3.9Zm4.55,8.53a10.64,10.64,0,0,1,3.35,2.24,35.14,35.14,0,0,1,4.11,5.65h1.91a1.16,1.16,0,0,0,.73-.18.56.56,0,0,0,.22-.45.55.55,0,0,0-.22-.46,1.2,1.2,0,0,0-.73-.18H118a43.63,43.63,0,0,0-3.49-4.84,12.25,12.25,0,0,0-2.62-2.12,8.59,8.59,0,0,0,3.79-2,3.69,3.69,0,0,0,1.13-2.56,4.35,4.35,0,0,0-1.83-3.4,6.87,6.87,0,0,0-4.51-1.5h-8.66a1.2,1.2,0,0,0-.73.17.59.59,0,0,0,0,.92,1.2,1.2,0,0,0,.73.17h1.93V361.3h-1.93a1.2,1.2,0,0,0-.73.18.55.55,0,0,0-.22.46.56.56,0,0,0,.22.45,1.16,1.16,0,0,0,.73.18h6a1.2,1.2,0,0,0,.75-.18.56.56,0,0,0,.22-.45.55.55,0,0,0-.22-.46,1.24,1.24,0,0,0-.75-.18h-2.64v-6.62Z"/><path class="cls-6" d="M136.09,359.34a6.49,6.49,0,0,1-5.25,2.46,7,7,0,0,1-5.05-2.25,7.83,7.83,0,0,1-2.24-5.78,8.14,8.14,0,0,1,2.14-5.68,6.73,6.73,0,0,1,5.15-2.35,6.48,6.48,0,0,1,5.25,2.47,8.66,8.66,0,0,1,0,11.14Zm2.31-10.29a8.6,8.6,0,0,0-3.2-3.37,8.45,8.45,0,0,0-10.45,1.39,9.82,9.82,0,0,0,0,13.39,8.45,8.45,0,0,0,10.46,1.4,8.5,8.5,0,0,0,3.2-3.38,10.13,10.13,0,0,0,0-9.43Z"/><path class="cls-6" d="M152,344.47a8.92,8.92,0,0,0-4.27,1.05,7.72,7.72,0,0,0-3.1,3,7.63,7.63,0,0,0-1.13,3.83V355a6.61,6.61,0,0,0,.43,2.41,8.11,8.11,0,0,0,1.59,2.39,12,12,0,0,0,2,1.84,8.23,8.23,0,0,0,2,1,10,10,0,0,0,3.15.53,9.49,9.49,0,0,0,6.68-2.8q.73-.71.73-1.06a.54.54,0,0,0-.19-.42.72.72,0,0,0-.49-.17.86.86,0,0,0-.65.32,10,10,0,0,1-2.82,2.15,7.42,7.42,0,0,1-3.3.71,7.78,7.78,0,0,1-5.39-2.09,6.45,6.45,0,0,1-2.32-4.94v-2.22a5.75,5.75,0,0,1,.48-2.39,9.66,9.66,0,0,1,1.79-2.62,5.17,5.17,0,0,1,1.74-1.15,7.59,7.59,0,0,1,3.12-.65,7.82,7.82,0,0,1,4.5,1.35,3,3,0,0,1,1.55,2.25.88.88,0,0,0,.23.59.69.69,0,0,0,.49.18.7.7,0,0,0,.52-.2.92.92,0,0,0,.2-.67v-3.52a.9.9,0,0,0-.2-.65.79.79,0,0,0-1,0,.9.9,0,0,0-.2.65v.89A9.19,9.19,0,0,0,152,344.47Z"/><path class="cls-6" d="M170.94,353.35a8.36,8.36,0,0,1,3.83,2.2q1.53,1.57,3.78,7h2.76a1.2,1.2,0,0,0,.75-.18.56.56,0,0,0,.22-.45.56.56,0,0,0-.22-.46,1.24,1.24,0,0,0-.75-.18h-1.79a50.51,50.51,0,0,0-2.25-4.61A10.69,10.69,0,0,0,175,354a9.82,9.82,0,0,0-2.91-1.59l7.87-6.24h.58a1.2,1.2,0,0,0,.73-.17.59.59,0,0,0,0-.92,1.2,1.2,0,0,0-.73-.17h-4.21a1.24,1.24,0,0,0-.75.17.59.59,0,0,0,0,.92,1.24,1.24,0,0,0,.75.17h1.57L168.06,354v-7.82h2.64a1.24,1.24,0,0,0,.75-.17.59.59,0,0,0,0-.92,1.24,1.24,0,0,0-.75-.17h-6a1.2,1.2,0,0,0-.73.17.59.59,0,0,0,0,.92,1.2,1.2,0,0,0,.73.17h1.93V361.3H164.7a1.2,1.2,0,0,0-.73.18.55.55,0,0,0-.22.46.56.56,0,0,0,.22.45,1.16,1.16,0,0,0,.73.18h6a1.2,1.2,0,0,0,.75-.18.56.56,0,0,0,.22-.45.55.55,0,0,0-.22-.46,1.24,1.24,0,0,0-.75-.18h-2.64v-5.65Z"/><path class="cls-6" d="M216.71,359.89a3.68,3.68,0,0,1-3.15,1.9,3.61,3.61,0,0,1-2.55-1.07,3.45,3.45,0,0,1-1.13-2.6,3.19,3.19,0,0,1,.84-2.21,4.13,4.13,0,0,1,2.27-1.23Zm3.87,2.68a1.16,1.16,0,0,0,.73-.18.58.58,0,0,0,0-.91,1.2,1.2,0,0,0-.73-.18h-1.21l-1-1.3a13.53,13.53,0,0,0,1.87-4,3.35,3.35,0,0,0,.84-.06.65.65,0,0,0,.3-.23.59.59,0,0,0,.13-.36.57.57,0,0,0-.22-.45,1.17,1.17,0,0,0-.73-.18h-1.4a15.39,15.39,0,0,1-1.64,4l-4-5.58a6.79,6.79,0,0,1-1.53-3.15,2.26,2.26,0,0,1,.88-1.72,3,3,0,0,1,2.05-.77,3.28,3.28,0,0,1,1.13.2,3.89,3.89,0,0,1,1.08.63l1.11-.53a1.37,1.37,0,0,0,.48-.32.53.53,0,0,0,.12-.33.59.59,0,0,0-.21-.46.73.73,0,0,0-.5-.19,3.57,3.57,0,0,0-.9.33,5,5,0,0,0-1.16-.47,4.57,4.57,0,0,0-1.16-.15,4.49,4.49,0,0,0-3.07,1.13,3.41,3.41,0,0,0-1.28,2.62,2.9,2.9,0,0,0,.25,1.17,18.78,18.78,0,0,0,1.51,2.37,5.49,5.49,0,0,0-2.89,1.72,4.28,4.28,0,0,0-1,2.84,4.6,4.6,0,0,0,1.55,3.51,5.13,5.13,0,0,0,3.59,1.44,4.77,4.77,0,0,0,4-2l1.09,1.5Z"/><path class="cls-6" d="M256.44,344.47a7.38,7.38,0,0,0-4.75,1.44,4.28,4.28,0,0,0-1.8,3.43,3.55,3.55,0,0,0,1.57,3.1,12.6,12.6,0,0,0,5.13,1.62,19.85,19.85,0,0,1,3.41.71,4,4,0,0,1,1.77,1.23,2.85,2.85,0,0,1,.6,1.78,3.49,3.49,0,0,1-1.56,2.83,6.83,6.83,0,0,1-4.25,1.19,7.22,7.22,0,0,1-4.29-1.14,3.45,3.45,0,0,1-1.68-2.53.82.82,0,0,0-.21-.59.71.71,0,0,0-.5-.18.7.7,0,0,0-.52.2.93.93,0,0,0-.19.67v3.51a.87.87,0,0,0,.2.65.77.77,0,0,0,1,0,.9.9,0,0,0,.2-.65V361a9.73,9.73,0,0,0,11.25.54,4.58,4.58,0,0,0,2-3.71,4.08,4.08,0,0,0-.76-2.47,4.93,4.93,0,0,0-2.24-1.63,20.57,20.57,0,0,0-4-.86,21.42,21.42,0,0,1-2.56-.49,6.11,6.11,0,0,1-1.47-.62,3.06,3.06,0,0,1-1-1,2.52,2.52,0,0,1-.39-1.38,3.16,3.16,0,0,1,1.4-2.55,7.07,7.07,0,0,1,7.4-.07A3.13,3.13,0,0,1,261.6,349a.82.82,0,0,0,.21.59.79.79,0,0,0,1,0,.9.9,0,0,0,.2-.65v-3.24a.9.9,0,0,0-.2-.65.79.79,0,0,0-1,0,.9.9,0,0,0-.2.65v.42A8.18,8.18,0,0,0,256.44,344.47Z"/><path class="cls-6" d="M274.31,346.15h5.1a5.57,5.57,0,0,1,3.66,1.19,3.46,3.46,0,0,1,1.45,2.69,3.17,3.17,0,0,1-.64,1.84,4.83,4.83,0,0,1-2,1.54,7.15,7.15,0,0,1-3,.63h-4.57Zm4.48,9.16a9,9,0,0,0,2.45-.29,9.6,9.6,0,0,0,2.64-1.24,4.85,4.85,0,0,0,1.46-1.54A4.13,4.13,0,0,0,286,350a4.58,4.58,0,0,0-1.87-3.61,7.31,7.31,0,0,0-4.81-1.54H271a1.2,1.2,0,0,0-.73.17.59.59,0,0,0,0,.92,1.2,1.2,0,0,0,.73.17h1.93V361.3H271a1.2,1.2,0,0,0-.73.17.58.58,0,0,0,0,.91,1.16,1.16,0,0,0,.73.18h8.27a1.16,1.16,0,0,0,.73-.18.58.58,0,0,0,0-.91,1.2,1.2,0,0,0-.73-.17h-4.91v-6Z"/><path class="cls-6" d="M303.64,359.34a6.49,6.49,0,0,1-5.25,2.46,7,7,0,0,1-5.05-2.25,7.83,7.83,0,0,1-2.24-5.78,8.14,8.14,0,0,1,2.14-5.68,6.72,6.72,0,0,1,5.15-2.35,6.48,6.48,0,0,1,5.25,2.47,8.66,8.66,0,0,1,0,11.14Zm2.31-10.29a8.59,8.59,0,0,0-3.2-3.37,8.45,8.45,0,0,0-10.45,1.39,9.82,9.82,0,0,0,0,13.39,8.45,8.45,0,0,0,10.46,1.4,8.5,8.5,0,0,0,3.2-3.38,10.13,10.13,0,0,0,0-9.43Z"/><path class="cls-6" d="M314.65,346.15h5.27a5.44,5.44,0,0,1,3.5,1.15,3.18,3.18,0,0,1,1.44,2.42,2.57,2.57,0,0,1-.69,1.66,5.5,5.5,0,0,1-2.21,1.42,9.15,9.15,0,0,1-3.4.61h-3.9Zm4.55,8.53a10.64,10.64,0,0,1,3.35,2.24,35.27,35.27,0,0,1,4.11,5.65h1.91a1.16,1.16,0,0,0,.73-.18.56.56,0,0,0,.22-.45.55.55,0,0,0-.22-.46,1.2,1.2,0,0,0-.73-.18h-1.09a43.5,43.5,0,0,0-3.49-4.84,12.22,12.22,0,0,0-2.62-2.12,8.58,8.58,0,0,0,3.79-2,3.69,3.69,0,0,0,1.13-2.56,4.35,4.35,0,0,0-1.83-3.4,6.87,6.87,0,0,0-4.51-1.5h-8.66a1.21,1.21,0,0,0-.73.17.59.59,0,0,0,0,.92,1.21,1.21,0,0,0,.73.17h1.93V361.3h-1.93a1.21,1.21,0,0,0-.73.18.56.56,0,0,0-.22.46.56.56,0,0,0,.22.45,1.17,1.17,0,0,0,.73.18h6a1.2,1.2,0,0,0,.75-.18.57.57,0,0,0,.22-.45.56.56,0,0,0-.22-.46,1.24,1.24,0,0,0-.75-.18h-2.64v-6.62Z"/><path class="cls-6" d="M346.82,346.15v4.4a.92.92,0,0,0,.2.67.78.78,0,0,0,1,0,.92.92,0,0,0,.2-.67v-5.67h-16v5.67a.89.89,0,0,0,.2.67.77.77,0,0,0,1,0,.92.92,0,0,0,.2-.67v-4.4h5.86V361.3H335.8a1.2,1.2,0,0,0-.73.18.58.58,0,0,0,0,.91,1.16,1.16,0,0,0,.73.18h8.88a1.17,1.17,0,0,0,.73-.18.58.58,0,0,0,0-.91,1.2,1.2,0,0,0-.73-.18H341V346.15Z"/><path class="cls-6" d="M360.11,351.53a1.51,1.51,0,0,0,.38.89,1.09,1.09,0,0,0,1.39,0,1.48,1.48,0,0,0,.38-.89l1.19-7.94h-4.53Z"/><path class="cls-6" d="M382.1,344.47a7.38,7.38,0,0,0-4.75,1.44,4.28,4.28,0,0,0-1.8,3.43,3.55,3.55,0,0,0,1.57,3.1,12.6,12.6,0,0,0,5.13,1.62,19.8,19.8,0,0,1,3.41.71,4,4,0,0,1,1.77,1.23,2.85,2.85,0,0,1,.6,1.78,3.49,3.49,0,0,1-1.56,2.83,6.82,6.82,0,0,1-4.25,1.19,7.22,7.22,0,0,1-4.29-1.14,3.45,3.45,0,0,1-1.68-2.53.82.82,0,0,0-.21-.59.79.79,0,0,0-1,0,.92.92,0,0,0-.2.67v3.51a.87.87,0,0,0,.2.65.77.77,0,0,0,1,0,.89.89,0,0,0,.2-.65V361a9.73,9.73,0,0,0,11.25.54,4.58,4.58,0,0,0,2-3.71,4.08,4.08,0,0,0-.76-2.47,4.92,4.92,0,0,0-2.24-1.63,20.58,20.58,0,0,0-4-.86,21.47,21.47,0,0,1-2.56-.49,6.14,6.14,0,0,1-1.47-.62,3.07,3.07,0,0,1-1-1,2.52,2.52,0,0,1-.39-1.38,3.16,3.16,0,0,1,1.4-2.55,7.07,7.07,0,0,1,7.4-.07,3.13,3.13,0,0,1,1.47,2.28.82.82,0,0,0,.21.59.71.71,0,0,0,.5.18.7.7,0,0,0,.52-.2.9.9,0,0,0,.2-.65v-3.24a.9.9,0,0,0-.2-.65.79.79,0,0,0-1,0,.9.9,0,0,0-.2.65v.42A8.18,8.18,0,0,0,382.1,344.47Z"/><path class="cls-6" d="M419.35,354h5.15a11.75,11.75,0,0,1,3.71.47,4.68,4.68,0,0,1,2.1,1.38,2.9,2.9,0,0,1,.76,1.88,3,3,0,0,1-.53,1.66,4.11,4.11,0,0,1-1.55,1.35,5,5,0,0,1-2.4.54h-7.24Zm0-7.88H425a5.12,5.12,0,0,1,3.29,1,2.84,2.84,0,0,1,1.26,2.2A2.76,2.76,0,0,1,429,351a3.63,3.63,0,0,1-1.62,1.22,8,8,0,0,1-3,.53h-5.06ZM416,361.3a1.2,1.2,0,0,0-.73.18.55.55,0,0,0-.22.46.56.56,0,0,0,.22.45,1.16,1.16,0,0,0,.73.18h10.7a6.46,6.46,0,0,0,3.06-.74,5.42,5.42,0,0,0,2.09-1.79,4.18,4.18,0,0,0,.68-2.32,3.85,3.85,0,0,0-1-2.6,7.16,7.16,0,0,0-3.27-1.89q2.81-1.44,2.81-3.76a4.05,4.05,0,0,0-1.68-3.21,6.68,6.68,0,0,0-4.35-1.37h-9a1.2,1.2,0,0,0-.73.17.59.59,0,0,0,0,.92,1.2,1.2,0,0,0,.73.17h1.93V361.3Z"/><path class="cls-6" d="M440.82,355.39l3.83-9.24h.53l4,9.24Zm10.82,5.91h-2.73a1.24,1.24,0,0,0-.75.18.56.56,0,0,0-.22.46.56.56,0,0,0,.22.45,1.2,1.2,0,0,0,.75.18h5.33a1.16,1.16,0,0,0,.73-.18.57.57,0,0,0,.22-.45.56.56,0,0,0-.22-.46,1.2,1.2,0,0,0-.73-.18h-1.11l-7-16.42h-7.21a1.2,1.2,0,0,0-.73.17.59.59,0,0,0,0,.92,1.2,1.2,0,0,0,.73.17h4.23l-6.32,15.15h-1.11a1.2,1.2,0,0,0-.73.18.55.55,0,0,0-.22.46.56.56,0,0,0,.22.45,1.16,1.16,0,0,0,.73.18h5.35a1.17,1.17,0,0,0,.73-.18.56.56,0,0,0,.22-.45.56.56,0,0,0-.22-.46,1.21,1.21,0,0,0-.73-.18h-2.74l1.93-4.64h9.41Z"/><path class="cls-6" d="M461.25,346.15h5.27a5.44,5.44,0,0,1,3.5,1.15,3.18,3.18,0,0,1,1.44,2.42,2.57,2.57,0,0,1-.69,1.66,5.5,5.5,0,0,1-2.21,1.42,9.15,9.15,0,0,1-3.4.61h-3.9Zm4.55,8.53a10.64,10.64,0,0,1,3.35,2.24,35.27,35.27,0,0,1,4.11,5.65h1.91a1.16,1.16,0,0,0,.73-.18.56.56,0,0,0,.22-.45.55.55,0,0,0-.22-.46,1.2,1.2,0,0,0-.73-.18h-1.09a43.5,43.5,0,0,0-3.49-4.84,12.22,12.22,0,0,0-2.62-2.12,8.58,8.58,0,0,0,3.79-2,3.69,3.69,0,0,0,1.13-2.56,4.35,4.35,0,0,0-1.83-3.4,6.87,6.87,0,0,0-4.51-1.5h-8.66a1.21,1.21,0,0,0-.73.17.59.59,0,0,0,0,.92,1.21,1.21,0,0,0,.73.17h1.93V361.3h-1.93a1.21,1.21,0,0,0-.73.18.56.56,0,0,0-.22.46.56.56,0,0,0,.22.45,1.17,1.17,0,0,0,.73.18h6a1.2,1.2,0,0,0,.75-.18.57.57,0,0,0,.22-.45.56.56,0,0,0-.22-.46,1.24,1.24,0,0,0-.75-.18h-2.64v-6.62Z"/></g><text class="cls-7" transform="translate(210.15 430.36)">- 19</text><g class="cls-2"><rect class="cls-6" x="212.37" y="422.73" width="10.23" height="1.43"/><path class="cls-6" d="M242.75,416.62a1.16,1.16,0,0,0-.39.2.54.54,0,0,0-.12.33.48.48,0,0,0,.15.35.46.46,0,0,0,.33.15,1.38,1.38,0,0,0,.35-.07l3.27-1v12.8h-3.44a.77.77,0,0,0-.51.14.46.46,0,0,0-.15.36.47.47,0,0,0,.15.36.75.75,0,0,0,.51.14h7.88a.75.75,0,0,0,.51-.14.47.47,0,0,0,.15-.36.46.46,0,0,0-.15-.36.76.76,0,0,0-.51-.14h-3.44V415.18Z"/><path class="cls-6" d="M264.3,422.11a4.44,4.44,0,0,1-1.29,1.15,2.83,2.83,0,0,1-1.39.38,2.89,2.89,0,0,1-2.18-1.07,3.87,3.87,0,0,1-1-2.7,4,4,0,0,1,1-2.76,3,3,0,0,1,2.25-1.07,3.11,3.11,0,0,1,2.19.88,7,7,0,0,1,1.57,3.3A15.33,15.33,0,0,1,264.3,422.11Zm1.37,1.18a6.24,6.24,0,0,1-1.83,4.59,6,6,0,0,1-4.37,1.83,2.42,2.42,0,0,1-1.07-.23,1.1,1.1,0,0,0-.42-.13.48.48,0,0,0-.35.14.45.45,0,0,0-.14.34.56.56,0,0,0,.31.48,3.4,3.4,0,0,0,1.76.41,6.92,6.92,0,0,0,3.13-.75,7.63,7.63,0,0,0,2-1.46,6.88,6.88,0,0,0,1.33-1.85,8.1,8.1,0,0,0,.68-3.53,13.26,13.26,0,0,0-.8-4.8,5.43,5.43,0,0,0-1.74-2.46,4,4,0,0,0-2.48-.85,3.63,3.63,0,0,0-3.05,1.51,5.43,5.43,0,0,0-1.14,3.35,5.36,5.36,0,0,0,.57,2.42,4.16,4.16,0,0,0,1.55,1.75,3.8,3.8,0,0,0,2,.6,4,4,0,0,0,2.19-.69,5.76,5.76,0,0,0,1.85-2.06Q265.67,422.79,265.67,423.3Z"/></g><text class="cls-7" transform="translate(304.9 428.88)">80 -</text><g class="cls-2"><path class="cls-6" d="M314.79,427.23a3.74,3.74,0,0,1-5.1,0,3.19,3.19,0,0,1-1-2.36,3.07,3.07,0,0,1,1-2.29,3.82,3.82,0,0,1,5.11,0,3.08,3.08,0,0,1,1,2.31A3.17,3.17,0,0,1,314.79,427.23Zm-.19-7.5a3.62,3.62,0,0,1-4.73,0,2.71,2.71,0,0,1-.95-2,3,3,0,0,1,1-2.2,3.44,3.44,0,0,1,4.7,0,3,3,0,0,1,1,2.22A2.69,2.69,0,0,1,314.6,419.73Zm1.28.05a3.54,3.54,0,0,0,.69-2.12,3.91,3.91,0,0,0-1.27-2.88,4.42,4.42,0,0,0-6.13,0,3.9,3.9,0,0,0-1.27,2.88,3.59,3.59,0,0,0,.69,2.14,5.16,5.16,0,0,0,1.6,1.31,4.6,4.6,0,0,0-1.9,1.62,3.88,3.88,0,0,0-.64,2.13,4.16,4.16,0,0,0,1.34,3.08,4.7,4.7,0,0,0,6.49,0,4.15,4.15,0,0,0,1.34-3.08,3.91,3.91,0,0,0-.64-2.14,4.52,4.52,0,0,0-1.89-1.61A4.91,4.91,0,0,0,315.89,419.78Z"/><path class="cls-6" d="M330.51,422.49a8.17,8.17,0,0,1-1,4,2.92,2.92,0,0,1-2.63,1.73,2.82,2.82,0,0,1-1.54-.43,2.6,2.6,0,0,1-.76-.71,7.35,7.35,0,0,1-.91-2,8.48,8.48,0,0,1-.4-2.65v-2.21a8.13,8.13,0,0,1,1-4,2.92,2.92,0,0,1,2.64-1.72,2.87,2.87,0,0,1,1.53.42,2.71,2.71,0,0,1,.78.72,7.67,7.67,0,0,1,.9,2,8.46,8.46,0,0,1,.4,2.65Zm.74-4.75a9.82,9.82,0,0,0-.6-1.59,5.5,5.5,0,0,0-.76-1.28,3.86,3.86,0,0,0-1.33-1,4,4,0,0,0-1.67-.35,3.76,3.76,0,0,0-3,1.48,7.88,7.88,0,0,0-1.54,5.13v2.48a9.35,9.35,0,0,0,.27,2.4,8.59,8.59,0,0,0,.59,1.6,5.62,5.62,0,0,0,.76,1.27,3.78,3.78,0,0,0,1.33,1,4,4,0,0,0,1.67.35,3.77,3.77,0,0,0,3-1.48,7.87,7.87,0,0,0,1.54-5.12v-2.48A9.82,9.82,0,0,0,331.25,417.74Z"/><rect class="cls-6" x="351.15" y="421.25" width="10.23" height="1.43"/></g></svg>