<svg id="Capa_1" data-name="Capa 1" xmlns="http://www.w3.org/2000/svg" xmlns:xlink="http://www.w3.org/1999/xlink" viewBox="0 0 850.39 850.39"><defs><style>.cls-1{fill:none;}.cls-2{clip-path:url(#clip-path);}.cls-3{fill:#fff;}</style><clipPath id="clip-path"><rect class="cls-1" width="850.39" height="850.39"/></clipPath></defs><title>Casa colon</title><g class="cls-2"><path class="cls-3" d="M154.7,752.63q8.54,0,11.85-8.89L193.11,673h2.25l26.79,70.18q2,5.22,4.5,7.35a10,10,0,0,0,6.76,2.13v1.18q-3.56,0-5.63-.06l-3.56-.12-2.73-.12q-1.25-.06-3-.06t-3,.06l-2.73.12-3.73.12q-2.25.06-6,.06v-1.18a21.44,21.44,0,0,0,2.79-.18,9.07,9.07,0,0,0,2.55-.71,4.55,4.55,0,0,0,1.9-1.54,4.31,4.31,0,0,0,.71-2.55,9.75,9.75,0,0,0-.42-2.73q-.42-1.42-.89-2.61L201.88,722H177l-7.82,21.57a12,12,0,0,0-.71,3.68,4.82,4.82,0,0,0,.71,2.72,5.08,5.08,0,0,0,1.78,1.66,6.72,6.72,0,0,0,2.43.77,20.5,20.5,0,0,0,2.67.18v1.18q-2.49,0-4-.06l-2.61-.12-2-.12c-.59,0-1.28-.06-2.07-.06s-1.6,0-2.19.06l-2,.12-2.61.12q-1.54.06-3.91.06Zm46.47-32.72-11.38-32.13L177.7,719.91Z"/><path class="cls-3" d="M283.62,678.83q-.06,2.2-.06,4.33a49.61,49.61,0,0,0,.3,5.1,51.78,51.78,0,0,1,.3,5.33h-1.42a20.9,20.9,0,0,0-1.9-6.71,23.48,23.48,0,0,0-4-5.95,18.88,18.88,0,0,0-5.69-4.24A16.15,16.15,0,0,0,264,675.1a14.06,14.06,0,0,0-5.75,1.18,14.44,14.44,0,0,0-4.56,3.13,13.87,13.87,0,0,0-3,4.67,15.39,15.39,0,0,0-1.07,5.67,11.47,11.47,0,0,0,2.25,7.27,19.67,19.67,0,0,0,5.69,4.9,54.78,54.78,0,0,0,7.47,3.6q4,1.6,7.59,3.37a77.47,77.47,0,0,1,6.93,4,27.07,27.07,0,0,1,5.63,4.86,21.72,21.72,0,0,1,3.79,6.34,23.46,23.46,0,0,1,1.42,8.59,20.62,20.62,0,0,1-2,9.13,21.24,21.24,0,0,1-5.57,7.11,26.2,26.2,0,0,1-8.42,4.62,32.83,32.83,0,0,1-10.67,1.66,27.28,27.28,0,0,1-10.61-2,54.89,54.89,0,0,1-9.31-5l-2.73,4.62h-1.19q0-3.67.12-5.81t.12-4.5q0-2.49-.12-5.39t-.12-6.7h1.42a27.41,27.41,0,0,0,1.84,8.6,23.18,23.18,0,0,0,4.39,7.17,21.6,21.6,0,0,0,6.7,5,21.38,21.38,0,0,0,15.83.71,17.11,17.11,0,0,0,5.69-3.38,15.77,15.77,0,0,0,3.79-5.16,15.42,15.42,0,0,0,1.36-6.52,12.06,12.06,0,0,0-1.78-6.52,19.71,19.71,0,0,0-4.57-5,36.22,36.22,0,0,0-6.22-3.91q-3.44-1.72-6.64-3.26-3.79-1.78-7.47-3.91a33,33,0,0,1-6.58-5,22.94,22.94,0,0,1-4.68-6.58,20.35,20.35,0,0,1-1.78-8.83,18.23,18.23,0,0,1,1.84-8.06,22,22,0,0,1,4.92-6.64,23.67,23.67,0,0,1,7.11-4.51,21.92,21.92,0,0,1,8.42-1.66,23.85,23.85,0,0,1,8.65,1.6,29.15,29.15,0,0,1,7.82,4.56l2.49-4.51h1.18q0,2-.06,4.21"/><path class="cls-3" d="M294,752.63q8.54,0,11.86-8.89L332.4,673h2.25l26.79,70.18q2,5.22,4.51,7.35a10,10,0,0,0,6.76,2.13v1.18q-3.56,0-5.63-.06l-3.56-.12-2.73-.12q-1.25-.06-3-.06t-3,.06l-2.73.12-3.73.12q-2.25.06-6,.06v-1.18a21.44,21.44,0,0,0,2.79-.18,9.07,9.07,0,0,0,2.55-.71,4.55,4.55,0,0,0,1.9-1.54,4.31,4.31,0,0,0,.71-2.55,9.75,9.75,0,0,0-.42-2.73q-.42-1.42-.89-2.61L341.17,722h-24.9l-7.82,21.57a12,12,0,0,0-.71,3.68,4.82,4.82,0,0,0,.71,2.72,5.08,5.08,0,0,0,1.78,1.66,6.72,6.72,0,0,0,2.43.77,20.48,20.48,0,0,0,2.67.18v1.18q-2.49,0-4-.06l-2.61-.12-2-.12c-.59,0-1.29-.06-2.07-.06s-1.6,0-2.19.06l-2,.12-2.61.12q-1.54.06-3.91.06Zm46.47-32.72-11.38-32.13L317,719.91Z"/><path class="cls-3" d="M488.46,629.75q0,4.56-.09,8.75t-.1,8.36q0,4.56.29,9.5t.28,10.08h-2.28q-1.14-17.4-11.79-27.8t-29.65-10.4a33,33,0,0,0-15.49,4.18,44.79,44.79,0,0,0-14.25,12.34A66.77,66.77,0,0,0,405,664.86a86.84,86.84,0,0,0-4,27.52,95.23,95.23,0,0,0,2.28,19.93A68,68,0,0,0,410.82,732a46.67,46.67,0,0,0,13.69,15.09q8.45,6,20.81,6a48,48,0,0,0,17.11-2.95,37.34,37.34,0,0,0,13.4-8.55,40.75,40.75,0,0,0,8.84-13.4,50.52,50.52,0,0,0,3.61-17.48h2.28q0,5.51-.29,11.69T490,732.2v3.61c0,1.14,0,2.41.09,3.8s.13,3,.19,4.94.16,4.25.29,7h-1.9l-4.56-7.79q-1.71,1.33-4.94,3.42a55.6,55.6,0,0,1-8.08,4.18A68,68,0,0,1,459.76,755a64.23,64.23,0,0,1-14.64,1.52,78.28,78.28,0,0,1-26.33-4.28,59.06,59.06,0,0,1-20.91-12.54,56.48,56.48,0,0,1-13.78-20.62q-4.94-12.35-4.94-28.7a64.32,64.32,0,0,1,5-25.38,65,65,0,0,1,14-20.81,67.1,67.1,0,0,1,21-14.16,65.54,65.54,0,0,1,26.33-5.23,63,63,0,0,1,20.05,3.13,72.15,72.15,0,0,1,17.58,8.65l3.42-6.85Z"/><path class="cls-3" d="M538.47,673.08a44.7,44.7,0,0,1,16.12,2.9,41.12,41.12,0,0,1,13.4,8.3,39.21,39.21,0,0,1,9.19,13,45,45,0,0,1,0,34.2A39.07,39.07,0,0,1,568,744.45a40,40,0,0,1-13.4,8.18,46,46,0,0,1-16.18,2.85,47.39,47.39,0,0,1-16.84-2.91,39.43,39.43,0,0,1-13.4-8.3,37.86,37.86,0,0,1-8.89-13,44,44,0,0,1-3.2-17.13,41.82,41.82,0,0,1,3.2-16.54,39.19,39.19,0,0,1,8.83-13,39.72,39.72,0,0,1,13.39-8.48,46.16,46.16,0,0,1,16.9-3m0,2.13a23.49,23.49,0,0,0-12.39,3.26,28.25,28.25,0,0,0-9,8.7,41.06,41.06,0,0,0-5.45,12.55,58.37,58.37,0,0,0-1.84,14.68,60.31,60.31,0,0,0,1.84,15.15,38.84,38.84,0,0,0,5.45,12.37,27.1,27.1,0,0,0,9,8.34,24.53,24.53,0,0,0,12.39,3.08,23.55,23.55,0,0,0,11.91-3,27.72,27.72,0,0,0,9-8.23A39.18,39.18,0,0,0,565,729.73a60.58,60.58,0,0,0,0-30.54,40.71,40.71,0,0,0-5.63-12.49,27.89,27.89,0,0,0-9-8.4,23.19,23.19,0,0,0-11.91-3.08"/><path class="cls-3" d="M628.71,754.05q-8.18,0-14.46-.3t-10.55-.3q-2,0-3.44.06l-3,.12-3.79.12q-2.19.06-5.75.06v-1.19a21.15,21.15,0,0,0,3.62-.3,8.08,8.08,0,0,0,3-1.13,5.86,5.86,0,0,0,2.08-2.31,8.66,8.66,0,0,0,.77-4V683.4a8.66,8.66,0,0,0-.77-4,5.89,5.89,0,0,0-2.08-2.31,8.13,8.13,0,0,0-3-1.13,21.25,21.25,0,0,0-3.62-.3v-1.19q3.56,0,5.69.06t3.68.18q1.54.12,2.84.18t3.32.06c1.26,0,2.35,0,3.26-.06s1.88-.1,2.9-.18,2.25-.14,3.68-.18,3.32-.06,5.69-.06v1.18a21.41,21.41,0,0,0-3.62.3,8.14,8.14,0,0,0-3,1.13,5.87,5.87,0,0,0-2.07,2.31,8.63,8.63,0,0,0-.77,4V741.5a10.73,10.73,0,0,0,1.3,5.74,8.16,8.16,0,0,0,3.68,3.14,16.45,16.45,0,0,0,5.57,1.3q3.2.24,7,.24a43,43,0,0,0,7.77-.65,16.55,16.55,0,0,0,6.1-2.35,13.05,13.05,0,0,0,4.27-4.71,21.35,21.35,0,0,0,2.25-7.59h1.19l-1.19,17.19q-4.51.12-9.25.18t-9.25.06"/><path class="cls-3" d="M695.45,673.08a44.7,44.7,0,0,1,16.12,2.9,41.12,41.12,0,0,1,13.4,8.3,39.19,39.19,0,0,1,9.19,13,45,45,0,0,1,0,34.2A39,39,0,0,1,725,744.45a40,40,0,0,1-13.4,8.18,46,46,0,0,1-16.18,2.85,47.39,47.39,0,0,1-16.84-2.91,39.41,39.41,0,0,1-13.4-8.3,37.86,37.86,0,0,1-8.89-13,44,44,0,0,1-3.2-17.13,41.82,41.82,0,0,1,3.2-16.54,39.19,39.19,0,0,1,8.83-13,39.72,39.72,0,0,1,13.4-8.48,46.16,46.16,0,0,1,16.9-3m0,2.13a23.5,23.5,0,0,0-12.39,3.26,28.26,28.26,0,0,0-9,8.7,41.06,41.06,0,0,0-5.45,12.55,58.37,58.37,0,0,0-1.84,14.68,60.31,60.31,0,0,0,1.84,15.15,38.84,38.84,0,0,0,5.45,12.37,27.11,27.11,0,0,0,9,8.34,24.53,24.53,0,0,0,12.39,3.08,23.55,23.55,0,0,0,11.91-3,27.73,27.73,0,0,0,9-8.23,39.22,39.22,0,0,0,5.63-12.37,60.61,60.61,0,0,0,0-30.54,40.76,40.76,0,0,0-5.63-12.49,27.91,27.91,0,0,0-9-8.4,23.19,23.19,0,0,0-11.91-3.08"/><path class="cls-3" d="M740.42,751a8.09,8.09,0,0,0,3-1.13,5.89,5.89,0,0,0,2.08-2.31,8.68,8.68,0,0,0,.77-4V682.7l-2.61-3.32a18.14,18.14,0,0,0-3.62-3.56,8.35,8.35,0,0,0-5-1.42v-1.19q2.13,0,3.67.06l2.79.12,2.25.12c.67,0,1.44.06,2.31.06s1.46,0,2-.06l1.66-.12,1.78-.12q.95-.06,2.37-.06l49.32,60.7V682.1a8.65,8.65,0,0,0-.77-4,5.92,5.92,0,0,0-2.08-2.31,8.17,8.17,0,0,0-3-1.13,21.33,21.33,0,0,0-3.61-.3v-1.19q2.37,0,3.79.06l2.49.12,2,.12c.63,0,1.38.06,2.25.06s1.62,0,2.25-.06l2-.12,2.55-.12q1.48-.06,3.85-.06v1.19a21.28,21.28,0,0,0-3.61.3,8.14,8.14,0,0,0-3,1.13,5.88,5.88,0,0,0-2.07,2.31,8.62,8.62,0,0,0-.77,4v71.84h-2.13l-54.77-68.64v58.33a8.64,8.64,0,0,0,.77,4,5.86,5.86,0,0,0,2.08,2.31,8.07,8.07,0,0,0,3,1.13,21.21,21.21,0,0,0,3.61.3v1.18q-2.37,0-3.85-.06l-2.55-.12-2-.12q-1-.06-2.25-.06t-2.25.06l-2,.12-2.49.12q-1.42.06-3.79.06v-1.18a21.24,21.24,0,0,0,3.62-.3"/><path class="cls-3" d="M155.19,629.45q0,4.56-.09,8.75t-.1,8.36q0,4.56.29,9.5t.28,10.08h-2.28q-1.14-17.4-11.79-27.8t-29.65-10.41a33,33,0,0,0-15.49,4.18,44.82,44.82,0,0,0-14.26,12.34,66.78,66.78,0,0,0-10.36,20.12,86.86,86.86,0,0,0-4,27.52A95.16,95.16,0,0,0,70,712a68,68,0,0,0,7.51,19.74,46.63,46.63,0,0,0,13.68,15.09q8.46,6,20.81,6a48,48,0,0,0,17.11-2.95,37.33,37.33,0,0,0,13.4-8.55,40.78,40.78,0,0,0,8.84-13.4A50.55,50.55,0,0,0,155,710.42h2.28q0,5.51-.29,11.69t-.28,9.79v3.61q0,1.71.09,3.8t.19,4.94q.1,2.85.29,7h-1.9l-4.56-7.79q-1.71,1.33-4.94,3.42a55.54,55.54,0,0,1-8.08,4.18,68.19,68.19,0,0,1-11.31,3.61,64.27,64.27,0,0,1-14.63,1.52A78.31,78.31,0,0,1,85.53,752a59.06,59.06,0,0,1-20.91-12.54,56.48,56.48,0,0,1-13.78-20.62q-4.94-12.35-4.94-28.7a64.34,64.34,0,0,1,5-25.38,65,65,0,0,1,14-20.81,67.09,67.09,0,0,1,21-14.16,65.56,65.56,0,0,1,26.33-5.23,63,63,0,0,1,20.05,3.13,72.13,72.13,0,0,1,17.58,8.65l3.42-6.84Z"/><polygon class="cls-3" points="684.71 661.31 696.42 634.24 716.8 634.24 689.12 661.31 684.71 661.31"/><path class="cls-3" d="M608.7,253.18s-5.59-5.85-6.84-7.56-6-1.71-6-1.71v-16.7h0c-.89-21.3-20.3-38.32-44.13-38.32-24.1,0-43.68,17.41-44.15,39.05h0V244l-6.45.11c-3.82,12-12.66,8.61-12.66,8.61-6.84-1.09-6.84-8.61-6.84-8.61l-6.16-.11V228.74c0-22-20.12-39.85-44.95-39.85-24.24,0-44,17-44.9,38.32h0v.12c0,.47,0,.93,0,1.41a35.66,35.66,0,0,0,.38,5.11l.46,8.73h-5.48l-.84,1.6c-5,10.27-12.55,8.44-12.55,8.44-7.38-.3-10-10-10-10h-5.86l0-12.85c0-.33,0-.66,0-1s0-.77,0-1.16v-.37h0c-.87-21.3-19.84-38.32-43.12-38.32-22.4,0-40.82,15.76-42.95,35.93h0L264,237.18c-4.56,25.33-17,10.72-17,10.72v355H616.11l-.46-349.73Zm-182.41,288H330V349.89a48.14,48.14,0,0,1,96.28,0Zm108.3,0H438.31V349.89a48.14,48.14,0,0,1,96.28,0Z"/><path class="cls-3" d="M467.13,98.92l.23-6.39-9.58-4.11H409.41L398.23,92.3,398,98.69,202.47,112.84v21.45h0V154.4H659.84V134.74h.08v-21.9Zm190.13,52.89H205.08V134.29h9.67a12.53,12.53,0,0,0,24.72,0l18.36,0a12.54,12.54,0,0,0,24.64,0h13.64a12.53,12.53,0,0,0,24.73,0l18.35,0a12.54,12.54,0,0,0,24.65,0l14.55,0a12.53,12.53,0,0,0,24.73,0l18.36,0a12.54,12.54,0,0,0,24.64,0h13.64a12.53,12.53,0,0,0,24.74,0l18.35,0a12.54,12.54,0,0,0,24.65,0l14.13,0a12.54,12.54,0,0,0,24.66,0h13.62a12.53,12.53,0,0,0,24.75,0l18.33,0a12.54,12.54,0,0,0,24.67,0h9.57Z"/><path class="cls-3" d="M431.16,84.39a12,12,0,0,0,1.37-23.95v-3a4.74,4.74,0,1,0-2.51,0v3a12,12,0,0,0,1.14,24"/><polygon class="cls-3" points="246.51 180.14 246.51 184.02 615.05 184.02 615.05 180.14 644.25 163.94 221.72 163.94 246.51 180.14"/><line class="cls-3" x1="246.76" y1="184.01" x2="247.22" y2="253.05"/><rect class="cls-3" x="246.74" y="184.01" width="0.5" height="69.04" transform="translate(-1.44 1.64) rotate(-0.38)"/><line class="cls-3" x1="614.79" y1="184.01" x2="615.24" y2="253.18"/><rect class="cls-3" x="614.77" y="184" width="0.5" height="69.18" transform="translate(-1.43 4.06) rotate(-0.38)"/></g></svg>