<svg id="Capa_1" data-name="Capa 1" xmlns="http://www.w3.org/2000/svg" xmlns:xlink="http://www.w3.org/1999/xlink" viewBox="0 0 850.39 850.39"><defs><style>.cls-1{fill:none;}.cls-2{clip-path:url(#clip-path);}.cls-3{fill:#e37985;}.cls-4{fill:#ec798b;}.cls-5{fill:#ebaeb5;}.cls-6{fill:#1d1d1b;}</style><clipPath id="clip-path"><rect class="cls-1" width="850.39" height="850.39"/></clipPath></defs><title>el patio</title><g class="cls-2"><path class="cls-3" d="M744.5,269.25s.66,3.69,2.64,5.8.66,4.62-.66,7.52-6.33,4,2.77,4.78,11.74,3.39,11.87-1.62-1.58-13.58-2.9-14.24-13.71-2.24-13.71-2.24"/><path class="cls-3" d="M761.12,263.58s4.87,9.89,10.15,12.53,11.21,4.09,11.6,2.24,3.43-10.95-4.48-14.77-17.27,0-17.27,0"/><path class="cls-3" d="M778.39,243.67s-6.86.92-7,6.07,9.63,8.7,9.89,9.1,5.54,2.37,9.1,4.61,7.25,3.69,7.91,1.45-1.19-7.52-1.71-8.83-1-2,1.85-2.51,5-1.71,4.34-3.82-2.24-2-6.2-2.11-5-3-6.86-4-11.34,0-11.34,0"/><path class="cls-3" d="M748.32,243.26s5.95-7.9,12.8-4.6,7.87,5.38,7.75,7.24-13.43,11.09-17,5.29-3.56-7.93-3.56-7.93"/><path class="cls-3" d="M726.83,238.66s6.07-4.88,9.49-4.09a10.07,10.07,0,0,1,7,7c.66,2.9-14.64,5.67-14.64,5.67Z"/><path class="cls-3" d="M705.73,234.48s6.59-2.81,9.36-2.81,3.56-.66,4.09,3.43-9.63,6.86-9.63,6.86Z"/><path class="cls-3" d="M697.68,234.48s-2.64-4.66,0-6.11,7.25-5.93,7.25-.53a35,35,0,0,1-.66,7.91Z"/><path class="cls-3" d="M668.94,279.18s-2.9,9.19,2.9,12.36,9.63,4.35,11.6,1.58,3.82-1.71,4.48-7.38,7-1.06,7-1.06,2.24,4.75,9.23-.13,14.77-5,4.88-14-40.09,8.65-40.09,8.65"/><path class="cls-3" d="M719.2,266s-7.66,11.14-5.49,13.91,6,5.71,12.33,2.11,21-10.15,10.42-13.45S719.2,266,719.2,266"/><path class="cls-4" d="M599.71,357.07s-4.35,2.37-5.54,4.75-2,7.91,0,7.91,1.58,1.19,5.54-2a25,25,0,0,1,9.49-4.24l5.14,3.06,4.35,5.14s7.12,11.08,12.26,9.1,5.14-8.31,9.89-5.14,5.93,5.38,5.93,5.38-2.77,4.11,0,6.49,8.31-7.12,8.31-7.12,5.14-1.58,5.54,1.19,3.16,7.8,5.54,4.1,11.87-1.84,13.85,0,5.93,6.16,9.89,2.22,2.77-1.57,6.73-4.73,7.91-5.14,7.52-7.12-2.64-.53-4.75,0-1.84,1.58-5.27,1.85.53,4.48-4.48-2.11-5.54-7.38-7.12-9.23-3.17-3.16-4.48-.53-3.69,4.75-6.86,4-11.08.79-11.08.79a3.16,3.16,0,0,1-3.17-1.05,24.69,24.69,0,0,1-2.64-4.48s-2.37-.53-2.64,1.32-.39,5-3.09,4-4.29-3.43-3.5-7.65,2.11-10.29-.26-10.81-24.79-6.33-26.64-4.48-.26,8.18-.26,8.18-3.17,3.16-5.54,1.32-7.12-4.75-12.66,0"/><path class="cls-4" d="M531.13,321.47s-17.41,6.59-18.73,10-5.54,6.59-2.37,6.86,10.12-1.05,13.9-4.48,10.63-7.65,12.74-7.65,8.44,1.35,9.23,3.71-2.37,4.2,0,6.31,2.37,8.18,7.91,6.07,4.75-5,7.38-5.8,3.43-3.16,9.23-1.85,8.7,5.54,14.77,4.22.53,3.78,2.64,3.87,6.59,7.39,14,4.92,14.77.44,16.62-2.46,6.07-8.64-3.17-10.38-11.6-1.75-11.6-1.75.53-5-6.07-5-10.81,1.05-12.92,1.05-7.39-32.7-4.75-33.76,15.56-5,17.14-1.58-4.52,6.33-4.11,9.49,5.69,15.3,7.8,9.5,0-13.19,2.11-14.51,2.64,1.58,5.54,3.69,7.91,4,11.34,1.06,7.12-5.38,8.44-10.6,1.05-8.12,5.27-8.12,4.75,2.67,5.8,4.89,2.11,3,3.69,3,8.18,1.09,7.12-3-9.23-17.29-15.3-16.76-8.7,1.32-11.6,2.64-10.55,1.05-10.55,1.05-4.48,5.16-6.33,5.61-5-.72-6.86,0-7.91-9.83-13.45-7.46-14.24,9.11-16.88,7.46-5.8-.34-7.12-5.61-1.32-12.13-4.48-12.92-1.32-3.43-5.54,0-4.22,3.43-4.48,7.38-1.32,5.8-3.43,5.8-5.28,2.17-7.39,1.61-3.69-1.29-6.07,0-6.67,7.67-6.67,7.67-3.35,4.19,5.88,3.52,23.74-4.89,26.9-2-.26,6.33,1.06,10,2.75,4.75,2.64,9.23-29.27,15-29.27,15"/><path class="cls-5" d="M634.52,264.5s-2.11,5,.26,7.91,10,5.16,10,9.3,2.64,5.2,8.18,4.94,5.27,1.66,11.6,0,11.08-10.77,11.08-10.77,2.11,3.61,7.12,2.55,12.13-7.91,17.41-5.27,3.16,2.11,14.51-1.32,16.09-3.16,16.88.79.53,9.49,2.64,10.81,8.7-9,8.7-9,.53-3.69,6.86-1.85,12.66,3.86,15.3,3.25.53-4,0-6.94-2.9-3.69,2.11-4.48,17.67,2.11,19.25-1.85,4.22-13.71,1.32-13.71H772.45c-1.58,0-2.9-4.22-6.86-4.22s-7.91,2.9-11.08,1.58-5-7.12-9.76-6.86-8.18,3.17-10.81,2.64-4-5.8-7.12-5.8-5-1.05-9.76,0-8.7-1.85-9.76-2.37-6.33-1.58-9-1.05-10.81,7.38-10.81,7.38-3.43,2.64-7.91-.26S663,238.65,663,238.65s-6.59-2.11-9.49.79-5.31,3.17-3.32,6.59,0,5.54,0,5.54-27.54-4-21.21.26a35.45,35.45,0,0,0,14.24,5s8.44,4.22,8.7,7.65-5.54,2.64-5.54,2.64-8.18-5.54-11.87-2.64"/><path class="cls-3" d="M651.79,242.61s-2.11-8.18,2.51-9.1,5.54.79,6.2,2.24,1.19,7.5,1.19,7.5Z"/><path class="cls-3" d="M645.73,260s-4,1.18,6.86,2.63,12.4,4,12.66,0,6.2-7.12-2.11-6.33a97.24,97.24,0,0,0-17.41,3.7"/><path class="cls-5" d="M509.51,278.22s-5.54,4.22-4,10.29.79,10.29,6.86,9,11.87-3.43,16.88-2.11,7.65,5,9.23,5,3.43-1.05,2.9-2.11,2.82-3.69.09-4.75-4.58-.26-6.69-2.37-.79-6.33-3.69-6.33-7.39,1.05-9.49,1.05-4.48-.26-4.48-2.64,0-4.48-1.85-5-5.8,0-5.8,0"/><path class="cls-6" d="M318.5,483.23c2.41-2,5.12-3.78,7.16-6.13,6-7,11.82-14.19,17.7-21.32,2-2.4,4.45-3.73,7.57-2.92a7.49,7.49,0,0,1,5.79,6.23,9.05,9.05,0,0,1-.57,4.7c-1.26,3.12-3,6.05-4.31,9.14-.84,1.93-1.85,4-1.91,6-.07,2.18.2,5.35,1.57,6.33s4.85.77,6.55-.29a63.4,63.4,0,0,0,11.36-9c6.4-6.47,12.54-13.23,18.47-20.14,1.6-1.87,2.35-4.61,3.08-7.08,4.1-13.89,8.06-27.82,12.1-41.73,1.11-3.84.82-4.33-3.25-4.5-6.74-.27-13.49-.26-20.2-.81a30.53,30.53,0,0,1-10.07-2.53,6.75,6.75,0,0,1-3.35-5.07c0-1.32,2.51-3.24,4.25-3.77,2.29-.7,4.92-.39,7.4-.34,8.36.19,16.72.4,25.07.72,3.38.13,5.13-1.21,6.22-4.52,2.47-7.47,5.34-14.8,8.13-22.16,1.57-4.12,2.94-4.7,7.19-3.37,7.68,2.39,10,6.54,7.66,14.15-1.21,3.93-2.78,7.75-4.24,11.6-1.13,3-.17,4,3,4,13.11-.22,26.22-.3,39.33-.35a42.61,42.61,0,0,1,5.55.68c0,.42,0,.85,0,1.27a24.6,24.6,0,0,1-3.95,1.52c-14.41,2.93-28.8,6-43.27,8.53-3.92.69-6.22,1.92-7.5,5.84-7.74,23.61-15.82,47.11-23.46,70.76-2.6,8.06-4.32,16.42-6.28,24.68a26.4,26.4,0,0,0-.53,6.7c.12,4.58,2.86,6.25,6.67,3.61,4.17-2.89,8.39-6.06,11.61-9.92,9.34-11.21,18.45-22.64,27.08-34.39,2.46-3.34,3-8.09,4.43-12.19,1.62-4.72,3-9.52,4.89-14.14,1.71-4.22,4.9-4.88,8.24-1.72,4.25,4,5.52,9.09,3.92,14.75-2.68,9.49-5.47,18.95-8.15,28.44-.62,2.21-1,4.48-1.47,6.73l1,.68a16,16,0,0,0,3.43-2.12q14.9-15.52,29.65-31.18a5.71,5.71,0,0,0,1.4-2.6c1.56-7.37,6.37-12.69,11.44-17.67,8.93-8.76,22.81-7.73,28.38,2.15,1.64,2.91,2.16,6.6,2.59,10,.35,2.73,1.52,3.66,4,3.77,6.79.31,14.29-5.11,15.92-12.43,2.15-9.64,5.42-18.64,11.38-26.65.78-1.05.35-4.35-.67-5.15-3.67-2.89-7.52-6.16-11.85-7.45-13.42-4-25.73-9.63-35.21-20.23a78.17,78.17,0,0,1-9.45-12.5c-6.1-10.46-14.62-18.22-24.92-24.26-1.4-.82-3.21-1.49-3.93-2.75-.87-1.52-.79-3.58-1.11-5.41,1.3.29,2.79.28,3.88.93,3.68,2.21,7.22,4.65,11.45,7.43-.2-1.71-.27-2.54-.41-3.35-.33-1.88-2.26-4.07,1.26-5.09,4.77-1.37,5.88-.93,7.25,2.78A121.09,121.09,0,0,0,516,378.36c2.55,2.92,3.24,2.84,5.15-.37,7.89-13.22,10.22-27.5,7.77-42.58-.39-2.37-1.81-4.57-2.64-6.88-1.67-4.66-3.3-9.33-4.81-14-.17-.53.62-2,.93-1.95,1,0,2.49.23,2.9.91,3,5,7.15,9,8.68,15.34,2.41,10,4.62,19.86,2.94,29.94-1.39,8.3-4.11,16.4-6.65,24.46-.83,2.64-.84,4.11,1.74,5.42,9.72,4.94,19.62,9.26,30.58,10.69,6,.78,11.76-2.17,13.42-8a8,8,0,0,0-1.56-6.32c-6.6-7.7-13.19-15.32-16.52-25.17a6.22,6.22,0,0,0-2.57-3c-10.58-6.42-17-15.54-18.62-27.93-.16-1.23-.91-2.44-.82-3.62.08-1,1-1.84,1.57-2.76,1,.78,2.94,1.55,3,2.35.21,11.15,6.36,18.79,14.48,25.37,1.86,1.51,2.84.92,4.11-.94,4.12-6.08,8.42-12,12.76-17.95a8.44,8.44,0,0,1,3.42-2.84c1.25-.49,2.83-.14,4.26-.16,0,1.68.45,3.56-.18,5-.52,1.15-2.42,1.61-3.53,2.58-1.89,1.64-3.65,3.44-5.46,5.17l.69,1.7c4.16-.59,8.42-.79,12.44-1.89,3.3-.9,5.83-1.21,9.39.14,4.83,1.83,10.42,1.7,15.71,2.23,2.39.24,4.82,0,7.24,0l.28,1.32c-3,.87-5.94,2.43-8.92,2.46-4.92.05-9.85-1-14.79-1.37a28.34,28.34,0,0,0-6.84.07c-5.15.84-10.21,2.26-15.37,3s-9.23,6.79-6.73,11.53c4.63,8.74,10.08,17,17.65,23.53a6.48,6.48,0,0,0,8.3.67c8.89-5.56,17.89-11,26.53-16.87,4.16-2.85,8.54-6.13,11.2-10.27,9.61-15,5.51-26.76-10.42-35.34-10.31-5.55-20.73-10.92-31.12-16.33a6.26,6.26,0,0,0-2.76-.84c-5.6,0-11.29.85-16.79.17-14.87-1.82-30.24-2.05-43.24-11.23-1.25-.88-2.47-1.81-3.71-2.71l.45-.94c1.24.32,2.47.66,3.72,1,9.92,2.39,19.73,5.63,29.79,6.89,7.79,1,15.88-.65,23.84-.89a15.1,15.1,0,0,1,6.86,1.14c6.09,3,11.79,6.82,18,9.51,4.85,2.1,10.22,3.06,15.41,4.3.37.09,1.76-1.76,1.68-2.62-.2-2.08-1.37-4.11-1.38-6.17a5.94,5.94,0,0,1,2.15-4c1.53-1.25,3.29-.87,4.37,1.08,6.7,12.12,16.39,22.93,16.51,37.93,0,2.16,1.06,2.83,3.19,2a88.67,88.67,0,0,0,32.45-20.94c2.52-2.53,1.44-5-.14-7.42-3.17-4.92-6.41-9.79-9.48-14.78a38,38,0,0,1-2.85-6.09c-1.95-5-.11-7.47,5.31-6.8,1.05.13,2.67,2.45,2.62,3.69-.31,7.48,4,13,7.68,18.66,1.89,2.88,4.24,2.53,5.53-.78a36.8,36.8,0,0,0,2.55-18.7,103.58,103.58,0,0,1-.51-13.42c0-2.87,1.86-4.53,4.32-5.56,4-1.68,6.5-.24,6.37,4.07-.12,3.57-.87,7.12-1.33,10.67-.16,1.28-.26,2.56-.47,4.73a24.36,24.36,0,0,0,9.09-8.09A133.63,133.63,0,0,1,714.12,268c.69-.77,2.48-.54,3.76-.77.11,1.23.71,2.68.26,3.64-5.14,11-12,20.58-21.78,28a19.2,19.2,0,0,0-5.64,7.05c-9,19.89-23.28,34-43.93,41.41-3.18,1.14-5.12,2.85-5.92,6.41-1.86,8.26-5.91,15.6-12.62,20.74-4.57,3.5-10.18,5.62-15.32,8.38-14.65,7.87-27.76,17.64-38.43,30.56-7.11,8.61-12.7,17.94-14.77,29.05-1.41,7.58-3.69,14.64-10.93,18.72-5.52,3.11-11.4,5.18-17.88,4.3-5-.69-8.48.81-11,5.57-4.28,8.06-9.4,15.6-16.28,21.79-9.69,8.73-21.43,5.31-24.69-7.37-.76-3-1-6.06-1.59-10.13-1.46,1.59-2.34,2.49-3.15,3.43-5.44,6.34-10.73,12.81-16.33,19-3.51,3.88-8.3,5.75-13.23,3.78s-7.95-6.27-8.35-11.93c-.09-1.32-.3-2.63-.61-5.18-1.71,2.18-2.8,3.41-3.71,4.75-6.87,10-14.32,19.5-24.19,26.85A33.31,33.31,0,0,1,389,522.8c-7.34.36-11.78-3.49-12.45-10.9-.82-9.11,1.14-17.89,3.54-26.59.77-2.79,1.49-5.6,1.88-7.1-3.33,2.82-7.07,6.47-11.28,9.45-4.74,3.37-9.65,6.76-15,9-8.12,3.48-15.05.17-18.7-7.9-.39-.87-.88-1.7-1.54-2.95-1.47,1-2.67,1.81-3.86,2.64-4.16,2.92-8.54,5.16-13.83,5-8.17-.31-14.1-6.14-12.85-14.18,2.66-17.06,8.87-32.68,23.09-43.55,6.94-5.3,15-8.25,23.77-3.7,5.38,2.79,7.19,8.93,4.14,13.65a4,4,0,0,1-2.24,1.63c-.38.08-1.21-1.06-1.57-1.77-3.12-6.24-7.34-7.16-12.57-2a97.88,97.88,0,0,0-12,14.3,137.63,137.63,0,0,0-9.39,17c-1.06,2.17-1,4.87-1.49,7.33l1.69,1m185.81-22a65.86,65.86,0,0,0,7.75-.89c1.26-.29,3-1.29,3.33-2.36,1.31-3.92,1.87-8-.09-12-2.1-4.26-6.47-5.86-10.17-2.9-3.51,2.81-6.39,6.46-9.32,9.93-.58.69-.35,2.32-.09,3.42,1.11,4.68,4.43,5.47,8.59,4.77m-8.69,9.36c-.22.31-1.77,1.48-1.77,2.64a99.08,99.08,0,0,0,.92,14c.47,3.21,2.48,3.84,4.58,1.32,3.94-4.73,7.45-9.83,10.93-14.91,1.45-2.11.4-3.16-2.07-3.11-3.72.08-7.44,0-12.6,0"/><path class="cls-6" d="M242.46,354.53c16,.54,35.11,3.2,52.24,13.49,18.9,11.36,23.87,30.1,15.85,49.92-6.51,16.1-19.45,26-34.08,33.87-17.66,9.47-36.56,14.6-56.76,14.21-7.06-.14-14-1.13-20.3-4.4-2.55-1.32-3.63-.55-4.84,1.85a242.6,242.6,0,0,0-18,47.57c-.5,1.9-1.87,3.56-2.84,5.34-1.24-1.85-3-3.53-3.63-5.57-2.88-8.8-1.92-17.85-.66-26.75a103.78,103.78,0,0,1,9.3-31.11c2.06-4.23,1.73-4.77-3.08-5.07-21.09-1.3-37.1-20.75-33.66-41.19,2-11.77,8.6-20.86,17.67-28.26,11.45-9.35,24.85-14.72,38.95-18.45a163.83,163.83,0,0,1,43.85-5.48m-78.53,58.24c.37,12.05,7.25,19.82,16.87,25.69.64.39,2.78-.5,3.32-1.36a64.22,64.22,0,0,0,3.32-7.11c3.95-8.49,7.81-17,11.92-25.43,2.35-4.8,5.07-5.44,9.76-2.86,7.18,4,9.75,11.47,6.19,18.76-4.12,8.41-8.46,16.71-12.64,25.08-1.8,3.61-1.22,4.62,2.78,4.18,7.06-.78,14.16-1.51,21.11-2.89,16.62-3.3,32.74-8.2,46.8-18.07,9.16-6.43,17.33-14,21.72-24.65,4-9.74,1.35-18.62-6.94-24.95-7.63-5.83-16.38-8.87-25.7-10.57a106.79,106.79,0,0,0-35.76-.05c-17.06,2.65-33.43,7.14-47.56,17.66-8.92,6.64-14.89,15-15.18,26.57"/><path class="cls-6" d="M98.45,407.29c1.9,4,1.52,7.44-1.86,10-9.78,7.44-20.68,12.06-33.24,11.34-13-.74-16.19-13.77-9.55-22.52,2.44-3.22,5.93-5.63,8.77-8.58.73-.76,1.43-2.59,1-3.2-2.76-4.23-1.26-8.12,1-11.58C71.73,372,81.72,365.08,94,361.44a12.52,12.52,0,0,1,5.88.07c3.37.71,5,2.73,4.44,6.52-.64,4.56-.69,9.21-1.13,13.8a10.15,10.15,0,0,1-1.21,2.83,10.2,10.2,0,0,1-2.84-1.45c-2.9-2.94-3.1-6.64-2.65-10.48.5-4.29-.24-4.93-4.07-3.27-8.7,3.78-16.44,8.93-22.33,16.49-.88,1.12-1,2.87-1.4,4.33,1.5.3,3.17,1.17,4.47.78,5-1.49,9.85-3.45,14.81-5.1a15.55,15.55,0,0,1,3.79-.3c-.25,1.3-.06,3-.83,3.8a23.23,23.23,0,0,1-6.49,4.77,75.5,75.5,0,0,0-21.62,14.53A21.46,21.46,0,0,0,58.17,415c-2.21,4.71.3,8.22,5.39,7.47a39.16,39.16,0,0,0,10.76-3C81.87,416,89.17,412,96.57,408.14c.54-.28,1.1-.5,1.87-.85"/><path class="cls-6" d="M297.69,607.09c-5.81,3.77-11.33,6.8-18,6.57a12.42,12.42,0,0,1-11.12-17.59c3.77-8.31,10.27-13.27,19.19-15.05a5.15,5.15,0,0,1,2.57-.16c1.89.7,4.43,1.25,5.24,2.69.58,1-.81,3.73-2,5.12-4.35,5.19-10.06,8.47-16.42,10.66l-3.62,1.27c1.31,4.56,4.25,6.81,8.35,7.94,6.06,1.66,14.1-1.53,16.85-6.79,4.16-7.93,9.47-9.37,17.06-4.63.82.51,1.65,1,3.19,2-.31-4.29.16-8.28-2.87-11.12s-6.3-1.68-9.38.08c-2.42,1.38-4.73,3-7.08,4.45l-.7-.63a6.54,6.54,0,0,1,.93-2,31,31,0,0,1,15.35-8.08,7.09,7.09,0,0,1,8.39,5.7,88,88,0,0,1,1.74,13.58,8.22,8.22,0,0,1-2,5.05c-4.48,5.41-10.24,8.17-17.43,7.54-4.05-.35-6.49-2.75-8.22-6.56m-24.15-11c5.86-.51,11-2,15.08-6,2.17-2.15,1.74-3.6-1.15-4.48-5.92-1.8-12.46,3-13.93,10.47m44.52,11.11c-3.59-2.44-6.83-4.77-10.23-6.86-.87-.53-2.91-.73-3.23-.26a6,6,0,0,0-.67,3.75c.46,4.51,7.9,7.26,14.14,3.38"/><path class="cls-6" d="M458.62,583c-.54,8.92-.62,17.49,3.42,25.63,2.49-4.42,4.3-8.95,4.42-14,.08-3.24,0-6.5.34-9.73.29-3,2.07-4.89,6.1-5.82a72.92,72.92,0,0,1-.06,8.71,28,28,0,0,0,2.1,15.74c1.61,3.45,3.3,3.39,5.53.44a20.08,20.08,0,0,1,4.33-4,38.06,38.06,0,0,1,5-2.57c-2.4-2.08-4.64-3.83-6.65-5.8-2.53-2.48-2-4.87.63-7,3-2.43,6.48-2.48,9.95-1.55a67.21,67.21,0,0,1,6.9,2.64c-2.65,3.92-3.84,4.18-10.82,3.09,2.29,1.71,4.7,3.28,6.83,5.17a27.65,27.65,0,0,1,5.19,5.74c2.26,3.62,1.63,6.32-1.52,9.31-6.5,6.16-14,6.25-20.85.23-6.41,2.38-7.12,2.22-10.92-2.61-2.24,2.42-4.24,5.1-6.74,7.17-3.57,3-5.14,2.56-6.17-2a149.77,149.77,0,0,1-3.19-20.26c-.45-5.34,1.49-7.44,6.2-8.51m25.91,20.78c1.67,1.61,3,3.81,4.9,4.47,2.11.73,4.7.06,7.08,0a55.23,55.23,0,0,0-1.62-6.77,16.57,16.57,0,0,0-2.41-3.63l-8,5.93"/><path class="cls-6" d="M131.47,411.46c-5.44,8-9.73,16.75-17,23.38A6.36,6.36,0,0,1,107.1,436c-2.73-1.25-4.18-3.51-3.81-6.29,1.23-9.12,2-18.42,4.39-27.24a131.73,131.73,0,0,1,16.88-37,26.45,26.45,0,0,1,4-4.93c.86-.8,2.8-1.64,3.43-1.22a4.37,4.37,0,0,1,1.73,3.59c-1,5-1.85,10.18-3.91,14.77a115.45,115.45,0,0,1-10.13,17.86c-6.46,9.43-8.58,20.06-9.77,31a4,4,0,0,0,1.41,3.06c.44.33,2.17-.41,2.83-1.12,4.5-4.84,8.89-9.79,13.26-14.75a41.8,41.8,0,0,0,2.58-3.61l1.5,1.31"/><path class="cls-6" d="M233.36,571.39c-2.17,3.85-4.73,4.4-8.38,2.91a76.57,76.57,0,0,0-11.78-3.46c-1.27-.29-3.78.15-4,.79-.49,1.63-.65,4,.25,5.24a11.8,11.8,0,0,0,5.76,4.27c4.64,1.28,9.5,1.8,14.28,2.59s9.52,2.34,10.59,7.88a14.7,14.7,0,0,1-.89,7.9,31.69,31.69,0,0,1-16.81,17.24c-6.8,3.06-12.33.36-14.52-6.9-2.3-7.6-.4-14.28,5.18-19.87a14.68,14.68,0,0,1,3-1.83l.76.65c-.55,1-1.1,1.92-1.64,2.89-3.16,5.78-3.55,11.61-.13,17.41,2.72,4.62,7.41,6,11.24,2.39a34.94,34.94,0,0,0,7.88-11c2.18-4.87-.41-9.65-5.63-11.16-4.62-1.34-9.51-1.72-14.25-2.69-4.12-.85-8.58-1.36-10.56-5.92-2.77-6.36,3.23-14.07,11.21-14.44,6.59-.31,12.33,2.44,18.45,5.11"/><path class="cls-6" d="M394.87,613.08c-.6-3.67-1.63-7.07-1.62-10.47,0-10.1.43-20.19.74-30.29.1-3.4,2.4-4.78,5.26-5.9v21h15.66c0-3.13-.11-6.47,0-9.79a29.1,29.1,0,0,1,1-7.74c.49-1.5,2.32-2.56,3.55-3.81l1.35.44c0,3.52.11,7,0,10.55-.4,11-1,21.93-1.27,32.9-.09,3.32-1.62,4.95-5.15,6.22V592.8c-4.42-.49-8.33-.82-12.2-1.37-2.49-.36-3.95.17-3.64,3,.44,4.08.73,8.19,1.36,12.24s.1,5.09-5,6.4"/><path class="cls-6" d="M340.93,591.07c11,2.54,17.09,9.9,20.89,19.78,1.08,2.8-.21,5.95-3.1,6.17-.88.07-2.38-1.41-2.78-2.48-2.83-7.7-7.08-14-15.16-17-1.8-.65-3.72-1-6.36-1.66.63,4.3,1.18,7.83,1.64,11.37.14,1.08.43,2.55-.11,3.2a20.1,20.1,0,0,1-4,3,14.73,14.73,0,0,1-1.72-3.4c-2.58-12.17-2.51-24.46-1.76-36.82.23-3.68.23-7,4.3-8.5a5.64,5.64,0,0,1,1.22-.13v25.49c5.89-2.71,12.45-2.29,16.59-7.64a4,4,0,0,1,1.82-1.26,6.56,6.56,0,0,1,2.07,0c-.08.76.12,1.95-.29,2.22-3.46,2.34-7,4.55-10.6,6.71a13.94,13.94,0,0,1-2.7,1"/><path class="cls-6" d="M651.5,461.35c-3.81-1.67-5-3.76-5-6.86.07-8.11,0-16.22,0-24.33,0-2.31,1-5.25-3.2-4.75.29-3.45,1.88-4.65,4.71-4.59a58.67,58.67,0,0,0,8.6-.05c7.9-1,11.08,4.52,14,10.08S673,442,669.16,447.06c-2.73,3.67-7.81,4.76-13.32,3-4.27-1.35-4.35-1.29-4.35,3.24,0,2.44,0,4.88,0,8m0-25.54h0c0,2.36-.11,4.74,0,7.09a6,6,0,0,0,1.09,3.38c3.41,3.84,11.21,2.92,13.59-1.65,2.48-4.76,1.32-9.43-1.05-13.9-2.12-4-5.49-5.32-9.92-5.07-2.74.16-4.23.64-3.81,3.81a48.73,48.73,0,0,1,.05,6.34"/><path class="cls-6" d="M423.16,600c.84-3.72,1.32-7.57,2.6-11.13,2.42-6.69,9.67-10.52,15.87-8.83,4.5,1.23,8.83,9.39,7.67,15.26a25.66,25.66,0,0,1-10.2,16.41c-8.33,6.06-14.22.23-15.22-7.07a33.07,33.07,0,0,1,0-4.49l-.68-.15m5.9-3.25-.48.21c1,3.15,1.56,6.51,3,9.41,1.63,3.21,5.45,4,7.4,2.12,5.61-5.34,6-15.94.7-21.7a3.59,3.59,0,0,0-2.14-1.15c-5.23-.36-7,1.08-7.85,6.33-.27,1.59-.45,3.19-.67,4.78"/><path class="cls-6" d="M512,600.39a11.43,11.43,0,0,0,13.51,8.5c4.46-.84,8.52-2.6,11.38-6.53a7.49,7.49,0,0,1,4.5-2.56c-.15.63-.11,1.41-.48,1.86-5.94,7.29-13.32,12-23,11.92a12.38,12.38,0,0,1-11-18.11c4.13-7.87,10.47-13.39,19.61-14.46,2.28-.26,4.76,1.23,7.15,1.91-.82,2.22-1,5.32-2.58,6.5-4.93,3.67-10.38,6.65-15.69,9.81a16.66,16.66,0,0,1-3.42,1.15m-.16-4.21c5.67-.75,10.81-2,14.83-5.9a4.36,4.36,0,0,0,1.35-3.11c-.08-.64-1.61-1.36-2.59-1.62-6-1.58-12.7,3.59-13.59,10.62"/><path class="cls-6" d="M256.7,567.66l-5.53,15.85,13.53.61c-.86,3-5.18,5.26-9.63,4.67-4.29-.58-4.65-.42-4.44,4.07.26,5.54.29,11.29,5.54,15.31,3.46-2.83,2-9.35,7.85-10.08,1.38,6.06-5.81,14.48-11,14.67a6,6,0,0,1-6.1-5.14c-1.06-5.44-2.29-11.17-1.59-16.53.89-6.82,3.46-13.45,5.68-20,.58-1.71,2.57-2.93,3.92-4.37l1.78,1"/><path class="cls-6" d="M623,420.35c5.3,4.41,5.12,10,3.47,15.67-2.08,7.1-7.31,11.36-14,14-2.55,1-3.32-.61-4-2.5-2.22-6-4.43-11.92-6.71-17.85a12.89,12.89,0,0,0-1.94-3.56c-2-2.37-1.3-4.59,1.75-5.19a10.28,10.28,0,0,1,3-.11c1.67.17,3.32.49,5,.75a37.79,37.79,0,0,0-2.23,4.28A5,5,0,0,0,607,429c1.34,4,2.88,8,4.36,11.93.89,2.37,2.41,2.44,4.45,1.36,5.47-2.9,9.19-10.92,8.05-17.64-.24-1.45-.59-2.88-.88-4.32"/><path class="cls-6" d="M451.19,420.58c.56-4.42,1.68-8.12,5.63-10.32,4.26-2.38,8.89.15,9.1,5,.29,6.91-4.06,11.5-8.47,15.93-.33.33-2.7-.47-3-1.22-1.31-3-2.19-6.25-3.23-9.4"/><path class="cls-6" d="M640,421.81c-5.17,7-2.39,15-3.07,22.49-.14,1.53-.29,3.06-.46,4.92-3.2-1.37-4.62-3.2-4.57-6.21.07-4.24.06-8.49-.07-12.73a12.41,12.41,0,0,0-.91-4.28c-1.08-2.61-.13-4.8,2.62-5.1a54.85,54.85,0,0,1,5.82,0l.63,1"/><path class="cls-6" d="M491.26,338.47c-6.44-.72-11.79-8.26-11.16-15.64.1-1.17,1.78-3.08,2.61-3,2,.27,5.16.87,5.65,2.5,1.51,5,2,10.61,2.9,16.11"/><path class="cls-6" d="M634.69,416c-1.25-1.52-2.71-2.53-2.67-3.48s1.55-1.88,2.41-2.82c.93.87,2.48,1.66,2.6,2.63s-1.25,2.05-2.35,3.67"/><path class="cls-5" d="M419.84,312.76s1.9-3.43,8.47-5.27,6-5.28,8.94-5.28,2.37-2.37,7.39,0,7.91,5.54,14.5-1.05,4.48-6.86,9.23-12.13,7.38-9.23,14-6.33,10.81-1.32,11.87,4.22-1.85,12.66,1.58,13.45,7.91.79,14.51,2.64,5.54,5.8,7.38,5.54,16.88-4.75,21.36-.79-2.64,2.9,8.18,2.37,14,.26,15,2.64,7.39,5,0,6.33-1.05,1.05-12.92,0-14.51,2.9-18.2-1.06-5.8-6.59-10.81-4.48-4.48,5.54-8.7,4.22-4.22-5.8-7.38-3.43-6.86,5.64-6.86,5.64a8.69,8.69,0,0,1-8.7,2.27c-5.27-1.58-11.6-2.4-11.34.38s5.54,6.74,7.12,8.59,9.59,4.48,8.36,6.59-21.55,0-21.55,0-2.9,2.64-3.43,5-.79,6.13-2.64,4.39-6.33.63-6.33-3.6,2.37-5.8,1.05-9.5-3.16-5-6.07-4-4.48,2.9-6.59,1.85-5.27,4-6.59-2.37S437,318,434.61,318s-10.29,1.06-10.29,1.06-9.49,2.11-4.48-6.33"/></g></svg>