<svg id="Capa_1" data-name="Capa 1" xmlns="http://www.w3.org/2000/svg" xmlns:xlink="http://www.w3.org/1999/xlink" viewBox="0 0 850.39 850.39"><defs><style>.cls-1,.cls-4,.cls-5,.cls-9{fill:none;}.cls-2{clip-path:url(#clip-path);}.cls-3{fill:#030304;}.cls-4{stroke:#636362;stroke-width:18px;}.cls-4,.cls-5,.cls-9{stroke-miterlimit:10;}.cls-5,.cls-9{stroke:#fff;}.cls-5{stroke-width:13px;}.cls-6{fill:#fff;}.cls-7{fill:#f3e73a;}.cls-8{clip-path:url(#clip-path-2);}.cls-9{stroke-width:0.5px;}</style><clipPath id="clip-path"><rect class="cls-1" x="-22" y="36" width="850.39" height="850.39"/></clipPath><clipPath id="clip-path-2"><rect class="cls-1" x="31" y="36" width="797.39" height="769.39"/></clipPath></defs><title>ledezma</title><g class="cls-2"><path class="cls-3" d="M764.56,427.57c0,133.55-153,241.81-341.75,241.81S81.07,561.12,81.07,427.57s153-241.81,341.75-241.81S764.56,294,764.56,427.57"/><ellipse class="cls-4" cx="423.42" cy="427.49" rx="300.26" ry="204.19"/><ellipse class="cls-5" cx="422.82" cy="427.53" rx="310.16" ry="212.03"/><path class="cls-6" d="M252,313.84s49.52-37.29,137.35-43.41,158.77,17,203.5,46.32,85.8,86.53,56.52,153.82c0,0-10.05,29.28-36.71,47.2,0,0,43.26-22.27,58.12-83.9s-51.57-119.74-83.47-136.35S412.22,213,252,313.84"/><path class="cls-7" d="M431.65,583.22c-128.92,2.46-236.37-58.8-252.49-140.05.75.6,1.28,1,1.28,1,36.49,10.16,56.81-13.33,56.81-13.33,9.63,11.63,37.55,32.33,46.66,39l3.81,2.34c91.11,55.93,143.55,63.58,143.55,63.58s53.31,8.19,75.93-3.71a129.23,129.23,0,0,0,36.38-28.73c2.4-6.55-.77-5.46-1.86-5.46s-5.28,3.82-5.28,3.82c-13.21,11.49-77.68,52.42-154.32,3.6,0-.06,15-23.13,36.92-36.08s33.36-20.54,33.36-20.54-1.46,9.76-30.74,40.2c-12.16,12.64-21.72,19-28.76,22.06l4,.23c63.51-29.28,64.53-68.68,64.53-68.68l2-1.09c8.38-4.3,33.9-26.22,33.9-26.22,2.73-1.2-1,3.82-1,3.82l-14.2,19.77c-1.2,6.34,8.08,3,8.08,3,10.49-11.91,35.61-27.42,35.61-27.42,3.39-1.53,2,2.84,2,2.84L518.79,427s-9.18,11.25-7.65,14.86,8.63-.55,8.63-.55c20.32-17.92,33.5-25.86,35.69-26.95s1.31,2,1.31,2-12.09,13.77-15,20.61,8.74,6.55,8.74,6.55c7.43.73,19.23-11.14,19.23-11.14-1.82,7.43-1.09,11.07,8.6,11s16.22-7.88,16.22-7.88a6.46,6.46,0,0,0,1.58,7.1c3.33,3.22,10.22-.44,10.22-.44,4-.82,20-13.64,21.25-16.48s-.84-1.82-.84-1.82-5.39,4.37-13.84,10.78-8.3,2.77-8.3,2.77c-.44-5.83,5.54-10.63,5.54-10.63s10.49-10.2,11.94-13.4-.58-2.62-4.37-2.91-8.16,4.52-8.16,4.52c.58-7.28-10.05-4.52-10.05-4.52-20.25,4.37-29.13,17-29.13,17l-9,7.14s-8,5.68-8.74,3.06,4.66-9,4.66-9,12.82-11.95,8.59-16.9-13.69.73-13.69.73L526.69,430.8s4.66-6.41,9.18-12.09,1-11.8-9.18-7.72-28.26,19.81-28.26,19.81c10.78-13.26,11.95-18.64,5.68-20.25s-13.11,5-13.11,5c-17.48,18.06-29.72,23.74-29.72,23.74-2.62-7-10.49-6-10.49-6s17.48-7.72,21.85-11.94,6.12-7.28,5.83-9.76-4.81-.44-4.81-.44c-9.18,4.08-16.61,2.77-18.21,1.17s3.06-3.93,3.06-3.93,3.93-2.19-3.79-2.48-7.72,8.89-7.72,8.89l-1.46,1.17c-22.72,24.33-34.09,24.91-37.14,23s-.58-6.85-.58-6.85c15.44-1.89,22.29-9.76,26.36-14.86s-.44-8.74-11.22-6.7-18.5,10.78-30.74,20.25-13,7.28-13,7.28c-2.48-2.33,6.26-13.4,6.26-13.4s51.27-59.14,52.15-61.47-5.24-1.46-5.24-1.46c-14.86,4.08-48.94,53.9-48.94,53.9s2.48-5.54-9.49-5.57S348.4,424.4,347.52,425s-3.35,2.46-13.69,9.75-16.31,5.24-16.61,3.5a24.29,24.29,0,0,1,.44-5.68c16.61-3.06,23.89-11.8,23.89-11.8s8.88-11.36-5.83-10.63-30.08,16.26-29.42,16.61c1,.51,5.35-.95,5.35-.95s-13,10.71,1.09,17.37,31.79-12.35,31.79-12.35c-4.81,10.38,4.92,12.67,4.92,12.67A20.53,20.53,0,0,0,369,434.74s-4,10.49,6.77,9.18,24-16.28,24-16.28c-7.21,8-3.39,23.16,16.72,14.53a78.64,78.64,0,0,0,31.21-25s3.57,2.7,11,2.4a42,42,0,0,0,14-3.28c-7.21,8.23-27.31,17.12-27.31,17.12s-11.94,6.12-11.94,8.89,3.06,1.89,3.06,1.89,2-5.68,10.78-7.87,6.48,8.24,6.48,8.24l-40.64,25.56c-22.5,14.15-31.3,27.76-34.08,33.06l-.22-.14c-78.08-52.15-131.32-79.32-131.32-79.32l.51-.63c27.68-22.7,47-51.74,47-51.74s18.94,2.77,35.69.29,33.36-9.32,45.16-17.63,17.33-22.87,2.48-34.52-47.78.58-47.78.58c-24.91-17.19-42.1-14.86-56.67-13.55s-27.31,9.32-31.14,15.44-6.66,20.43,2.08,30.37,27.6,15.73,27.6,15.73l.8.73v.58s-12.67,17-19.66,29.5-18.14,22.51-18.14,22.51c-33.68-5.55-51.38,6.06-57.89,11.49-.3-2.94-.48-5.9-.54-8.88-1.73-90.57,109.45-166.14,248.32-168.78,97.29-1.86,182.36,32.58,225.17,84.5-43.59-54.62-131.35-91-231.81-89C276.38,253.42,162.42,331.91,164.22,426s118.66,168.2,261,165.48c136.56-2.61,247-74.93,254.16-163.88-8.67,84.61-115.69,153.08-247.76,155.6M589.56,422.91c7-6.69,14.09-10.6,15.89-8.72s-2.39,8.82-9.37,15.52-14.09,10.6-15.89,8.72,2.39-8.82,9.37-15.52m-166.64-8.2c4.88-.8,2.26,3.86,2.26,3.86s-3.57,5.9-15.08,9c-.35.1,7.94-12.09,12.82-12.89m-89.6,0c4.88-.8,2.26,3.86,2.26,3.86s-3.57,5.9-15.08,9c-.35.1,7.94-12.09,12.82-12.89m36.47,14.65c-7,6.69-14.09,10.6-15.89,8.72s2.39-8.82,9.37-15.52,14.09-10.6,15.89-8.72-2.39,8.82-9.37,15.51m-40-97.54s8.74,9.94,9.83,17.48c0,0,3.06,1.75,4.37-1.26,0,0,1.42-13.05-5.68-19.94,0,0,13.66-8.85,25.67-5.57s11.25,12.34,7.87,18.24-13,14.31-26.55,19.56-34.52,5.24-45.67,3.93c0,0,21.09-26.33,30.15-32.45m-65.15,25.56C241.19,348.94,246,332.77,246,332.77c2.91-12.67,21.56-17.48,21.56-17.48,37.87-6.26,53.9,9.76,53.9,9.76-20,8.12-43,36.71-43,36.71Zm-71.23,78.94s4.08-6.55,17-8h16.46c.87,0-8.88,9.32-22,10.78s-11.51-2.78-11.51-2.78"/></g><g class="cls-8"><path class="cls-9" d="M469.57,466.71l-.39.77a8.12,8.12,0,0,0-2-1,7.12,7.12,0,0,0-2.26-.36,7.4,7.4,0,0,0-3,.59,7.57,7.57,0,0,0-2.37,1.6,7.36,7.36,0,0,0-1.58,2.35,7.27,7.27,0,0,0-.57,2.87,8.66,8.66,0,0,0,.56,3.24,6.36,6.36,0,0,0,1.55,2.33,6.65,6.65,0,0,0,2.36,1.42,8.83,8.83,0,0,0,3,.48,7.27,7.27,0,0,0,1.65-.17,7.61,7.61,0,0,0,1.28-.41,6.3,6.3,0,0,0,.91-.47q.36-.24.56-.39l.51.88H470c0-.32,0-.58,0-.79s0-.4,0-.56,0-.3,0-.43v-.41c0-.27,0-.64,0-1.1s0-.9,0-1.32h-.26a5.69,5.69,0,0,1-.41,2,4.6,4.6,0,0,1-1,1.51,4.22,4.22,0,0,1-1.51,1,5.43,5.43,0,0,1-1.93.33,4,4,0,0,1-2.35-.68,5.28,5.28,0,0,1-1.55-1.7,7.68,7.68,0,0,1-.85-2.23,10.71,10.71,0,0,1-.26-2.25,9.78,9.78,0,0,1,.45-3.11,7.52,7.52,0,0,1,1.17-2.27,5,5,0,0,1,1.61-1.39,3.72,3.72,0,0,1,1.75-.47,4.3,4.3,0,0,1,4.68,4.31h.26q0-.58,0-1.14t0-1.07c0-.32,0-.63,0-.95s0-.64,0-1Z"/><path class="cls-9" d="M477.68,479.2a3.84,3.84,0,0,1-1,.74,3,3,0,0,1-1.4.33,1.22,1.22,0,0,1-.62-.15,1.34,1.34,0,0,1-.43-.4,1.82,1.82,0,0,1-.26-.55,2.24,2.24,0,0,1,.2-1.72,2.82,2.82,0,0,1,.91-1,7.41,7.41,0,0,1,1.26-.68q.73-.31,1.35-.63Zm-.8-7.38a1.54,1.54,0,0,1,.57.61,2,2,0,0,1,.2.72c0,.24,0,.44,0,.58v.9a.26.26,0,0,1-.13.2,2.72,2.72,0,0,1-.33.2l-.46.22-.49.23q-.82.36-1.63.7a8.26,8.26,0,0,0-1.46.76,3.48,3.48,0,0,0-.79.72,1.76,1.76,0,0,0-.39,1.17,2.22,2.22,0,0,0,.19,1,1.91,1.91,0,0,0,.51.68,2.1,2.1,0,0,0,.74.4,3,3,0,0,0,.89.13,4.2,4.2,0,0,0,1.82-.39,7.44,7.44,0,0,0,1.57-1,1.77,1.77,0,0,0,.54,1,1.47,1.47,0,0,0,1.05.41,1.49,1.49,0,0,0,.7-.16,2.45,2.45,0,0,0,.54-.36,2.35,2.35,0,0,0,.37-.41,1.88,1.88,0,0,0,.18-.31l-.19-.08a2.25,2.25,0,0,1-.28.35.56.56,0,0,1-.43.18.54.54,0,0,1-.4-.14.84.84,0,0,1-.2-.33,1.85,1.85,0,0,1-.09-.41,3.73,3.73,0,0,1,0-.39v-4.7a3.36,3.36,0,0,0-.28-1.46,2.34,2.34,0,0,0-.76-.92,3,3,0,0,0-1.14-.48,6.64,6.64,0,0,0-1.38-.14,8.12,8.12,0,0,0-1.08.09,6,6,0,0,0-1.21.29,3.27,3.27,0,0,0-1,.54,1,1,0,0,0-.41.83.87.87,0,0,0,.26.71.8.8,0,0,0,.51.21.67.67,0,0,0,.56-.25.81.81,0,0,0,.19-.5,1.54,1.54,0,0,0-.07-.52,1.11,1.11,0,0,1-.08-.25.45.45,0,0,1,.26-.37,2.25,2.25,0,0,1,.61-.26,4.82,4.82,0,0,1,.72-.14,5.39,5.39,0,0,1,.58,0A2,2,0,0,1,476.87,471.82Z"/><path class="cls-9" d="M485.23,479.33v-4.63a3.14,3.14,0,0,1,.18-1,3.94,3.94,0,0,1,.49-1,3.1,3.1,0,0,1,.72-.75,1.42,1.42,0,0,1,.86-.3.69.69,0,0,1,.43.13.57.57,0,0,1,.09.23,2.49,2.49,0,0,0,.14.41,1.19,1.19,0,0,0,.28.4.67.67,0,0,0,.48.17.66.66,0,0,0,.54-.2.76.76,0,0,0,.17-.51.93.93,0,0,0-.15-.54,1.16,1.16,0,0,0-.37-.34,1.65,1.65,0,0,0-.49-.18,2.46,2.46,0,0,0-.48-.05,2.69,2.69,0,0,0-1.75.62,4.48,4.48,0,0,0-1.23,1.67c0-.37,0-.77-.1-1.19a7.66,7.66,0,0,0-.2-1.11,11.57,11.57,0,0,1-1.38.5,8.61,8.61,0,0,1-1.45.29v.21a2,2,0,0,1,1,.24c.27.16.41.52.41,1.07v5.86a1.66,1.66,0,0,1-.11.67.84.84,0,0,1-.3.37,1,1,0,0,1-.45.16,4.57,4.57,0,0,1-.58,0v.21h.84l.56,0,.44,0h1l.45,0,.56,0h.84v-.21a4.58,4.58,0,0,1-.58,0,1,1,0,0,1-.45-.16.85.85,0,0,1-.3-.37A1.64,1.64,0,0,1,485.23,479.33Z"/><path class="cls-9" d="M493.9,479.33v-4.63a3.14,3.14,0,0,1,.18-1,3.94,3.94,0,0,1,.49-1,3.11,3.11,0,0,1,.72-.75,1.42,1.42,0,0,1,.86-.3.69.69,0,0,1,.43.13.57.57,0,0,1,.09.23,2.49,2.49,0,0,0,.14.41,1.19,1.19,0,0,0,.28.4.67.67,0,0,0,.48.17.66.66,0,0,0,.54-.2.76.76,0,0,0,.17-.51.93.93,0,0,0-.15-.54,1.16,1.16,0,0,0-.37-.34,1.65,1.65,0,0,0-.49-.18,2.46,2.46,0,0,0-.48-.05,2.69,2.69,0,0,0-1.75.62,4.48,4.48,0,0,0-1.23,1.67c0-.37,0-.77-.1-1.19a7.65,7.65,0,0,0-.2-1.11,11.57,11.57,0,0,1-1.38.5,8.61,8.61,0,0,1-1.45.29v.21a2,2,0,0,1,1,.24c.27.16.41.52.41,1.07v5.86a1.66,1.66,0,0,1-.11.67.84.84,0,0,1-.3.37,1,1,0,0,1-.45.16,4.57,4.57,0,0,1-.58,0v.21h.84l.56,0,.44,0h1l.45,0,.56,0h.84v-.21a4.58,4.58,0,0,1-.58,0,1,1,0,0,1-.45-.16.85.85,0,0,1-.3-.37A1.64,1.64,0,0,1,493.9,479.33Z"/><path class="cls-9" d="M508.63,474.11a4.68,4.68,0,0,0-2.64-2.53,5.25,5.25,0,0,0-1.9-.34,5.62,5.62,0,0,0-2,.34,4.56,4.56,0,0,0-2.66,2.53,5.09,5.09,0,0,0-.39,2,4.93,4.93,0,0,0,.39,2,4.74,4.74,0,0,0,1.06,1.55,5,5,0,0,0,1.59,1,5.37,5.37,0,0,0,3.95,0,4.66,4.66,0,0,0,2.6-2.58,5.09,5.09,0,0,0,.38-2A4.89,4.89,0,0,0,508.63,474.11Zm-3.24-2.18a3,3,0,0,1,.9,1,5,5,0,0,1,.53,1.44,8.47,8.47,0,0,1,.17,1.72,9.16,9.16,0,0,1-.16,1.73,5.22,5.22,0,0,1-.5,1.48,2.85,2.85,0,0,1-.9,1,2.49,2.49,0,0,1-2.66,0,3.18,3.18,0,0,1-.93-1,4.69,4.69,0,0,1-.55-1.47,8.56,8.56,0,0,1-.17-1.73,8.07,8.07,0,0,1,.18-1.73,4.93,4.93,0,0,1,.55-1.46,3,3,0,0,1,.92-1,2.33,2.33,0,0,1,1.33-.37A2.24,2.24,0,0,1,505.39,471.94Z"/><path class="cls-9" d="M511.1,478.33a4.24,4.24,0,0,0,1,1.47,4.19,4.19,0,0,0,1.44.91,4.91,4.91,0,0,0,1.76.31,4.58,4.58,0,0,0,1.87-.4,4.27,4.27,0,0,0,1.59-1.23l-.15-.15a3.92,3.92,0,0,1-.43.42,4.34,4.34,0,0,1-.59.42,3.14,3.14,0,0,1-.76.32,3.41,3.41,0,0,1-.94.12,2.67,2.67,0,0,1-2.26-1.15,5.27,5.27,0,0,1-.85-3.18,8.41,8.41,0,0,1,.16-1.64,5.17,5.17,0,0,1,.52-1.49,3.1,3.1,0,0,1,1-1.08,2.48,2.48,0,0,1,1.45-.41,2.62,2.62,0,0,1,.4,0,1.75,1.75,0,0,1,.39.11,1,1,0,0,1,.3.18.32.32,0,0,1,.12.24s0,.07,0,.18a1.74,1.74,0,0,0,0,.33.89.89,0,0,0,.21.62.68.68,0,0,0,.52.24.66.66,0,0,0,.58-.25.94.94,0,0,0,.17-.55,1,1,0,0,0-.31-.76,2.09,2.09,0,0,0-.73-.44,4,4,0,0,0-.87-.2,6.25,6.25,0,0,0-.71-.05,5.17,5.17,0,0,0-2,.38,5.06,5.06,0,0,0-1.61,1.06,4.8,4.8,0,0,0-1.07,1.61,5.2,5.2,0,0,0-.39,2A5.3,5.3,0,0,0,511.1,478.33Z"/><path class="cls-9" d="M522.18,474.67q.09-.45.23-1a3.72,3.72,0,0,1,.43-1,2.51,2.51,0,0,1,.76-.78,2.15,2.15,0,0,1,1.2-.31,1.88,1.88,0,0,1,1.05.27,2,2,0,0,1,.64.68,2.91,2.91,0,0,1,.33.89,4.58,4.58,0,0,1,.1.89.3.3,0,0,1-.34.34Zm6,4.48-.45.44a3.46,3.46,0,0,1-.61.45,3.83,3.83,0,0,1-.8.35,3.41,3.41,0,0,1-1,.14,2.88,2.88,0,0,1-2.34-1.1,4.88,4.88,0,0,1-.9-3.17q0-.3,0-.63c0-.22,0-.43.06-.64h6.5a.11.11,0,0,0,.12-.11c0-.07,0-.15,0-.24a3.13,3.13,0,0,0-.39-1.35,3.77,3.77,0,0,0-2.09-1.77,4.33,4.33,0,0,0-1.45-.25,4.6,4.6,0,0,0-1.91.4,4.86,4.86,0,0,0-1.53,1.08,5,5,0,0,0-1,1.59,5.1,5.1,0,0,0-.36,1.93,4.82,4.82,0,0,0,.41,2,4.58,4.58,0,0,0,1.06,1.49,4.45,4.45,0,0,0,1.5.91,5,5,0,0,0,1.75.31,4.5,4.5,0,0,0,1.24-.16,4.57,4.57,0,0,0,1-.42,4.46,4.46,0,0,0,.78-.56,6.22,6.22,0,0,0,.57-.58Z"/><path class="cls-9" d="M533.49,479.33v-4.63a3.14,3.14,0,0,1,.18-1,3.94,3.94,0,0,1,.49-1,3.11,3.11,0,0,1,.72-.75,1.42,1.42,0,0,1,.86-.3.69.69,0,0,1,.43.13.57.57,0,0,1,.09.23,2.49,2.49,0,0,0,.14.41,1.19,1.19,0,0,0,.28.4.67.67,0,0,0,.48.17.66.66,0,0,0,.54-.2.76.76,0,0,0,.17-.51.93.93,0,0,0-.15-.54,1.16,1.16,0,0,0-.37-.34,1.65,1.65,0,0,0-.49-.18,2.46,2.46,0,0,0-.48-.05,2.69,2.69,0,0,0-1.75.62,4.48,4.48,0,0,0-1.23,1.67c0-.37,0-.77-.1-1.19a7.65,7.65,0,0,0-.2-1.11,11.57,11.57,0,0,1-1.38.5,8.61,8.61,0,0,1-1.45.29v.21a2,2,0,0,1,1,.24c.27.16.41.52.41,1.07v5.86a1.66,1.66,0,0,1-.11.67.84.84,0,0,1-.3.37,1,1,0,0,1-.45.16,4.57,4.57,0,0,1-.58,0v.21h.84l.56,0,.44,0h1l.45,0,.56,0h.84v-.21a4.58,4.58,0,0,1-.58,0,1,1,0,0,1-.45-.16.85.85,0,0,1-.3-.37A1.64,1.64,0,0,1,533.49,479.33Z"/><path class="cls-9" d="M539.64,469.72h.3l3.2-2a5.26,5.26,0,0,0,.59-.44.84.84,0,0,0,.29-.67.64.64,0,0,0-.64-.62.8.8,0,0,0-.42.11,1.65,1.65,0,0,0-.38.32Zm2.68,1.33q-.69.24-1.45.44a20,20,0,0,1-2,.4v.21l.64-.06h.17q.56,0,.66.41a5.61,5.61,0,0,1,.1,1.2v5.26c0,.29,0,.53,0,.72a.86.86,0,0,1-.62.8,2.91,2.91,0,0,1-.84.13v.21h.84l.57,0,.47,0h1.06l.46,0,.57,0h.84v-.21a2.85,2.85,0,0,1-.85-.13.87.87,0,0,1-.61-.8c0-.19,0-.43,0-.72Z"/><path class="cls-9" d="M551,479.2a3.84,3.84,0,0,1-1,.74,3,3,0,0,1-1.4.33,1.22,1.22,0,0,1-.62-.15,1.34,1.34,0,0,1-.43-.4,1.82,1.82,0,0,1-.26-.55,2.24,2.24,0,0,1,.2-1.72,2.82,2.82,0,0,1,.91-1,7.41,7.41,0,0,1,1.26-.68q.73-.31,1.35-.63Zm-.8-7.38a1.54,1.54,0,0,1,.57.61,2,2,0,0,1,.2.72c0,.24,0,.44,0,.58v.9a.26.26,0,0,1-.13.2,2.72,2.72,0,0,1-.33.2l-.46.22-.49.23q-.82.36-1.63.7a8.26,8.26,0,0,0-1.46.76,3.48,3.48,0,0,0-.79.72,1.76,1.76,0,0,0-.39,1.17,2.22,2.22,0,0,0,.19,1,1.91,1.91,0,0,0,.51.68,2.1,2.1,0,0,0,.74.4,3,3,0,0,0,.89.13,4.2,4.2,0,0,0,1.82-.39,7.44,7.44,0,0,0,1.57-1,1.77,1.77,0,0,0,.54,1,1.47,1.47,0,0,0,1.05.41,1.49,1.49,0,0,0,.7-.16,2.45,2.45,0,0,0,.54-.36,2.35,2.35,0,0,0,.37-.41,1.89,1.89,0,0,0,.18-.31l-.19-.08a2.25,2.25,0,0,1-.28.35.56.56,0,0,1-.43.18.54.54,0,0,1-.4-.14.84.84,0,0,1-.2-.33,1.85,1.85,0,0,1-.09-.41,3.73,3.73,0,0,1,0-.39v-4.7a3.36,3.36,0,0,0-.28-1.46,2.34,2.34,0,0,0-.76-.92,3,3,0,0,0-1.14-.48,6.64,6.64,0,0,0-1.38-.14,8.12,8.12,0,0,0-1.08.09,6,6,0,0,0-1.21.29,3.27,3.27,0,0,0-1,.54,1,1,0,0,0-.41.83.87.87,0,0,0,.26.71.8.8,0,0,0,.51.21.67.67,0,0,0,.56-.25.81.81,0,0,0,.19-.5,1.54,1.54,0,0,0-.07-.52,1.12,1.12,0,0,1-.08-.25.45.45,0,0,1,.26-.37,2.25,2.25,0,0,1,.61-.26,4.82,4.82,0,0,1,.72-.14,5.39,5.39,0,0,1,.58,0A2,2,0,0,1,550.17,471.82Z"/><path class="cls-9" d="M562.67,484a2.48,2.48,0,0,1-.56.86,1.9,1.9,0,0,1-.39.28,2.28,2.28,0,0,0-.77.35.68.68,0,0,0-.3.57.49.49,0,0,0,.16.41.61.61,0,0,0,.4.13.78.78,0,0,0,.53-.26,3.34,3.34,0,0,0,.49-.61,6.57,6.57,0,0,0,.41-.75l.29-.65,4.78-11.07a5.3,5.3,0,0,1,.63-1.15,1.12,1.12,0,0,1,.89-.42v-.21h-.48l-.32,0-.27,0h-.61l-.29,0-.34,0h-.52v.21a1.54,1.54,0,0,1,.77.21.75.75,0,0,1,.3.69,1.69,1.69,0,0,1-.15.62L565,478.49,562.77,473a1.43,1.43,0,0,1-.11-.51c0-.36.11-.58.34-.68a1.92,1.92,0,0,1,.73-.14v-.21H563l-.52,0-.43,0h-.93l-.41,0-.51,0h-.76v.21a1.07,1.07,0,0,1,.56.14,1.44,1.44,0,0,1,.42.39,3.35,3.35,0,0,1,.34.6l.33.76,3,7.06Z"/><path class="cls-9" d="M578.78,467.52a.68.68,0,0,1,.12-.42.7.7,0,0,1,.3-.23,1.73,1.73,0,0,1,.41-.11,3.17,3.17,0,0,1,.44,0,3,3,0,0,1,2.31.89,3.47,3.47,0,0,1,.83,2.46,3.86,3.86,0,0,1-.84,2.77,3.25,3.25,0,0,1-2.42.85l-.55,0-.59-.07Zm-3.9,13.24h1l.66,0,.52,0h1.19l.53,0,.67,0h1v-.21a3.73,3.73,0,0,1-.65-.05,1.46,1.46,0,0,1-.55-.2,1.06,1.06,0,0,1-.37-.42,1.55,1.55,0,0,1-.14-.72V474l.78.07.8,0a6.54,6.54,0,0,0,3.85-1A3.61,3.61,0,0,0,585.6,470a3.06,3.06,0,0,0-1.33-2.67,6.83,6.83,0,0,0-3.92-.93c-.46,0-.93,0-1.41.05s-.89.05-1.23.05h-2.83v.21a3.82,3.82,0,0,1,.65.05,1.48,1.48,0,0,1,.55.2,1.09,1.09,0,0,1,.38.42,1.57,1.57,0,0,1,.14.72v11.14a1.56,1.56,0,0,1-.14.72,1.07,1.07,0,0,1-.38.42,1.46,1.46,0,0,1-.55.2,3.72,3.72,0,0,1-.65.05Z"/><path class="cls-9" d="M588.35,467.14a1.19,1.19,0,1,0,.84-.34A1.14,1.14,0,0,0,588.35,467.14Zm.21,12.19a1.64,1.64,0,0,1-.11.67.85.85,0,0,1-.3.37,1,1,0,0,1-.45.16,4.58,4.58,0,0,1-.58,0v.21H588l.56,0,.44,0h1l.45,0,.56,0h.84v-.21a4.57,4.57,0,0,1-.58,0,1,1,0,0,1-.45-.16.84.84,0,0,1-.3-.37,1.64,1.64,0,0,1-.11-.67v-8.11a13,13,0,0,1-1.62.49,11,11,0,0,1-1.62.26v.21a4.58,4.58,0,0,1,.58,0,1,1,0,0,1,.45.16.84.84,0,0,1,.3.38,1.65,1.65,0,0,1,.11.65Z"/><path class="cls-9" d="M594.51,473.39v5.94a1.66,1.66,0,0,1-.11.66.85.85,0,0,1-.3.37,1.05,1.05,0,0,1-.45.16,4.79,4.79,0,0,1-.58,0v.21h.84l.56,0,.44,0h1l.45,0,.56,0h.84v-.21a4.78,4.78,0,0,1-.58,0,1,1,0,0,1-.45-.16.84.84,0,0,1-.3-.37,1.65,1.65,0,0,1-.11-.67v-4.84a2.38,2.38,0,0,1,.23-1,3.14,3.14,0,0,1,.62-.88A3,3,0,0,1,598,472a2.36,2.36,0,0,1,1-.23,1.39,1.39,0,0,1,1,.37,2.23,2.23,0,0,1,.54.87,4,4,0,0,1,.2,1c0,.33,0,.58,0,.75v4.6a1.67,1.67,0,0,1-.11.67.86.86,0,0,1-.3.37,1,1,0,0,1-.45.16,4.81,4.81,0,0,1-.58,0v.21h.84l.56,0,.44,0h1l.45,0,.56,0h.84v-.21a4.8,4.8,0,0,1-.58,0,1,1,0,0,1-.45-.16.85.85,0,0,1-.3-.37,1.66,1.66,0,0,1-.11-.66v-4.51a10.47,10.47,0,0,0-.07-1.08,3.12,3.12,0,0,0-.36-1.17,2.58,2.58,0,0,0-.9-.95,3,3,0,0,0-1.65-.39,4.07,4.07,0,0,0-2.07.53,3.64,3.64,0,0,0-1.41,1.43c0-.24,0-.55-.1-.93s-.11-.75-.18-1.1a11.39,11.39,0,0,1-1.38.5,8.74,8.74,0,0,1-1.45.29v.21a4.58,4.58,0,0,1,.58,0,1,1,0,0,1,.45.16.84.84,0,0,1,.3.38A1.67,1.67,0,0,1,594.51,473.39Z"/><path class="cls-9" d="M610.52,480.6a3.22,3.22,0,0,0,.87-.91l-.17-.13a2.41,2.41,0,0,1-.59.6,1.61,1.61,0,0,1-1,.25,1.16,1.16,0,0,1-.77-.23,1.42,1.42,0,0,1-.42-.62,3.12,3.12,0,0,1-.17-.86q0-.48,0-1V471.9h2.23v-.32h-2.23V469H608a4.89,4.89,0,0,1-1.12,1.65,4.55,4.55,0,0,1-1.66,1.07v.21h1.22v6.39a4.55,4.55,0,0,0,.12,1.05,2.27,2.27,0,0,0,.41.87,1.94,1.94,0,0,0,.78.59A3.13,3.13,0,0,0,609,481,2.46,2.46,0,0,0,610.52,480.6Z"/><path class="cls-9" d="M619.78,472.92V478a2.16,2.16,0,0,1-.24,1,2.68,2.68,0,0,1-.62.79,2.84,2.84,0,0,1-.89.52,3,3,0,0,1-1,.18,1.5,1.5,0,0,1-1.05-.33,2.1,2.1,0,0,1-.55-.8,3.08,3.08,0,0,1-.22-.93c0-.32,0-.57,0-.75v-6.24h-.39l-.27,0-.23,0h-.75l-.41,0-.48,0h-.72v.21a4.62,4.62,0,0,1,.58,0,1,1,0,0,1,.45.16.85.85,0,0,1,.3.38,1.68,1.68,0,0,1,.11.65v5a3,3,0,0,0,.87,2.37,3.28,3.28,0,0,0,2.2.74,5.13,5.13,0,0,0,2-.38,3,3,0,0,0,1.44-1.17,8.44,8.44,0,0,0,.36,1.44l.71-.19.78-.2.77-.17.66-.14V480a1.6,1.6,0,0,1-1.14-.36,2,2,0,0,1-.39-1.42v-6.74h-.39l-.28,0-.25,0H620l-.38,0-.49,0h-.74v.21a4.59,4.59,0,0,1,.58,0,1,1,0,0,1,.45.16.84.84,0,0,1,.3.38A1.68,1.68,0,0,1,619.78,472.92Z"/><path class="cls-9" d="M627.57,479.33v-4.63a3.14,3.14,0,0,1,.18-1,3.94,3.94,0,0,1,.49-1,3.11,3.11,0,0,1,.72-.75,1.42,1.42,0,0,1,.86-.3.69.69,0,0,1,.43.13.57.57,0,0,1,.09.23,2.49,2.49,0,0,0,.14.41,1.19,1.19,0,0,0,.28.4.67.67,0,0,0,.48.17.66.66,0,0,0,.54-.2.76.76,0,0,0,.17-.51.93.93,0,0,0-.15-.54,1.16,1.16,0,0,0-.37-.34,1.65,1.65,0,0,0-.49-.18,2.46,2.46,0,0,0-.48-.05,2.69,2.69,0,0,0-1.75.62,4.48,4.48,0,0,0-1.23,1.67c0-.37,0-.77-.1-1.19a7.65,7.65,0,0,0-.2-1.11,11.57,11.57,0,0,1-1.38.5,8.61,8.61,0,0,1-1.45.29v.21a2,2,0,0,1,1,.24c.27.16.41.52.41,1.07v5.86a1.66,1.66,0,0,1-.11.67.84.84,0,0,1-.3.37,1,1,0,0,1-.45.16,4.57,4.57,0,0,1-.58,0v.21h.84l.56,0,.44,0h1l.45,0,.56,0H629v-.21a4.58,4.58,0,0,1-.58,0,1,1,0,0,1-.45-.16.85.85,0,0,1-.3-.37A1.64,1.64,0,0,1,627.57,479.33Z"/><path class="cls-9" d="M638.9,479.2a3.84,3.84,0,0,1-1,.74,3,3,0,0,1-1.4.33,1.22,1.22,0,0,1-.62-.15,1.34,1.34,0,0,1-.43-.4,1.82,1.82,0,0,1-.26-.55,2.24,2.24,0,0,1,.2-1.72,2.82,2.82,0,0,1,.91-1,7.41,7.41,0,0,1,1.26-.68q.73-.31,1.35-.63Zm-.8-7.38a1.54,1.54,0,0,1,.57.61,2,2,0,0,1,.2.72c0,.24,0,.44,0,.58v.9a.26.26,0,0,1-.13.2,2.72,2.72,0,0,1-.33.2l-.46.22-.49.23q-.82.36-1.63.7a8.26,8.26,0,0,0-1.46.76,3.48,3.48,0,0,0-.79.72,1.76,1.76,0,0,0-.39,1.17,2.22,2.22,0,0,0,.19,1,1.91,1.91,0,0,0,.51.68,2.1,2.1,0,0,0,.74.4,3,3,0,0,0,.89.13,4.2,4.2,0,0,0,1.82-.39,7.44,7.44,0,0,0,1.57-1,1.77,1.77,0,0,0,.54,1,1.47,1.47,0,0,0,1.05.41,1.49,1.49,0,0,0,.7-.16,2.45,2.45,0,0,0,.54-.36,2.35,2.35,0,0,0,.37-.41,1.89,1.89,0,0,0,.18-.31l-.19-.08a2.25,2.25,0,0,1-.28.35.56.56,0,0,1-.43.18.54.54,0,0,1-.4-.14.84.84,0,0,1-.2-.33,1.85,1.85,0,0,1-.09-.41,3.73,3.73,0,0,1,0-.39v-4.7a3.36,3.36,0,0,0-.28-1.46,2.34,2.34,0,0,0-.76-.92,3,3,0,0,0-1.14-.48,6.64,6.64,0,0,0-1.38-.14,8.12,8.12,0,0,0-1.08.09,6,6,0,0,0-1.21.29,3.27,3.27,0,0,0-1,.54,1,1,0,0,0-.41.83.87.87,0,0,0,.26.71.8.8,0,0,0,.51.21.67.67,0,0,0,.56-.25.81.81,0,0,0,.19-.5,1.54,1.54,0,0,0-.07-.52,1.12,1.12,0,0,1-.08-.25.45.45,0,0,1,.26-.37,2.25,2.25,0,0,1,.61-.26,4.82,4.82,0,0,1,.72-.14,5.39,5.39,0,0,1,.58,0A2,2,0,0,1,638.09,471.82Z"/></g></svg>