<svg xmlns="http://www.w3.org/2000/svg" viewBox="0 0 1080 1080"><defs><style>.cls-1{fill:#fff;}.cls-2{fill:#fbb300;}.cls-3{fill:#838487;}</style></defs><g id="Capa_2" data-name="Capa 2"><g id="Capa_1-2" data-name="Capa 1"><circle class="cls-1" cx="540" cy="540" r="540"/><path d="M687.05,431.76c-29.16,26-65.32,49.63-103.32,67.59L537.93,420,471.45,535.17q-7.31,1.32-14.12,2.42h-.08l-1.43.23c-.52.08-1,.16-1.54.26a538.28,538.28,0,0,1-84.75,6.71c-17.55,0-35.34-.87-52.95-2.58l146-252.78,75.4-130.58,75.4,130.58L692.57,426.7C690.41,428.72,688.56,430.42,687.05,431.76Z"/><path d="M685.33,675.34h0L651.68,617q23.24-22,44.5-46.06a713.61,713.61,0,0,0,46.19-58L906.14,796.61Z"/><path class="cls-2" d="M846.69,194.47C818.48,467.76,607.63,701.94,340,772l-1.25.33A754.42,754.42,0,0,1,173.86,796L184,778.53a744.88,744.88,0,0,0,159.43-23.44l1.24-.33c262.85-69,468.26-304.53,502-560.25C846.68,194.49,846.69,194.48,846.69,194.47Z"/><path class="cls-3" d="M847.54,187.71c-31,258.34-237.7,497.42-502.87,567.05l-1.24.33a745.68,745.68,0,0,1-163.37,23.59l127-219.93a557.78,557.78,0,0,0,150.05-3.47l3-.49c23.95-3.88,64.08-11.08,112.54-31.42,68.1-28.59,111.9-66,126-78.62,7-6.26,37.24-33.65,68.58-77.78C789.53,335.61,828.86,260.75,847.54,187.71Z"/><polygon points="569.34 505.81 537.93 505.81 537.93 451.41 569.34 505.81"/><polygon class="cls-3" points="537.93 451.41 537.93 505.81 506.52 505.81 537.93 451.41"/><path class="cls-3" d="M792.43,479.14a26.67,26.67,0,1,0,26.66,26.67A26.67,26.67,0,0,0,792.43,479.14Zm0,48.88a22.22,22.22,0,1,1,22.22-22.21A22.21,22.21,0,0,1,792.43,528Z"/><path class="cls-3" d="M783.08,519.72v-29.3H793.3a14.42,14.42,0,0,1,5.6.78,6.21,6.21,0,0,1,2.75,2.74,9.51,9.51,0,0,1,1.08,4.67,8.78,8.78,0,0,1-1.64,5.54,7.38,7.38,0,0,1-4.69,2.64,11.6,11.6,0,0,1,2.57,2.45,32.86,32.86,0,0,1,2.78,4.76l2.92,5.72h-5.79l-3.51-6.38A42.33,42.33,0,0,0,792.8,509a3.67,3.67,0,0,0-1.44-1.2,6.59,6.59,0,0,0-2.44-.33h-1v12.23Zm4.84-16.91h3.6a18.21,18.21,0,0,0,4.2-.29,2.72,2.72,0,0,0,1.46-1.17,4.36,4.36,0,0,0,.56-2.34,4.07,4.07,0,0,0-.56-2.25,3,3,0,0,0-1.52-1.17,19.83,19.83,0,0,0-3.94-.22h-3.8Z"/></g></g></svg>