<svg xmlns="http://www.w3.org/2000/svg" viewBox="0 0 1080 1080"><defs><style>.cls-1{fill:#f7931a;}.cls-2{fill:#fff;}</style></defs><g id="Capa_2" data-name="Capa 2"><g id="Capa_1-2" data-name="Capa 1"><path class="cls-1" d="M1063.84,670.63C991.7,959.92,698.67,1136,409.32,1063.84S-56,698.7,16.18,409.43,381.31-56,670.57,16.16,1136,381.33,1063.84,670.63Z"/><path class="cls-2" d="M778.11,463.07c10.75-71.85-44-110.48-118.78-136.24l24.27-97.34-59.25-14.76L600.72,309.5c-15.58-3.89-31.58-7.55-47.47-11.18L577,202.93l-59.22-14.77-24.28,97.31c-12.9-2.94-25.56-5.84-37.84-8.9l.07-.3-81.72-20.4-15.76,63.28s44,10.07,43,10.7c24,6,28.34,21.87,27.61,34.45L401.29,475.19a50.09,50.09,0,0,1,6.16,2c-2-.49-4.09-1-6.26-1.55L362.44,630.94c-2.94,7.29-10.38,18.23-27.16,14.08.59.86-43.07-10.75-43.07-10.75L262.8,702.09l77.11,19.22c14.34,3.59,28.4,7.36,42.24,10.9l-24.52,98.45,59.18,14.76L441.1,748c16.17,4.39,31.86,8.44,47.22,12.25l-24.2,97L523.37,872l24.53-98.27c101,19.12,177,11.41,209-80,25.77-73.57-1.28-116-54.45-143.69C741.17,541.14,770.33,515.67,778.11,463.07ZM642.73,652.9c-18.31,73.57-142.21,33.8-182.37,23.83L492.89,546.3C533.06,556.32,661.86,576.17,642.73,652.9ZM661.05,462c-16.7,66.93-119.82,32.92-153.27,24.59l29.5-118.3C570.73,376.64,678.45,392.2,661.05,462Z"/></g></g></svg>