<svg xmlns="http://www.w3.org/2000/svg" viewBox="0 0 1080 1080"><defs><style>.cls-1{fill:#2573c2;}.cls-2{fill:#fff;}</style></defs><g id="Capa_2" data-name="Capa 2"><g id="Capa_1-2" data-name="Capa 1"><circle class="cls-1" cx="540" cy="540" r="540"/><path class="cls-2" d="M892.4,397.87A77.51,77.51,0,0,0,882,363.53,49.19,49.19,0,0,0,855.79,340a77.58,77.58,0,0,0-36.93-8.1H339.55L305.21,434.81H739.48L670.9,645.19H236.74L202.39,748.12H684a133.2,133.2,0,0,0,42-8.1c13.5-7.67,28.94-15.45,42-26.25a206.6,206.6,0,0,0,34.34-34.34,232.76,232.76,0,0,0,21.17-39.64l63.61-200a74.12,74.12,0,0,0,5.29-41.91Z"/><path class="cls-2" d="M476.39,492.26H220.86l-34.34,95.15H444.64Z"/></g></g></svg>