<svg xmlns="http://www.w3.org/2000/svg" viewBox="0 0 1080 1080"><defs><style>.cls-1{fill:#c2a633;}.cls-2{fill:#fff;}</style></defs><g id="Capa_2" data-name="Capa 2"><g id="Capa_1-2" data-name="Capa 1"><path class="cls-1" d="M727.23,546.79c.24,179.32-149.69,177-170.49,177H475.81V571.66H597.19V508H475.81V355.86H553C581.82,355.86,727,367.48,727.23,546.79Z"/><path class="cls-1" d="M540,0C241.76,0,0,241.76,0,540s241.76,540,540,540,540-241.76,540-540S838.24,0,540,0Zm21.22,831.65H365.66v-260H296.72V508h68.93V248H533.49c39.71,0,302.71-8.24,302.71,296.72C836.2,854.7,561.22,831.65,561.22,831.65Z"/><path class="cls-2" d="M533.49,248H365.65V508H296.72v63.69h68.94v260H561.22s275,23.05,275-287C836.2,239.73,573.2,248,533.49,248Zm23.25,475.79H475.81V571.66H597.19V508H475.81V355.86H553c28.86,0,174,11.62,174.27,190.93S577.54,723.76,556.74,723.76Z"/></g></g></svg>