<svg xmlns="http://www.w3.org/2000/svg" viewBox="0 0 1080 1080"><defs><style>.cls-1{fill:#53ae94;}.cls-2{fill:#fff;}</style></defs><g id="Capa_2" data-name="Capa 2"><g id="Capa_1-2" data-name="Capa 1"><path class="cls-1" d="M540,0c298.22,0,540,241.78,540,540s-241.79,540-540,540S0,838.29,0,540,241.75,0,540,0"/><path class="cls-2" d="M606.65,468.05V387.72h183.7V265.32H290.13v122.4H473.85V468c-149.31,6.86-261.58,36.43-261.58,71.85s112.32,65,261.58,71.9V869.05H606.69V611.71c149-6.88,261.08-36.42,261.08-71.82s-112-64.94-261.08-71.82m0,121.85v-.07c-3.75.24-23,1.4-65.88,1.4-34.28,0-58.39-1-66.89-1.42v.11C342,584.1,243.54,561.13,243.54,533.64S342,483.22,473.92,477.36v89.7c8.64.59,33.35,2.05,67.45,2.05,41,0,61.56-1.71,65.34-2.05v-89.7c131.66,5.87,229.89,28.86,229.89,56.25S738.32,584,606.71,589.87"/></g></g></svg>