<svg xmlns="http://www.w3.org/2000/svg" viewBox="0 0 1080 1080"><defs><style>.cls-1{fill:#35a0e0;}.cls-2{fill:#fff;}</style></defs><g id="Capa_2" data-name="Capa 2"><g id="Capa_1-2" data-name="Capa 1"><circle class="cls-1" cx="540" cy="540" r="540"/><path class="cls-2" d="M607.47,224.68a140.7,140.7,0,0,0-69.68,121.19c0,25.76,10.33,51.64,23.27,74.78,10.33,20.66,15.43,56.74-20.66,74.79-25.75,15.42-59.35,5.09-74.78-20.66-15.43-20.66-33.47-41.31-56.74-56.74-43.8-25.76-95.44-25.76-139.23,0a140.34,140.34,0,0,0,0,242.52c43.79,25.75,95.43,25.75,139.23,0,23.27-12.95,41.31-33.47,54.13-56.74,10.32-18,38.69-41.32,74.78-20.66,25.75,15.43,33.47,49,20.66,74.78-13,23.27-20.66,49-20.66,74.78a140.44,140.44,0,0,0,69.68,121.2c43.8,25.75,95.44,25.75,139.24,0a140.24,140.24,0,0,0,0-242.39c-23.27-12.94-49-18-77.4-18-23.27,0-54.12-15.43-54.12-54.13,0-31,23.27-54.12,54.12-54.12,25.76,0,54.13-5.1,77.4-18a140.24,140.24,0,0,0,0-242.39c-20.66-12.94-46.41-18-69.69-18s-49,5.1-69.55,17.91"/></g></g></svg>